<svg width="80" height="80" viewBox="0 0 80 80" fill="none" xmlns="http://www.w3.org/2000/svg">
<path d="M78.999 69.8823C78.3707 69.7258 77.7341 70.1073 77.5768 70.7356C77.2651 71.9825 76.7062 73.1134 75.9612 74.0837C75.546 72.1256 74.3999 70.4106 72.7685 69.3131C73.0701 68.6913 73.2407 67.9912 73.2407 67.2508C73.2407 64.6869 71.2057 62.6009 68.7043 62.6009C66.2029 62.6009 64.1677 64.6867 64.1677 67.2508C64.1677 67.9911 64.3382 68.6911 64.6399 69.3131C63.0126 70.4078 61.868 72.1172 61.4504 74.0694C60.2659 72.5275 59.5593 70.6 59.5593 68.5097C59.5593 63.467 63.6616 59.3647 68.7043 59.3647C72.7055 59.3647 76.3065 62.0373 77.4608 65.8638C77.6479 66.4838 78.3018 66.8345 78.9223 66.6478C79.5423 66.4608 79.8934 65.8064 79.7063 65.1864C79.0082 62.873 77.5563 60.7934 75.6179 59.3311C73.9269 58.0556 71.9613 57.2895 69.8769 57.0802V51.0006C69.8769 49.4178 68.5893 48.1303 67.0066 48.1303H41.3116V43.9166C52.8955 43.3045 62.113 33.6831 62.113 21.9741C62.113 9.8575 52.2555 0 40.139 0C29.3029 0 20.0396 7.92844 18.4143 18.6553C18.3173 19.2956 18.7577 19.8934 19.3979 19.9905C20.039 20.087 20.636 19.6469 20.733 19.0069C22.168 9.53687 30.3499 2.34531 40.139 2.34531C50.9623 2.34531 59.7677 11.1508 59.7677 21.9741C59.7677 26.4709 58.2465 30.6187 55.6932 33.9322C55.3912 33.11 54.9244 32.3598 54.3138 31.7442C52.8907 30.3097 50.9032 29.4781 45.0771 28.7438L45.0673 26.4011C46.7715 25.0934 47.716 23.3319 48.0052 21.4353C48.4277 21.3273 48.8148 21.1069 49.1298 20.7892C49.5887 20.3264 49.8401 19.7125 49.8371 19.0609L49.8313 17.6562C49.8285 17.0127 49.5749 16.4127 49.1412 15.9675L49.1271 12.615C49.1118 9.03469 46.1948 6.13281 42.6179 6.13281C42.6088 6.13281 42.5993 6.13281 42.5899 6.13281L37.0857 6.15609C35.6907 6.16187 34.4379 7.00531 33.9004 8.27766C32.0824 8.40125 30.6421 9.91703 30.6496 11.7762L30.6676 16.0456C30.2376 16.4945 29.9891 17.0967 29.9919 17.7403L29.9979 19.1445C30.0026 20.2836 30.7912 21.2395 31.8496 21.5025C32.1523 23.3831 33.1029 25.1422 34.8294 26.4444L34.8394 28.7869C32.8102 29.0602 29.2193 29.6488 27.3954 30.5703C26.0465 31.2505 25.0169 32.413 24.4555 33.7983C22.4021 31.077 21.0371 27.7919 20.6332 24.1836C20.5612 23.5398 19.9796 23.0766 19.3374 23.1489C18.6937 23.2209 18.2304 23.8011 18.3026 24.4445C19.5051 35.1858 28.3001 43.3558 38.9665 43.9161V48.1303H13.301C11.7182 48.1303 10.4307 49.418 10.4307 51.0006V57.0786C4.64366 57.6678 0.113037 62.5695 0.113037 68.5095C0.113037 74.8428 5.27022 80 11.6033 80C17.9133 80 23.0937 74.8598 23.0937 68.5097C23.0937 62.5697 18.563 57.668 12.776 57.0787V51.0008C12.776 50.7113 13.0116 50.4756 13.3012 50.4756H38.9665V57.0787C33.1794 57.668 28.6488 62.5697 28.6488 68.5097C28.6488 74.8428 33.806 80 40.1391 80C46.4491 80 51.6294 74.8598 51.6294 68.5097C51.6294 62.5697 47.0988 57.668 41.3118 57.0787V50.4756H67.0068C67.2963 50.4756 67.5319 50.7113 67.5319 51.0008V57.0787C61.7449 57.668 57.2143 62.5697 57.2143 68.5097C57.2143 74.8464 62.3779 80 68.7046 80C73.9884 80 78.5724 76.4242 79.8524 71.3045C80.0091 70.6761 79.6271 70.0394 78.999 69.8823ZM36.7659 34.268L36.7227 34.3058C36.4954 34.5053 36.2451 34.5088 36.1158 34.4928C35.9868 34.4769 35.7446 34.4131 35.5726 34.1641L33.6202 31.3381C33.9929 31.2777 34.3768 31.2191 34.7735 31.1631L38.014 33.1708L36.7816 34.2542C36.7763 34.2589 36.771 34.2634 36.7659 34.268ZM45.1629 31.1195C45.5596 31.172 45.9435 31.2273 46.3162 31.2847L44.381 34.1331C44.2105 34.3841 43.9687 34.4497 43.8394 34.4664C43.711 34.4831 43.4596 34.4816 43.2307 34.2827L41.9357 33.1569L45.1629 31.1195ZM39.2616 36.5041L38.9176 35.4992L39.9804 34.5648L41.0526 35.4969C40.9524 35.7941 40.8323 36.1495 40.7143 36.4978L39.2616 36.5041ZM39.2848 38.8492L40.7021 38.8433L41.5713 41.5503C40.5413 41.625 39.5204 41.6219 38.4366 41.5289L39.2848 38.8492ZM52.6488 33.3959C53.3362 34.0887 53.7301 35.0703 53.7441 36.1087C51.0813 38.6727 47.6985 40.493 43.9327 41.2334L42.7908 37.677C42.8851 37.3994 43.0896 36.7953 43.1048 36.7502C43.4424 36.8205 43.7784 36.8395 44.1418 36.7922C45.0259 36.6772 45.8201 36.1884 46.3212 35.4511L48.8374 31.7475C50.3548 32.0827 51.6774 32.4167 52.6488 33.3959ZM34.1387 10.6147L34.1629 10.6145C35.0023 10.6109 35.7541 10.0659 36.0343 9.25891C36.191 8.8075 36.6174 8.50313 37.0955 8.50109L42.5998 8.47781H42.5999H42.6177C44.9057 8.47781 46.7721 10.3344 46.7818 12.6247L46.7937 15.4384C46.3979 15.488 45.9559 15.5709 45.5423 15.7094L45.5324 13.4011C45.5262 11.9072 44.3146 10.7039 42.8257 10.7039C42.8205 10.7039 42.8154 10.7039 42.8101 10.7039C41.5594 10.7095 41.3444 11.1592 39.8698 11.1655L39.599 11.1667C39.5948 11.1667 39.5905 11.1667 39.5863 11.1667C38.5335 11.1667 38.2216 10.7345 36.9496 10.7286L36.9313 10.7288C35.4399 10.7369 34.2315 11.957 34.2376 13.4487L34.2476 15.7628C33.8377 15.6275 33.4013 15.5473 33.0105 15.5002L32.9948 11.7663C32.9924 11.1348 33.4999 10.6172 34.1387 10.6147ZM34.0946 20.3692C34.0783 19.7333 33.558 19.2267 32.9226 19.2267C32.9207 19.2267 32.919 19.2267 32.9173 19.2267L32.4384 19.2289C32.4382 19.2289 32.438 19.2289 32.438 19.2289C32.3858 19.2289 32.3433 19.1867 32.3432 19.1345L32.3376 17.7941C32.8716 17.8292 33.4993 17.9287 33.7477 18.0898C34.9383 18.8625 36.6029 18.0145 36.5965 16.5211L36.5834 13.4388C36.5824 13.2388 36.7446 13.075 36.9469 13.0739L36.964 13.0737H36.973C37.6568 13.0737 38.2208 13.5119 39.588 13.5119H39.6098L39.8805 13.5106C41.6696 13.5031 42.0916 13.052 42.8224 13.0491H42.8248C43.0235 13.0491 43.1869 13.2091 43.1877 13.4108L43.2007 16.4902C43.2044 17.3789 43.8416 18.1405 44.7151 18.3005C45.1771 18.3858 45.6527 18.2908 46.0529 18.0338C46.2929 17.8795 46.9087 17.768 47.4868 17.7283L47.4923 19.0709C47.4926 19.123 47.4501 19.1656 47.398 19.1658L46.9188 19.1678C46.281 19.1705 45.7623 19.6825 45.7512 20.3202C45.6941 23.6327 42.8963 25.7942 39.9465 25.8453C37.0129 25.8192 34.1801 23.6986 34.0946 20.3692ZM39.9429 28.1906H39.9509C39.9569 28.1906 39.963 28.1906 39.9691 28.1905C40.924 28.1758 41.8499 28.0039 42.7274 27.6872L42.7321 28.7916C42.7337 29.1305 42.8112 29.4533 42.9466 29.7452L39.9704 31.6241L36.9784 29.7703C37.1115 29.4773 37.1863 29.1537 37.1849 28.8148L37.1802 27.7106C38.0604 28.02 38.9879 28.1841 39.9429 28.1906ZM28.4513 32.6642C29.166 32.303 30.323 32.0019 31.1041 31.8223L33.6429 35.4972C34.1487 36.2295 34.9455 36.7119 35.829 36.8206C36.1926 36.8656 36.5307 36.8442 36.8737 36.7695L37.1904 37.6942L36.0858 41.1837C32.3412 40.3995 28.9746 38.5491 26.3373 35.9467C26.436 34.538 27.2341 33.278 28.4513 32.6642ZM6.52007 76.1077C6.54132 76.0223 6.19335 72.8353 9.08101 71.1136C9.80272 71.6103 10.6705 71.9006 11.6033 71.9006C12.5362 71.9006 13.4038 71.6103 14.1255 71.1134C16.9593 72.8031 16.6762 76.0659 16.6866 76.1075C15.2319 77.0839 13.4832 77.6545 11.6033 77.6545C9.72351 77.6545 7.97476 77.0841 6.52007 76.1077ZM11.6033 69.5555C10.3951 69.5555 9.4121 68.5216 9.4121 67.2508C9.4121 65.9802 10.3951 64.9463 11.6033 64.9463C12.8116 64.9463 13.7944 65.9802 13.7944 67.2508C13.7944 68.5216 12.8115 69.5555 11.6033 69.5555ZM20.7483 68.5097C20.7483 70.6 20.0418 72.5275 18.8571 74.0695C18.4394 72.1172 17.2949 70.4078 15.6676 69.3131C15.9691 68.6913 16.1396 67.9912 16.1396 67.2508C16.1396 64.6869 14.1046 62.6009 11.6032 62.6009C9.10179 62.6009 7.06663 64.6867 7.06663 67.2508C7.06663 67.9911 7.2371 68.6911 7.53882 69.3131C5.91147 70.4078 4.76694 72.1172 4.34929 74.0695C3.1646 72.5277 2.45804 70.6002 2.45804 68.5097C2.45804 63.467 6.56038 59.3647 11.603 59.3647C16.6457 59.3647 20.7483 63.467 20.7483 68.5097ZM35.0557 76.1077C35.0769 76.0222 34.729 72.8355 37.6168 71.1136C38.3385 71.6103 39.2063 71.9008 40.139 71.9008C41.0718 71.9008 41.9394 71.6105 42.6612 71.1136C45.4949 72.8033 45.2118 76.0661 45.2223 76.1077C43.7676 77.0841 42.0188 77.6547 40.139 77.6547C38.2591 77.6547 36.5104 77.0841 35.0557 76.1077ZM40.139 69.5555C38.9307 69.5555 37.9479 68.5216 37.9479 67.2508C37.9479 65.9802 38.9307 64.9463 40.139 64.9463C41.3473 64.9463 42.3301 65.9802 42.3301 67.2508C42.3301 68.5216 41.3473 69.5555 40.139 69.5555ZM49.2841 68.5097C49.2841 70.6 48.5776 72.5275 47.3929 74.0695C46.9752 72.1172 45.8307 70.4078 44.2034 69.3131C44.5049 68.6913 44.6754 67.9912 44.6754 67.2508C44.6754 64.6869 42.6404 62.6009 40.139 62.6009C37.6376 62.6009 35.6026 64.6867 35.6026 67.2508C35.6026 67.9911 35.773 68.6911 36.0746 69.3131C34.4471 70.4078 33.3026 72.1173 32.8851 74.0695C31.7004 72.5275 30.9938 70.6002 30.9938 68.5097C30.9938 63.467 35.0962 59.3647 40.1388 59.3647C45.1815 59.3647 49.2841 63.467 49.2841 68.5097ZM68.7043 64.9463C69.9126 64.9463 70.8954 65.9802 70.8954 67.2508C70.8954 68.5216 69.9126 69.5555 68.7043 69.5555C67.496 69.5555 66.513 68.5216 66.513 67.2508C66.5132 65.9802 67.4962 64.9463 68.7043 64.9463ZM63.621 76.1075C63.6423 76.0222 63.2946 72.8353 66.1821 71.1136C66.9038 71.6103 67.7716 71.9006 68.7044 71.9006C69.6373 71.9006 70.5049 71.6103 71.2266 71.1134C74.0662 72.8067 73.7773 76.0755 73.7877 76.1172C72.3229 77.0945 70.5688 77.6547 68.7044 77.6547C66.8244 77.6547 65.0757 77.0841 63.621 76.1075Z" fill="#121E28"/>
</svg>
