<svg width="48" height="48" viewBox="0 0 48 48" fill="none" xmlns="http://www.w3.org/2000/svg">
<path d="M45.2667 10.8H42.7103C42.928 10.0861 43.0479 9.34607 43.0667 8.6C43.0667 6.84957 42.3713 5.17084 41.1336 3.9331C39.8958 2.69536 38.2171 2 36.4667 2C34.7162 2 33.0375 2.69536 31.7998 3.9331C30.562 5.17084 29.8667 6.84957 29.8667 8.6C29.8855 9.34607 30.0054 10.0861 30.2231 10.8H12.208C12.0136 9.52377 11.3456 8.36762 10.3369 7.56195C9.32819 6.75627 8.05298 6.36023 6.76536 6.45273C5.47773 6.54523 4.27222 7.11949 3.38907 8.06107C2.50591 9.00265 2.00994 10.2424 2 11.5333V40.8667C2.00155 42.2276 2.54288 43.5324 3.50523 44.4948C4.46758 45.4571 5.77237 45.9984 7.13333 46H45.2667C45.4612 46 45.6477 45.9227 45.7852 45.7852C45.9227 45.6477 46 45.4612 46 45.2667V11.5333C46 11.3388 45.9227 11.1523 45.7852 11.0148C45.6477 10.8773 45.4612 10.8 45.2667 10.8ZM36.4667 3.46667C37.8276 3.46822 39.1324 4.00955 40.0948 4.9719C41.0571 5.93425 41.5984 7.23903 41.6 8.6C41.6 11.9051 37.9135 17.18 36.4667 19.1255C35.0191 17.18 31.3333 11.9081 31.3333 8.6C31.3349 7.23903 31.8762 5.93425 32.8386 4.9719C33.8009 4.00955 35.1057 3.46822 36.4667 3.46667ZM3.46667 11.5333C3.46667 10.5609 3.85298 9.62824 4.54061 8.94061C5.22824 8.25297 6.16087 7.86667 7.13333 7.86667C8.10579 7.86667 9.03842 8.25297 9.72606 8.94061C10.4137 9.62824 10.8 10.5609 10.8 11.5333V37.2733C10.3226 36.7844 9.75212 36.3959 9.12224 36.1308C8.49236 35.8657 7.8158 35.7293 7.13241 35.7297C6.44901 35.7301 5.77261 35.8673 5.14305 36.1332C4.51349 36.399 3.9435 36.7882 3.46667 37.2777V11.5333ZM44.5333 44.5333H7.13333C6.40814 44.5333 5.69922 44.3183 5.09624 43.9154C4.49326 43.5125 4.0233 42.9398 3.74578 42.2698C3.46825 41.5998 3.39564 40.8626 3.53712 40.1513C3.6786 39.4401 4.02782 38.7867 4.54061 38.2739C5.0534 37.7612 5.70674 37.4119 6.418 37.2705C7.12927 37.129 7.86651 37.2016 8.53651 37.4791C9.2065 37.7566 9.77916 38.2266 10.1821 38.8296C10.585 39.4326 10.8 40.1415 10.8 40.8667C10.8 41.0612 10.8773 41.2477 11.0148 41.3852C11.1523 41.5227 11.3388 41.6 11.5333 41.6C11.7278 41.6 11.9144 41.5227 12.0519 41.3852C12.1894 41.2477 12.2667 41.0612 12.2667 40.8667V12.2667H30.7225C32.0852 15.3123 33.8224 18.176 35.8939 20.7917C35.9626 20.8776 36.0498 20.9469 36.1489 20.9946C36.2481 21.0423 36.3567 21.067 36.4667 21.067C36.5767 21.067 36.6853 21.0423 36.7844 20.9946C36.8836 20.9469 36.9707 20.8776 37.0394 20.7917C39.1109 18.176 40.8481 15.3123 42.2109 12.2667H44.5333V44.5333Z" fill="#154BEC"/>
<path d="M40.1331 8.6C40.1331 7.87481 39.9181 7.16589 39.5152 6.56291C39.1123 5.95993 38.5396 5.48997 37.8696 5.21244C37.1997 4.93492 36.4624 4.86231 35.7511 5.00379C35.0399 5.14527 34.3865 5.49449 33.8737 6.00728C33.361 6.52007 33.0117 7.17341 32.8703 7.88467C32.7288 8.59594 32.8014 9.33318 33.0789 10.0032C33.3564 10.6732 33.8264 11.2458 34.4294 11.6487C35.0324 12.0516 35.7413 12.2667 36.4665 12.2667C37.4386 12.2655 38.3705 11.8788 39.0579 11.1914C39.7453 10.5041 40.132 9.57211 40.1331 8.6ZM34.2665 8.6C34.2665 8.16488 34.3955 7.73954 34.6372 7.37775C34.879 7.01596 35.2226 6.73398 35.6246 6.56747C36.0266 6.40095 36.4689 6.35739 36.8957 6.44228C37.3224 6.52716 37.7144 6.73669 38.0221 7.04437C38.3298 7.35204 38.5393 7.74405 38.6242 8.1708C38.7091 8.59756 38.6655 9.03991 38.499 9.44191C38.3325 9.8439 38.0505 10.1875 37.6887 10.4292C37.3269 10.671 36.9016 10.8 36.4665 10.8C35.883 10.8 35.3234 10.5682 34.9108 10.1556C34.4983 9.74306 34.2665 9.18348 34.2665 8.6Z" fill="#154BEC"/>
<path d="M23.2669 21.0667V15.2H21.8002V20.3333H15.2002V21.8H22.5335C22.728 21.8 22.9145 21.7227 23.0521 21.5852C23.1896 21.4477 23.2669 21.2612 23.2669 21.0667Z" fill="#154BEC"/>
<path d="M26.9335 21.8H33.5335V20.3333H27.6669V15.2H26.2002V21.0667C26.2002 21.2612 26.2775 21.4477 26.415 21.5852C26.5525 21.7227 26.739 21.8 26.9335 21.8Z" fill="#154BEC"/>
<path d="M34.2669 24.7333H26.9335C26.739 24.7333 26.5525 24.8106 26.415 24.9481C26.2775 25.0857 26.2002 25.2722 26.2002 25.4667V31.3333C26.2002 31.5278 26.2775 31.7144 26.415 31.8519C26.5525 31.9894 26.739 32.0667 26.9335 32.0667H34.2669C34.4614 32.0667 34.6479 31.9894 34.7854 31.8519C34.9229 31.7144 35.0002 31.5278 35.0002 31.3333V25.4667C35.0002 25.2722 34.9229 25.0857 34.7854 24.9481C34.6479 24.8106 34.4614 24.7333 34.2669 24.7333ZM33.5335 30.6H27.6669V26.2H33.5335V30.6Z" fill="#154BEC"/>
<path d="M23.2669 31.3333V25.4667C23.2669 25.2722 23.1896 25.0857 23.0521 24.9481C22.9145 24.8106 22.728 24.7333 22.5335 24.7333H15.2002V26.2H21.8002V30.6H15.2002V32.0667H22.5335C22.728 32.0667 22.9145 31.9894 23.0521 31.8519C23.1896 31.7144 23.2669 31.5278 23.2669 31.3333Z" fill="#154BEC"/>
<path d="M34.2669 36.4667H15.2002V37.9333H33.5335V41.6H35.0002V37.2C35.0002 37.0055 34.9229 36.819 34.7854 36.6815C34.6479 36.5439 34.4614 36.4667 34.2669 36.4667Z" fill="#154BEC"/>
<path d="M37.9336 25.4667V31.3333C37.9336 31.5278 38.0109 31.7144 38.1484 31.8519C38.2859 31.9894 38.4724 32.0667 38.6669 32.0667H41.6003V30.6H39.4003V26.2H41.6003V24.7333H38.6669C38.4724 24.7333 38.2859 24.8106 38.1484 24.9481C38.0109 25.0857 37.9336 25.2722 37.9336 25.4667Z" fill="#154BEC"/>
<path d="M37.9336 37.2V41.6H39.4003V37.9333H41.6003V36.4667H38.6669C38.4724 36.4667 38.2859 36.5439 38.1484 36.6815C38.0109 36.819 37.9336 37.0055 37.9336 37.2Z" fill="#154BEC"/>
</svg>
