<svg width="48" height="48" viewBox="0 0 48 48" fill="none" xmlns="http://www.w3.org/2000/svg">
<path d="M42.2053 34.4223C42.193 32.6392 41.3337 30.9649 39.9412 29.9009C41.2097 28.3651 41.921 26.416 41.921 24.4082C41.921 19.6577 38.0562 15.793 33.3057 15.793C28.5553 15.793 24.6905 19.6577 24.6905 24.4082C24.6905 26.416 25.4018 28.3651 26.6702 29.9009C25.5854 30.7299 24.8243 31.9294 24.535 33.2621C23.4888 32.5623 22.25 32.1784 20.9645 32.1784H18.0131V30.8189C19.5198 29.7146 20.4724 27.8462 20.4724 25.6412V23.4161C21.3991 22.8425 22.018 21.8171 22.018 20.6496C22.018 19.1215 20.9452 17.8261 19.5133 17.4859C19.0922 16.1636 17.8415 15.2064 16.4066 15.2064C15.7916 15.2064 15.2036 15.3753 14.6944 15.6912C14.1853 15.3753 13.5974 15.2064 12.9822 15.2064C11.5474 15.2064 10.2967 16.1637 9.87557 17.4859C8.44359 17.8261 7.37075 19.1215 7.37075 20.6496C7.37075 21.8172 7.98967 22.8426 8.91634 23.4161V26.1111C8.91634 28.0626 9.88984 29.79 11.3757 30.8366V32.1783H8.42409C4.88183 32.1784 2 35.0602 2 38.6025V45.1406C2 45.6152 2.38474 46 2.85938 46H29.4386C29.9132 46 30.2979 45.6152 30.2979 45.1406C30.2979 44.6661 29.9132 44.2813 29.4386 44.2813H22.3302V40.7595C22.3302 37.7415 24.7856 35.2862 27.8036 35.2862H30.1826C30.5076 36.7108 31.784 37.7774 33.3058 37.7774C34.8275 37.7774 36.104 36.7108 36.429 35.2862H38.808C41.826 35.2862 44.2813 37.7415 44.2813 40.7595V44.2813H37.173C36.6984 44.2813 36.3136 44.6661 36.3136 45.1406C36.3136 45.6152 36.6984 46 37.173 46H45.1406C45.6153 46 46 45.6152 46 45.1406V40.7595C46 38.0218 44.4621 35.6371 42.2053 34.4223ZM26.4093 24.4082C26.4093 20.6055 29.503 17.5117 33.3057 17.5117C37.1085 17.5117 40.2022 20.6055 40.2022 24.4082C40.2022 25.9407 39.7107 27.3834 38.8024 28.5736C38.8358 28.3279 38.8546 28.0776 38.8546 27.8228V25.5183C38.8546 25.0437 38.4698 24.6589 37.9952 24.6589C36.6144 24.6589 35.3278 24.1079 34.3843 23.1295C34.6343 22.717 34.8434 22.2739 35.0032 21.8036C35.1558 21.3542 34.9153 20.8662 34.4659 20.7135C34.0164 20.5608 33.5284 20.8014 33.3758 21.2509C32.6834 23.2893 30.7708 24.6588 28.6163 24.6588C28.1417 24.6588 27.7569 25.0436 27.7569 25.5182V27.8228C27.7569 28.0775 27.7758 28.3278 27.8091 28.5735C26.9008 27.3834 26.4093 25.9407 26.4093 24.4082ZM33.3057 31.653C31.1938 31.653 29.4757 29.9348 29.4757 27.8229V26.3222C30.9369 26.1354 32.2748 25.4782 33.3057 24.482C34.3515 25.4987 35.686 26.1409 37.1357 26.3234V27.823C37.1358 29.9348 35.4176 31.653 33.3057 31.653ZM10.6029 19.1175C11.0451 19.112 11.4109 18.7719 11.4486 18.3314C11.5159 17.5428 12.1895 16.9252 12.982 16.9252C13.3985 16.9252 13.7886 17.0892 14.0808 17.3869C14.2424 17.5516 14.4635 17.6444 14.6943 17.6444C14.925 17.6444 15.146 17.5516 15.3077 17.3869C15.5999 17.0892 15.9901 16.9252 16.4065 16.9252C17.199 16.9252 17.8727 17.5429 17.9399 18.3314C17.9776 18.772 18.3435 19.1121 18.7857 19.1175C19.6202 19.1277 20.2991 19.815 20.2991 20.6496C20.2991 21.4948 19.6115 22.1823 18.7663 22.1823C18.2313 22.1823 17.7434 21.9098 17.4613 21.4534C17.3047 21.2001 17.0281 21.0459 16.7303 21.0459C16.4324 21.0459 16.1558 21.2002 15.9993 21.4535C15.7172 21.9099 15.2294 22.1823 14.6943 22.1823C14.1592 22.1823 13.6713 21.9098 13.3892 21.4534C13.2326 21.2001 12.956 21.0459 12.6582 21.0459C12.3604 21.0459 12.0837 21.2002 11.9272 21.4535C11.6451 21.9099 11.1573 22.1823 10.6222 22.1823C9.777 22.1823 9.08941 21.4948 9.08941 20.6496C9.08941 19.815 9.76841 19.1277 10.6029 19.1175ZM10.6349 23.9007C11.3868 23.8979 12.0938 23.642 12.6581 23.1873C13.2258 23.6446 13.9376 23.9011 14.6942 23.9011C15.4509 23.9011 16.1627 23.6446 16.7302 23.1873C17.2946 23.642 18.0016 23.8979 18.7534 23.9007V25.6411C18.7534 28.2655 17.0462 30.1703 14.6941 30.1703C12.4558 30.1703 10.6347 28.3494 10.6347 26.1111V23.9007H10.6349ZM14.6943 31.8892C15.254 31.8892 15.7895 31.8099 16.2942 31.6637V33.1914C16.2942 34.0737 15.5765 34.7914 14.6943 34.7914C13.812 34.7914 13.0943 34.0736 13.0943 33.1914V31.662C13.6028 31.8088 14.1392 31.8892 14.6943 31.8892ZM20.6114 40.7595V44.2813H3.71875V38.6025C3.71875 36.0081 5.82955 33.8972 8.42409 33.8972H11.4518C11.7763 35.3891 13.1065 36.5102 14.6943 36.5102C16.282 36.5102 17.6123 35.3891 17.9368 33.8972H20.9645C21.9801 33.8972 22.9557 34.2249 23.7576 34.817C21.8599 36.1131 20.6114 38.293 20.6114 40.7595ZM26.1859 33.753C26.4066 32.4982 27.2087 31.4223 28.3885 30.8511C28.4582 30.8174 28.5214 30.7742 28.5783 30.7244C28.9717 31.3631 29.4914 31.9156 30.1016 32.3488V33.5673H27.8035C27.2472 33.5673 26.7063 33.6329 26.1859 33.753ZM33.3057 36.0586C32.4867 36.0586 31.8204 35.3923 31.8204 34.5733V33.1682C32.2935 33.2998 32.7912 33.3717 33.3057 33.3717C33.8202 33.3717 34.318 33.2998 34.7911 33.1682V34.5733C34.791 35.3923 34.1247 36.0586 33.3057 36.0586ZM36.5098 33.5673V32.3489C37.12 31.9157 37.6396 31.3632 38.0331 30.7244C38.0901 30.7741 38.1533 30.8173 38.2229 30.8511C39.4027 31.4224 40.2049 32.4982 40.4255 33.753C39.9051 33.6329 39.3642 33.5673 38.8078 33.5673H36.5098Z" fill="#154BEC"/>
<path d="M33.3057 44.2812C33.0796 44.2812 32.8588 44.3731 32.6981 44.533C32.5382 44.6929 32.4463 44.9146 32.4463 45.1406C32.4463 45.3666 32.5382 45.5884 32.6981 45.7481C32.8579 45.908 33.0796 46 33.3057 46C33.5325 46 33.7534 45.908 33.9141 45.7481C34.0739 45.5884 34.165 45.3666 34.165 45.1406C34.165 44.9146 34.0739 44.6929 33.9141 44.533C33.7534 44.3731 33.5325 44.2812 33.3057 44.2812Z" fill="#154BEC"/>
<path d="M17.9427 8.76509L20.0668 10.3012L19.2544 12.7832C19.0188 13.5028 19.2625 14.2555 19.8751 14.7006C20.4878 15.1459 21.2788 15.145 21.8905 14.6985L23.9998 13.1587L26.1093 14.6984C26.4156 14.9221 26.767 15.0338 27.1184 15.0338C27.4685 15.0338 27.8188 14.9227 28.1246 14.7005C28.7372 14.2554 28.9809 13.5027 28.7453 12.7831L27.9329 10.3011L30.057 8.76491C30.6699 8.32165 30.9153 7.5703 30.6824 6.85074C30.4495 6.1311 29.8103 5.66618 29.0538 5.66618H26.4305L25.6285 3.18534C25.3959 2.46527 24.7565 2 23.9998 2C23.2432 2 22.6038 2.46527 22.3711 3.18525L21.5691 5.66618H18.9458C18.1894 5.66618 17.5501 6.1311 17.3172 6.85074C17.0843 7.5703 17.3298 8.32173 17.9427 8.76509ZM22.1945 7.38493C22.5673 7.38493 22.8975 7.14456 23.0122 6.7899L23.9998 3.73448L24.9875 6.78998C25.1022 7.14465 25.4324 7.38502 25.8052 7.38502H29.0324L26.4174 9.27607C26.1146 9.49512 25.988 9.88468 26.1043 10.2399L27.1051 13.2975L24.5064 11.4008C24.3555 11.2906 24.1777 11.2355 23.9998 11.2355C23.8219 11.2355 23.6441 11.2906 23.4931 11.4008L20.8944 13.2975L21.8952 10.2399C22.0115 9.88468 21.8849 9.49512 21.5821 9.27607L18.9673 7.38493H22.1945Z" fill="#154BEC"/>
</svg>
