<svg width="32" height="32" viewBox="0 0 32 32" fill="none" xmlns="http://www.w3.org/2000/svg">
<path d="M23.5175 28.9326H8.55811V30.0942H23.5175V28.9326Z" fill="#222160"/>
<path d="M11.9862 5.87016L11.1929 5.08631C11.8219 4.45058 12.5704 3.94555 13.3954 3.60032C14.2204 3.25508 15.1056 3.07646 15.9999 3.07472C16.8995 3.069 17.7911 3.24411 18.6218 3.58967C19.4524 3.93523 20.2051 4.44418 20.8353 5.08631L20.042 5.87016C18.9857 4.80257 17.5489 4.19795 16.0471 4.18912C15.2924 4.18475 14.5444 4.3312 13.847 4.61988C13.1497 4.90855 12.517 5.33363 11.9862 5.87016Z" fill="#222160"/>
<path d="M9.79509 3.66974L9.01123 2.89533C10.8701 1.04122 13.3885 0 16.014 0C18.6395 0 21.1579 1.04122 23.0168 2.89533L22.2329 3.66974C21.4169 2.84875 20.4453 2.19871 19.3751 1.75764C18.3048 1.31657 17.1574 1.09333 15.9998 1.10096C13.6732 1.10254 11.442 2.02626 9.79509 3.66974Z" fill="#222160"/>
<path d="M16.6138 25.7688H15.4521V29.4237H16.6138V25.7688Z" fill="#222160"/>
<path d="M15.9844 16.9677C16.2602 15.773 16.8423 14.8808 17.7921 14.2003C18.8491 13.4442 19.9215 12.688 20.9325 11.8714C21.1776 11.6748 21.4227 11.4631 21.6525 11.2514C21.8823 11.0548 22.0815 10.828 22.2347 10.5709C22.3113 10.586 22.3266 10.6314 22.3419 10.6768C22.6942 11.4026 23.0313 12.1436 23.3989 12.8695C23.4908 13.0358 23.4449 13.1568 23.3376 13.2929C23.0619 13.5954 22.7555 13.8525 22.4491 14.1095C21.5453 14.8505 20.5802 15.5159 19.6304 16.2115C18.8185 16.8013 18.0065 17.376 17.2406 18.0111C16.7963 18.374 16.3521 18.737 15.9844 19.1906C15.004 18.1018 13.7938 17.2852 12.6295 16.4232C11.5572 15.6218 10.4389 14.8656 9.39715 14.0188C9.1214 13.792 8.83034 13.55 8.60055 13.2778C8.50863 13.1719 8.44736 13.0812 8.52395 12.93C8.90693 12.1436 9.27459 11.3573 9.65758 10.5558C10.5001 11.5992 11.5878 12.31 12.6295 13.0963C13.1657 13.5046 13.7172 13.8827 14.2533 14.2759C15.0806 14.8808 15.6168 15.6823 15.8772 16.6652C15.9078 16.7408 15.9385 16.8316 15.9844 16.9677Z" fill="#E61E2A"/>
<path d="M8.07955 13.8525C8.90679 14.8052 9.88722 15.5009 10.8523 16.2116C12.0319 17.0736 13.2268 17.9053 14.3911 18.8127C14.5289 18.9185 14.6821 19.0395 14.82 19.1605C15.2643 19.5234 15.6932 19.9015 15.969 20.4761C16.5358 19.4629 17.4702 18.9034 18.3128 18.2683C19.2626 17.5424 20.243 16.8619 21.2081 16.1511C22.1426 15.4706 23.0771 14.775 23.8584 13.8828C24.0269 14.1247 24.1035 14.3667 24.226 14.5935C24.2873 14.6994 24.226 14.775 24.1801 14.8657C24.0728 15.0472 23.9196 15.1833 23.7664 15.3194C23.4447 15.6067 23.1077 15.8638 22.7554 16.1058C21.392 17.0887 20.0132 18.0565 18.6498 19.0395C18.466 19.1605 18.2975 19.2966 18.129 19.4478C17.6847 19.841 17.3783 20.2947 17.2864 20.8844C17.2558 21.0356 17.2098 21.0961 17.0566 21.081C16.3519 21.081 15.6319 21.081 14.9272 21.081C14.82 21.081 14.7434 21.0659 14.7281 20.9298C14.6209 20.1434 14.1306 19.599 13.5026 19.1605C12.6753 18.5707 11.8634 17.9809 11.0362 17.376C10.2702 16.8165 9.48892 16.2721 8.72296 15.7126C8.41658 15.4858 8.14083 15.2438 7.88041 14.9565C7.74253 14.7901 7.69657 14.6389 7.81913 14.4272C7.89572 14.276 7.97232 14.0794 8.07955 13.8525Z" fill="#E61E2A"/>
<path d="M31.016 25.7878H0.983887V6.97522H31.016V25.7878ZM2.09829 24.6734H29.9016V8.08962H2.09829V24.6734Z" fill="#222160"/>
</svg>
