<svg width="48" height="48" viewBox="0 0 48 48" fill="none" xmlns="http://www.w3.org/2000/svg">
<path d="M23.9158 6.09937C24.4373 6.09937 24.86 5.67666 24.86 5.15522V0.944156C24.86 0.422719 24.4373 0 23.9158 0C23.3944 0 22.9717 0.422719 22.9717 0.944156V5.15522C22.9718 5.67666 23.3945 6.09937 23.9158 6.09937Z" fill="#154BEC"/>
<path d="M46.9952 32.4361L45.3273 30.7729C44.7339 30.1803 43.9431 29.8538 43.1005 29.8538C42.5617 29.8538 42.0445 29.9879 41.5862 30.2391L38.4431 27.0998L38.5962 26.9468C39.8713 25.6692 39.8708 23.5931 38.5961 22.3198C38.1406 21.8634 37.5722 21.5591 36.9526 21.4311C37.0379 21.1366 37.0828 20.8282 37.0828 20.5125C37.0828 19.6355 36.7421 18.8131 36.1254 18.1989C35.6698 17.7426 35.1015 17.4383 34.4819 17.3102C34.5672 17.0157 34.6121 16.7074 34.6121 16.3916C34.6121 15.5145 34.2714 14.6922 33.6537 14.0771C33.1872 13.6112 32.6137 13.3163 32.0116 13.1907C32.3337 12.0801 32.0585 10.8305 31.1847 9.95522C30.4574 9.231 29.4705 8.91975 28.5194 9.02063L22.2911 7.84172C21.3412 7.66153 20.155 7.54238 19.4062 8.22535C19.359 8.26847 19.3108 8.31806 19.2634 8.37328C18.1024 7.9501 16.7482 8.2021 15.8185 9.13078C15.2017 9.74681 14.862 10.5688 14.862 11.4454C14.862 11.7611 14.9067 12.0695 14.9919 12.364C14.373 12.492 13.8053 12.7959 13.3513 13.2508C12.7333 13.8663 12.3925 14.6873 12.3919 15.5629C12.3916 15.8794 12.4365 16.1888 12.5222 16.4841C11.903 16.6118 11.3349 16.9151 10.8795 17.37C10.2615 17.9873 9.92117 18.8098 9.92117 19.6859C9.92117 20.357 10.1215 20.9963 10.4928 21.5363C10.024 21.6952 9.59464 21.9596 9.23511 22.3188C7.95917 23.5931 7.9587 25.6693 9.23595 26.9488L9.38848 27.1007L6.24505 30.2384C5.07683 29.6884 3.63748 29.8944 2.67345 30.8573L1.00452 32.5215C0.410891 33.1144 0.0840781 33.9053 0.0839844 34.7483C0.0839844 35.5915 0.410891 36.3825 1.00452 36.9755L3.08736 39.0558C3.45627 39.4243 4.05411 39.4239 4.42255 39.055C4.79108 38.6861 4.7907 38.0883 4.4218 37.7198L2.33895 35.6395C2.10252 35.4034 1.9723 35.0869 1.9723 34.7484C1.9723 34.4101 2.10252 34.0937 2.33839 33.8581L4.00742 32.1938C4.42442 31.7772 5.06267 31.7152 5.54736 32.0049C5.58148 32.0562 5.62095 32.105 5.66614 32.1503C5.74705 32.2313 5.83939 32.2935 5.93745 32.339L15.5087 41.8961C15.5541 41.9952 15.6166 42.0885 15.698 42.1701C15.7774 42.2495 15.8678 42.3109 15.9638 42.3561C16.1662 42.5849 16.2781 42.8772 16.2781 43.189C16.2781 43.5275 16.1479 43.8439 15.9114 44.08L14.2441 45.7454C13.7514 46.2359 12.95 46.2358 12.4589 45.7469L10.376 43.6639C10.0073 43.2952 9.40958 43.2952 9.04086 43.6639C8.67214 44.0326 8.67214 44.6303 9.04086 44.9991L11.1252 47.0836C11.7387 47.6946 12.5444 47.9999 13.3505 47.9999C14.1567 47.9999 14.9633 47.6941 15.5776 47.0826L17.246 45.4162C17.8396 44.8232 18.1665 44.0323 18.1665 43.189C18.1665 42.5873 17.9991 42.0126 17.688 41.517L21.2257 37.9836C21.2295 37.9797 21.2332 37.9759 21.2371 37.972C21.6422 37.5533 22.7703 37.6316 23.8612 37.7074C24.6364 37.7613 25.5005 37.8212 26.3449 37.7239L30.219 41.5934C29.968 42.051 29.834 42.5676 29.834 43.1055C29.834 43.9478 30.161 44.7383 30.7546 45.3312L32.423 46.9976C33.0163 47.5902 33.8071 47.9167 34.6497 47.9167C35.4922 47.9167 36.283 47.5903 36.8764 46.9976L46.9958 36.8904C47.5895 36.2976 47.9164 35.5067 47.9164 34.6635C47.9163 33.8204 47.5894 33.0295 46.9952 32.4361ZM21.9395 9.69703L26.0352 10.4723L23.5837 12.9228C23.2045 12.7405 22.6848 12.4006 22.1146 11.8552C21.3341 11.1085 20.7758 10.2465 20.725 9.70885C20.7249 9.70856 20.7249 9.70828 20.7249 9.708C20.7249 9.70791 20.7248 9.70781 20.7248 9.70772C20.7212 9.6691 20.7202 9.63825 20.7207 9.61472C20.8442 9.58472 21.1721 9.55144 21.9395 9.69703ZM17.1529 10.4668C17.6312 9.98897 18.3742 9.93385 18.9147 10.2998C19.221 11.584 20.3165 12.7479 20.8093 13.2195C21.1745 13.569 22.3465 14.6168 23.5295 14.9048C23.6895 15.1343 23.7766 15.4077 23.7766 15.6963C23.7766 16.068 23.6336 16.4155 23.3731 16.6758C23.1133 16.936 22.7652 17.0793 22.3928 17.0793C22.0204 17.0793 21.6723 16.936 21.4113 16.6746L21.4112 16.6745L21.4107 16.674L17.1528 12.4238C16.8932 12.1645 16.7502 11.817 16.7502 11.4454C16.7503 11.0737 16.8933 10.7261 17.1529 10.4668ZM14.6857 14.5868C14.9455 14.3267 15.2932 14.1833 15.665 14.1833C16.0373 14.1833 16.3862 14.327 16.6476 14.5882L20.0763 18.0099C20.6162 18.5507 20.6162 19.4306 20.0781 19.9695C19.817 20.2297 19.4676 20.3729 19.0946 20.3729C18.7216 20.3729 18.3723 20.2297 18.1122 19.9706L18.1121 19.9705L15.511 17.37C15.507 17.366 15.5026 17.3622 15.4985 17.3581L14.6847 16.5447C14.4236 16.2839 14.2799 15.9357 14.2802 15.5643C14.2805 15.1941 14.4238 14.8477 14.6857 14.5868ZM12.2139 18.706C12.4739 18.4464 12.8224 18.3035 13.1953 18.3035C13.5651 18.3035 13.9106 18.4444 14.1695 18.6995L16.7785 21.3073C17.0387 21.5664 17.182 21.9136 17.182 22.2848C17.182 22.656 17.0387 23.0032 16.7775 23.2633C16.5176 23.5228 16.1695 23.6658 15.7972 23.6658C15.4244 23.6658 15.0752 23.5224 14.8149 23.2633L13.8691 22.3186C13.8689 22.3183 13.8686 22.3181 13.8684 22.3179L12.214 20.6655C11.9532 20.405 11.8096 20.057 11.8096 19.6857C11.8096 19.3146 11.9532 18.9665 12.2139 18.706ZM10.5695 23.6547C10.8306 23.3939 11.1796 23.2503 11.552 23.2503C11.9244 23.2503 12.2733 23.3938 12.5343 23.6544L13.4814 24.6005C13.7417 24.8596 13.8849 25.2068 13.8849 25.578C13.8849 25.9493 13.7416 26.2963 13.4795 26.5575C13.2197 26.8177 12.8716 26.961 12.4992 26.961C12.1267 26.961 11.7786 26.8178 11.517 26.5556L11.3984 26.4375C11.3968 26.4359 11.3956 26.4342 11.3941 26.4327C11.3923 26.431 11.3904 26.4295 11.3886 26.4278L10.5705 25.6129C10.0306 25.0718 10.0301 24.1935 10.5695 23.6547ZM29.8102 34.3852C29.4417 34.0162 28.8439 34.0159 28.475 34.3843L27.635 35.2233C26.8369 36.0215 25.3906 35.921 23.9919 35.8239C22.4731 35.7184 20.9025 35.6094 19.8861 36.6529L16.4085 40.1263L7.71195 31.4425L10.7896 28.3704C11.2983 28.6823 11.8852 28.8494 12.4994 28.8494C13.3768 28.8494 14.1995 28.5093 14.8141 27.8936C15.4327 27.2775 15.7735 26.4552 15.7735 25.5781C15.7735 25.5699 15.773 25.5619 15.773 25.5537C15.7811 25.5538 15.7893 25.5543 15.7974 25.5543C16.6736 25.5543 17.4957 25.2152 18.1111 24.6006C18.7297 23.9844 19.0705 23.1621 19.0705 22.285C19.0705 22.2769 19.07 22.2688 19.07 22.2607C19.0782 22.2607 19.0865 22.2612 19.0948 22.2612C19.9707 22.2612 20.7933 21.9225 21.4128 21.3055C22.0559 20.6614 22.374 19.8133 22.3679 18.967C22.3763 18.9671 22.3848 18.9676 22.3932 18.9676C23.2706 18.9675 24.0933 18.6275 24.7087 18.0109C25.3255 17.3948 25.6653 16.5728 25.6653 15.6963C25.6653 15.0833 25.4986 14.4972 25.1878 13.9896L27.8853 11.2932C28.0863 11.0931 28.3341 10.9674 28.5939 10.9156C28.622 10.9126 28.6498 10.9081 28.6773 10.9027C29.0941 10.8452 29.5318 10.9738 29.8505 11.2913C30.3905 11.8321 30.3905 12.712 29.8525 13.2509L29.031 14.0691C29.0283 14.0718 29.0254 14.0742 29.0226 14.0769L28.0764 15.0216C27.7074 15.39 27.707 15.9878 28.0756 16.3568C28.4442 16.7258 29.042 16.726 29.4108 16.3576L30.2356 15.5339C30.2358 15.5337 30.236 15.5335 30.2361 15.5333L30.3608 15.4091C30.9022 14.8727 31.7794 14.8738 32.3202 15.4139C32.5805 15.673 32.7238 16.0202 32.7238 16.3914C32.7238 16.7626 32.5805 17.1098 32.3181 17.3709L31.4919 18.1988C31.4918 18.1989 31.4917 18.199 31.4916 18.1992L30.5455 19.1415C30.176 19.5095 30.1748 20.1073 30.5428 20.4767C30.9108 20.8462 31.5085 20.8473 31.878 20.4794L32.8284 19.5328C33.0882 19.2726 33.4363 19.1293 33.8087 19.1293C34.1811 19.1293 34.5293 19.2726 34.791 19.5347C35.0512 19.7939 35.1945 20.1411 35.1945 20.5123C35.1945 20.8835 35.0512 21.2306 34.7895 21.4913L33.1423 23.1391C32.7737 23.5079 32.7738 24.1057 33.1425 24.4743C33.3269 24.6586 33.5684 24.7507 33.81 24.7507C34.0517 24.7507 34.2934 24.6584 34.4777 24.474L35.285 23.6664C35.2895 23.662 35.2945 23.6582 35.2991 23.6536C35.5589 23.3933 35.907 23.2501 36.2794 23.2501C36.6518 23.2501 36.9999 23.3933 37.2606 23.6545C37.8 24.1933 37.7995 25.0718 37.2606 25.6116L36.4399 26.4314C36.4396 26.4317 36.4392 26.432 36.4389 26.4323C36.4386 26.4325 36.4384 26.4329 36.4381 26.4332L35.1353 27.7343C34.7664 28.1029 34.766 28.7007 35.1345 29.0696C35.3189 29.2542 35.5608 29.3466 35.8025 29.3466C36.044 29.3466 36.2855 29.2545 36.4698 29.0705L37.107 28.434L40.1611 31.4845L31.4653 40.1697L28.3496 37.0578C28.5668 36.9181 28.7747 36.7538 28.9698 36.5588L29.8093 35.7203C30.1784 35.3519 30.1788 34.7541 29.8102 34.3852ZM45.6613 35.5544L35.5418 45.6616C35.3051 45.898 34.9882 46.0283 34.6496 46.0283C34.311 46.0283 33.9941 45.898 33.7573 45.6615L32.0888 43.9951C31.8524 43.759 31.7222 43.4431 31.7222 43.1055C31.7222 42.768 31.8524 42.4521 32.0888 42.2159L42.2083 32.1087C42.4451 31.8722 42.7619 31.742 43.1006 31.742C43.4392 31.742 43.7561 31.8722 43.9935 32.1093L45.6614 33.7725C45.8978 34.0087 46.028 34.325 46.028 34.6634C46.028 35.0019 45.8977 35.3183 45.6613 35.5544Z" fill="#154BEC"/>
<path d="M11.3788 5.30344C11.5631 5.48738 11.8044 5.57925 12.0457 5.57925C12.2876 5.57925 12.5295 5.48681 12.714 5.30203C13.0823 4.93294 13.0817 4.33519 12.7126 3.96684L9.2722 0.53325C8.9032 0.164906 8.30536 0.165375 7.93702 0.534563C7.56867 0.903656 7.56923 1.50141 7.93833 1.86975L11.3788 5.30344Z" fill="#154BEC"/>
<path d="M35.7859 5.57926C36.0273 5.57926 36.2688 5.4872 36.4532 5.30317L39.891 1.86948C40.2599 1.50104 40.2603 0.903198 39.8917 0.534292C39.5233 0.165386 38.9255 0.165011 38.5565 0.533542L35.1187 3.96723C34.7498 4.33567 34.7494 4.93351 35.118 5.30242C35.3024 5.48701 35.5441 5.57926 35.7859 5.57926Z" fill="#154BEC"/>
<path d="M5.88902 40.6129C5.52349 40.9847 5.52855 41.5825 5.90046 41.9481L5.90318 41.9507C6.08664 42.1311 6.32486 42.2209 6.56299 42.2209C6.80739 42.2209 7.0518 42.1263 7.23695 41.9379C7.60249 41.5661 7.59602 40.967 7.2242 40.6014C6.85249 40.2359 6.25474 40.2411 5.88902 40.6129Z" fill="#154BEC"/>
<path d="M32.1194 33.025C32.263 33.025 32.4087 32.9923 32.5455 32.9234C33.0111 32.6886 33.1981 32.1208 32.9633 31.6553C32.7285 31.1897 32.1607 31.0026 31.6952 31.2374L31.6899 31.24C31.2244 31.4749 31.04 32.0413 31.2747 32.5069C31.4405 32.8358 31.7738 33.025 32.1194 33.025Z" fill="#154BEC"/>
</svg>
