<svg width="32" height="32" viewBox="0 0 32 32" fill="none" xmlns="http://www.w3.org/2000/svg">
<path d="M25.6 17.5C24.5 17.5 23.5 16.6 23.5 15.4C23.5 14.3 24.4 13.3 25.6 13.3C26.7 13.3 27.7 14.2 27.7 15.4C27.7 16.6 26.8 17.5 25.6 17.5ZM25.6 14.3C25 14.3 24.5 14.8 24.5 15.4C24.5 16 25 16.5 25.6 16.5C26.2 16.5 26.7 16 26.7 15.4C26.7 14.8 26.2 14.4 25.6 14.3C25.6 14.4 25.6 14.4 25.6 14.3Z" fill="#121E28"/>
<path d="M6.4999 17.5C5.3999 17.5 4.3999 16.6 4.3999 15.4C4.3999 14.2 5.2999 13.3 6.4999 13.3C7.6999 13.3 8.5999 14.2 8.5999 15.4C8.5999 16.6 7.6999 17.5 6.4999 17.5ZM6.4999 14.3C5.8999 14.3 5.3999 14.8 5.3999 15.4C5.3999 16 5.8999 16.5 6.4999 16.5C7.0999 16.5 7.5999 16 7.5999 15.4C7.5999 14.9 7.0999 14.4 6.4999 14.3C6.4999 14.4 6.4999 14.4 6.4999 14.3Z" fill="#121E28"/>
<path d="M16.0999 10.8C14.0999 10.8 12.3999 9.20002 12.3999 7.10002C12.3999 5.00002 13.9999 3.40002 16.0999 3.40002C18.1999 3.40002 19.7999 5.00002 19.7999 7.10002C19.7999 9.20002 18.0999 10.8 16.0999 10.8ZM16.0999 4.50002C14.5999 4.50002 13.3999 5.70002 13.3999 7.10002C13.3999 8.60002 14.5999 9.80002 15.9999 9.80002C15.9999 9.80002 15.9999 9.80002 16.0999 9.80002C17.5999 9.80002 18.7999 8.60002 18.7999 7.10002C18.7999 5.70002 17.5999 4.50002 16.0999 4.50002Z" fill="#121E28"/>
<path d="M25.2002 18C24.2002 18 23.3002 18.4 22.6002 19.2V18.4C22.7002 14.7 19.7002 11.6 16.0002 11.6C12.3002 11.7 9.3002 14.7 9.4002 18.4V19.3C8.7002 18.5 7.8002 18 6.8002 18C4.8002 18.1 3.2002 19.7 3.2002 21.8V28.8H28.8002V21.8C28.8002 19.7 27.2002 18.1 25.2002 18ZM16.0002 12.5C19.2002 12.6 21.7002 15.2 21.6002 18.4V27.9H10.4002V18.4C10.3002 15.2 12.8002 12.6 16.0002 12.5ZM4.2002 21.8C4.2002 20.3 5.3002 19.1 6.8002 19C8.3002 19.1 9.4002 20.3 9.4002 21.8V27.8H4.2002V21.8ZM27.8002 27.8H22.6002V21.5C22.7002 20.1 23.8002 19.1 25.2002 19C26.7002 19.1 27.8002 20.3 27.8002 21.8V27.8Z" fill="#121E28"/>
<path d="M16.0913 21.0609C16.2444 20.3975 16.5677 19.902 17.0952 19.524C17.6822 19.1041 18.2778 18.6842 18.8393 18.2307C18.9754 18.1215 19.1116 18.0039 19.2392 17.8863C19.3668 17.7771 19.4774 17.6512 19.5625 17.5084C19.605 17.5168 19.6135 17.542 19.622 17.5672C19.8177 17.9703 20.0049 18.3818 20.2091 18.785C20.2601 18.8773 20.2346 18.9445 20.175 19.0201C20.0219 19.1881 19.8517 19.3309 19.6816 19.4736C19.1796 19.8852 18.6436 20.2547 18.1161 20.641C17.6652 20.9686 17.2143 21.2877 16.7889 21.6404C16.5422 21.842 16.2955 22.0436 16.0913 22.2955C15.5468 21.6908 14.8747 21.2373 14.2281 20.7586C13.6325 20.3135 13.0115 19.8936 12.4329 19.4232C12.2798 19.2973 12.1181 19.1629 11.9905 19.0117C11.9395 18.9529 11.9054 18.9025 11.948 18.8186C12.1607 18.3818 12.3649 17.9451 12.5776 17.5C13.0455 18.0795 13.6495 18.4742 14.2281 18.9109C14.5258 19.1377 14.8321 19.3477 15.1299 19.566C15.5893 19.902 15.8871 20.3471 16.0317 20.893C16.0487 20.935 16.0658 20.9854 16.0913 21.0609Z" fill="#FF1919"/>
<path d="M11.7012 19.3309C12.1606 19.86 12.7051 20.2463 13.2411 20.641C13.8962 21.1197 14.5598 21.5817 15.2064 22.0856C15.283 22.1444 15.3681 22.2115 15.4446 22.2787C15.6914 22.4803 15.9296 22.6903 16.0827 23.0094C16.3975 22.4467 16.9165 22.136 17.3844 21.7832C17.9119 21.3801 18.4564 21.0022 18.9924 20.6074C19.5114 20.2295 20.0303 19.8432 20.4642 19.3477C20.5578 19.482 20.6004 19.6164 20.6684 19.7424C20.7025 19.8012 20.6684 19.8432 20.6429 19.8936C20.5834 19.9944 20.4983 20.0699 20.4132 20.1455C20.2345 20.3051 20.0474 20.4479 19.8517 20.5822C19.0945 21.1281 18.3288 21.6656 17.5716 22.2115C17.4695 22.2787 17.3759 22.3543 17.2823 22.4383C17.0356 22.6567 16.8654 22.9086 16.8144 23.2362C16.7974 23.3201 16.7719 23.3537 16.6868 23.3453C16.2954 23.3453 15.8956 23.3453 15.5042 23.3453C15.4446 23.3453 15.4021 23.3369 15.3936 23.2614C15.334 22.8246 15.0618 22.5223 14.713 22.2787C14.2535 21.9512 13.8026 21.6237 13.3432 21.2877C12.9178 20.977 12.4839 20.6746 12.0585 20.3639C11.8884 20.2379 11.7352 20.1035 11.5906 19.944C11.514 19.8516 11.4885 19.7676 11.5566 19.65C11.5991 19.566 11.6416 19.4568 11.7012 19.3309Z" fill="#FF1919"/>
</svg>
