<svg width="32" height="32" viewBox="0 0 32 32" fill="none" xmlns="http://www.w3.org/2000/svg">
<path d="M24.6658 21.3636C27.2654 18.7639 28.6971 15.3076 28.6971 11.6311C28.6971 8.73106 27.8171 5.98044 26.1493 3.64894L26.2834 3.51475C26.4646 3.33356 26.5644 3.09263 26.5644 2.83631C26.5644 2.58 26.4646 2.33906 26.2834 2.15788L24.4066 0.281063C24.2254 0.0998125 23.9844 0 23.7281 0C23.4717 0 23.2308 0.0998125 23.0497 0.281063L22.3851 0.9455C22.2039 1.12669 22.1041 1.36762 22.1041 1.62394C22.1041 1.88025 22.2039 2.12119 22.3851 2.30238L22.9921 2.90937L22.2269 3.67462C20.304 1.9105 17.7424 0.832062 14.9333 0.832062C13.8649 0.832062 12.8324 0.988812 11.8571 1.27919C11.8341 1.28419 11.8114 1.29094 11.7893 1.29944C10.2967 1.75456 8.9405 2.52488 7.79813 3.53256C7.77169 3.54988 7.74656 3.57012 7.72331 3.59337C7.71419 3.6025 7.70594 3.61206 7.69775 3.62169C5.51063 5.59919 4.13425 8.45738 4.13425 11.6311C4.13425 14.4401 5.21269 17.0018 6.97675 18.9247L6.2115 19.6899L5.60456 19.083C5.42331 18.9018 5.18237 18.8019 4.92612 18.8019C4.66987 18.8019 4.42894 18.9018 4.24775 19.083L3.58319 19.7475C3.20925 20.1216 3.20925 20.7302 3.58319 21.1043L5.46012 22.9813C5.64131 23.1624 5.88225 23.2623 6.1385 23.2623C6.39475 23.2623 6.63569 23.1624 6.81694 22.9813L6.95106 22.8471C9.15656 24.4248 11.7372 25.2969 14.4645 25.3866V26.4838H11.0101C10.658 26.4838 10.3442 26.6944 10.2106 27.0203L9.80506 28.01H9.18794C8.76088 28.01 8.38037 28.2653 8.2185 28.6604L7.34356 30.796C7.23306 31.0658 7.26412 31.3713 7.4265 31.6134C7.58887 31.8554 7.86 32 8.1515 32H21.7151C22.0066 32 22.2776 31.8555 22.4401 31.6134C22.6025 31.3714 22.6335 31.0658 22.523 30.796L21.648 28.6605C21.4861 28.2654 21.1056 28.01 20.6786 28.01H20.0614L19.6559 27.0203C19.5225 26.6944 19.2087 26.4837 18.8564 26.4837H15.4021V25.3861C18.9027 25.2698 22.1769 23.8524 24.6658 21.3636ZM23.0481 1.60837L23.7126 0.943875C23.7146 0.942 23.7191 0.9375 23.7281 0.9375C23.7372 0.9375 23.7416 0.942 23.7436 0.943937L25.6205 2.82087C25.6224 2.82281 25.6269 2.82731 25.6269 2.83637C25.6269 2.84544 25.6224 2.84994 25.6204 2.85188L24.9561 3.51631C24.9541 3.51825 24.9496 3.52275 24.9405 3.52275C24.9314 3.52275 24.9269 3.51825 24.925 3.51631L23.0481 1.63944C23.0462 1.6375 23.0416 1.633 23.0416 1.62388C23.0416 1.61475 23.0462 1.61031 23.0481 1.60837ZM24.7949 11.6311C24.7949 12.1398 24.7561 12.6394 24.6815 13.1275L22.6034 15.2056C22.2852 15.5238 21.8622 15.6991 21.4122 15.6991C20.9622 15.6991 20.5391 15.5238 20.2209 15.2056C19.9027 14.8874 19.7274 14.4644 19.7274 14.0144C19.7274 13.5644 19.9027 13.1414 20.2209 12.8232L20.4875 12.5566C21.5098 11.5343 21.5098 9.87075 20.4875 8.84838C19.8306 8.1915 19.8306 7.12275 20.4875 6.46594L22.0947 4.85875C23.7675 6.62656 24.7949 9.01106 24.7949 11.6311ZM11.8285 2.27075L13.1337 3.57594C13.7906 4.23275 13.7906 5.3015 13.1337 5.95837C12.477 6.61519 11.4081 6.61531 10.7513 5.95837L8.74881 3.95594C9.65719 3.22262 10.6976 2.64688 11.8285 2.27075ZM5.15787 12.9335L7.08437 11.007C7.40256 10.6888 7.82556 10.5136 8.27556 10.5136C8.72556 10.5136 9.14862 10.6888 9.46681 11.007C9.96212 11.5022 10.6206 11.775 11.321 11.775C12.0214 11.775 12.6798 11.5022 13.1751 11.007L13.8126 10.3695C14.4694 9.71269 15.5381 9.71269 16.195 10.3695C16.8519 11.0263 16.8519 12.0951 16.1951 12.7519L15.4484 13.4986C15.2653 13.6816 15.2653 13.9784 15.4484 14.1614C15.5399 14.253 15.6599 14.2987 15.7799 14.2987C15.8998 14.2987 16.0198 14.253 16.1113 14.1614L16.858 13.4148C17.3533 12.9196 17.626 12.2611 17.6259 11.5607C17.6259 10.8602 17.3532 10.2018 16.8579 9.70656C15.8355 8.68425 14.1721 8.68425 13.1497 9.70656L12.5122 10.3441C11.8554 11.001 10.7866 11.0009 10.1298 10.3441C9.6345 9.84881 8.97606 9.57606 8.27569 9.57606C8.27562 9.57606 8.27569 9.57606 8.27563 9.57606C7.57531 9.57606 6.91675 9.84881 6.4215 10.3441L5.07263 11.6929C5.0725 11.6723 5.07181 11.6518 5.07181 11.6311C5.07181 8.87044 6.21256 6.37156 8.04688 4.57975L10.0884 6.62131C10.5997 7.1325 11.2711 7.38812 11.9426 7.38812C12.6141 7.38812 13.2855 7.13256 13.7968 6.62131C14.8191 5.59894 14.8191 3.93544 13.7967 2.91306L12.8708 1.98719C13.5363 1.845 14.2262 1.7695 14.9334 1.7695C17.4144 1.7695 19.684 2.69075 21.4191 4.20869L19.8247 5.80294C18.8024 6.82525 18.8024 8.48881 19.8247 9.51119C20.4816 10.168 20.4816 11.2368 19.8247 11.8936L19.5582 12.1602C18.5359 13.1825 18.5359 14.8461 19.5582 15.8684C20.0694 16.3796 20.7409 16.6353 21.4123 16.6353C22.0838 16.6353 22.7552 16.3797 23.2665 15.8684L24.2387 14.8962C22.8881 18.734 19.2271 21.4926 14.9334 21.4926C14.8591 21.4926 14.7849 21.4914 14.7109 21.4898C14.9092 21.1163 15.0145 20.6977 15.0145 20.2628C15.0145 19.5624 14.7418 18.9039 14.2464 18.4087C13.9283 18.0905 13.753 17.6674 13.753 17.2174C13.753 16.7674 13.9283 16.3444 14.2465 16.0262L14.8739 15.3988C15.057 15.2157 15.057 14.9189 14.8739 14.7359C14.6908 14.5528 14.3941 14.5528 14.211 14.7359L13.5836 15.3633C13.0883 15.8586 12.8156 16.517 12.8156 17.2174C12.8156 17.9179 13.0883 18.5764 13.5836 19.0716C14.2248 19.7128 14.2397 20.7464 13.629 21.4062C9.23181 20.8226 5.74062 17.3309 5.15787 12.9335ZM6.8185 21.6538L6.15406 22.3183C6.15213 22.3202 6.14756 22.3247 6.1385 22.3247C6.12944 22.3247 6.12488 22.3202 6.123 22.3183L4.24613 20.4414C4.23756 20.4328 4.23756 20.4189 4.24606 20.4103L4.91062 19.7459C4.9125 19.7439 4.91706 19.7394 4.92612 19.7394C4.93519 19.7394 4.93975 19.7439 4.94162 19.7459L5.87962 20.6839C5.87975 20.684 5.87988 20.6842 5.88006 20.6844C5.88025 20.6846 5.88038 20.6846 5.88056 20.6848L6.81856 21.6228C6.82706 21.6314 6.82706 21.6453 6.8185 21.6538ZM18.8071 27.4212L19.0483 28.01H18.0322C17.7732 28.01 17.5634 28.2199 17.5634 28.4788C17.5634 28.7376 17.7732 28.9475 18.0322 28.9475H19.7447C19.7455 28.9475 19.7463 28.9477 19.7472 28.9477C19.7484 28.9477 19.7498 28.9475 19.751 28.9475H20.6786C20.7235 28.9475 20.7635 28.9743 20.7805 29.0159L21.619 31.0625H8.24763L9.08613 29.0158C9.10306 28.9743 9.14312 28.9475 9.188 28.9475H10.1226C10.1238 28.9475 10.125 28.9475 10.1262 28.9475H16.2821C16.541 28.9475 16.7508 28.7376 16.7508 28.4788C16.7508 28.2199 16.541 28.01 16.2821 28.01H10.8182L11.0594 27.4212H18.8071ZM14.9333 24.4574C12.2764 24.4574 9.75419 23.6657 7.60625 22.1629C7.84925 21.7911 7.80775 21.2863 7.4815 20.9599L6.8745 20.3529L7.63975 19.5877C9.56262 21.3518 12.1243 22.4303 14.9334 22.4303C20.2691 22.4303 24.7126 18.5403 25.5789 13.4476C25.5808 13.4383 25.5822 13.4287 25.5836 13.4192C25.6809 12.8374 25.7324 12.2402 25.7324 11.6312C25.7324 8.82212 24.654 6.2605 22.8899 4.33763L23.6551 3.57238L24.2621 4.17938C24.4433 4.36056 24.6842 4.46037 24.9405 4.46037C25.1297 4.46037 25.3104 4.40562 25.4651 4.30419C26.9679 6.45212 27.7595 8.97425 27.7595 11.6313C27.7595 15.0572 26.4253 18.2782 24.0029 20.7008C21.5802 23.1232 18.3593 24.4574 14.9333 24.4574Z" fill="#121E28"/>
<path d="M15.3319 11.5013C15.5206 10.6839 15.9189 10.0733 16.5688 9.60767C17.2921 9.09028 18.0259 8.57288 18.7178 8.0141C18.8855 7.87957 19.0532 7.7347 19.2105 7.58983C19.3677 7.45531 19.504 7.30009 19.6088 7.12418C19.6612 7.13453 19.6717 7.16557 19.6822 7.19661C19.9233 7.69331 20.1539 8.20036 20.4055 8.69706C20.4684 8.81088 20.4369 8.89367 20.3636 8.9868C20.1749 9.19376 19.9652 9.36967 19.7556 9.54558C19.1371 10.0526 18.4767 10.5079 17.8268 10.9839C17.2712 11.3875 16.7156 11.7807 16.1915 12.2153C15.8875 12.4637 15.5835 12.712 15.3319 13.0225C14.661 12.2774 13.8329 11.7186 13.0362 11.1288C12.3024 10.5804 11.5372 10.063 10.8244 9.4835C10.6357 9.32828 10.4365 9.16271 10.2793 8.97645C10.2164 8.90401 10.1745 8.84193 10.2269 8.73845C10.4889 8.20036 10.7405 7.66227 11.0026 7.11383C11.5791 7.82783 12.3234 8.31419 13.0362 8.85228C13.4031 9.13167 13.7805 9.39037 14.1474 9.65941C14.7134 10.0733 15.0803 10.6218 15.2585 11.2944C15.2795 11.3461 15.3005 11.4082 15.3319 11.5013Z" fill="#FF1919"/>
<path d="M9.92264 9.36969C10.4887 10.0216 11.1596 10.4976 11.82 10.984C12.6272 11.5738 13.4448 12.1429 14.2415 12.7638C14.3358 12.8362 14.4407 12.919 14.535 13.0018C14.839 13.2501 15.1325 13.5088 15.3212 13.9021C15.709 13.2088 16.3485 12.8259 16.925 12.3913C17.575 11.8946 18.2458 11.4289 18.9062 10.9426C19.5457 10.4769 20.1851 10.0009 20.7197 9.39039C20.835 9.55595 20.8875 9.72152 20.9713 9.87674C21.0132 9.94917 20.9713 10.0009 20.9399 10.063C20.8665 10.1872 20.7617 10.2803 20.6568 10.3734C20.4367 10.57 20.2061 10.746 19.965 10.9115C19.032 11.5841 18.0886 12.2464 17.1556 12.919C17.0299 13.0018 16.9145 13.0949 16.7992 13.1984C16.4952 13.4675 16.2856 13.7779 16.2227 14.1815C16.2017 14.2849 16.1703 14.3263 16.0655 14.316C15.5833 14.316 15.0906 14.316 14.6084 14.316C14.535 14.316 14.4826 14.3056 14.4721 14.2125C14.3987 13.6744 14.0633 13.3019 13.6335 13.0018C13.0674 12.5982 12.5118 12.1947 11.9458 11.7807C11.4217 11.3979 10.887 11.0254 10.3629 10.6425C10.1533 10.4873 9.96458 10.3217 9.78637 10.1251C9.69203 10.0113 9.66058 9.90778 9.74444 9.76291C9.79685 9.65943 9.84927 9.52491 9.92264 9.36969Z" fill="#FF1919"/>
</svg>
