<svg width="48" height="48" viewBox="0 0 48 48" fill="none" xmlns="http://www.w3.org/2000/svg">
<path d="M42.3487 21.2432C40.7153 20.4266 37.653 20.4171 37.5234 20.4171C37.1351 20.4171 36.8203 20.7319 36.8203 21.1203C36.8203 21.5086 37.1351 21.8234 37.5234 21.8234C38.3137 21.8235 40.608 21.9452 41.7198 22.501C41.8207 22.5515 41.928 22.5754 42.0337 22.5754C42.2916 22.5754 42.5399 22.4329 42.6631 22.1866C42.8368 21.8392 42.696 21.4169 42.3487 21.2432Z" fill="#154BEC"/>
<path d="M45.8542 31.2539L42.9503 30.4242C42.825 30.3884 42.7374 30.2723 42.7374 30.1419V29.1726C42.9737 29.009 43.1991 28.8258 43.4097 28.6213C44.4307 27.6305 44.9929 26.3016 44.9929 24.8793V23.5417L45.2737 22.9803C45.5818 22.3639 45.7447 21.6738 45.7447 20.9847V17.3613C45.7447 16.973 45.4298 16.6581 45.0415 16.6581H38.2753C35.8149 16.6581 33.8132 18.6599 33.8132 21.1203V21.1622C33.8132 21.7352 33.9487 22.309 34.2049 22.8215L34.565 23.5416V24.6901C34.565 26.5101 35.4619 28.1432 36.8204 29.1259L36.8206 30.1417C36.8206 30.2984 36.8206 30.3633 36.24 30.5292L34.8231 30.934L30.7242 29.4436C30.7389 29.2502 30.6737 29.0535 30.5326 28.9053L29.2228 27.5292V25.2192C29.3613 25.1051 29.4978 24.9879 29.6301 24.864C31.2824 23.3152 32.23 21.1286 32.23 18.8648V17.02C32.729 15.9343 32.9818 14.7854 32.9818 13.6022V6.08436C32.9818 5.69605 32.667 5.38123 32.2787 5.38123H21.7535C18.0494 5.38123 15.036 8.39473 15.036 12.0987V13.6024C15.036 14.7856 15.2888 15.9345 15.7878 17.0202V18.6075C15.7878 21.2359 16.9565 23.6038 18.795 25.1649V27.5293L17.4852 28.9054C17.3441 29.0536 17.2789 29.2503 17.2936 29.4437L12.9675 31.0167C12.654 31.1307 12.3627 31.2851 12.0983 31.4721L11.4189 31.1325C13.4411 30.2523 14.0817 29.0143 14.1125 28.9528C14.2115 28.7549 14.2115 28.5218 14.1125 28.3239C13.6056 27.3101 13.5442 25.4519 13.4948 23.9588C13.4784 23.4618 13.4629 22.9922 13.4332 22.574C13.1934 19.2015 10.6296 16.6581 7.46925 16.6581C4.30894 16.6581 1.74497 19.2014 1.50534 22.574C1.47562 22.9923 1.46006 23.4619 1.44366 23.959C1.39434 25.452 1.33284 27.31 0.826031 28.3238C0.727031 28.5217 0.727031 28.7548 0.826031 28.9527C0.856781 29.0142 1.49606 30.2496 3.52228 31.1309L1.63538 32.0743C0.626625 32.579 0 33.593 0 34.7207V39.9153C0 40.3036 0.314812 40.6184 0.703125 40.6184C1.09144 40.6184 1.40625 40.3036 1.40625 39.9153V34.7207C1.40625 34.1289 1.73503 33.5969 2.26425 33.3322L4.61391 32.1575L5.43122 32.9342C6.00272 33.4773 6.73584 33.7487 7.46925 33.7487C8.20247 33.7487 8.93597 33.4771 9.50728 32.9342L10.3245 32.1575L11.0906 32.5406C10.7299 33.1178 10.5251 33.7947 10.5251 34.5037V39.9155C10.5251 40.3038 10.8399 40.6186 11.2282 40.6186C11.6166 40.6186 11.9314 40.3038 11.9314 39.9155V34.5037C11.9314 33.5385 12.5408 32.6683 13.4481 32.3384L18.0092 30.6799L19.9079 33.5281C20.1506 33.8922 20.5396 34.1257 20.9751 34.1689C21.0236 34.1736 21.0719 34.176 21.1201 34.176C21.5043 34.176 21.8723 34.0248 22.1473 33.7498L23.3057 32.5914V39.9155C23.3057 40.3039 23.6205 40.6187 24.0088 40.6187C24.3971 40.6187 24.7119 40.3039 24.7119 39.9155V32.5914L25.8703 33.7498C26.1453 34.0249 26.5133 34.1761 26.8975 34.1761C26.9456 34.1761 26.994 34.1737 27.0425 34.169C27.478 34.1258 27.867 33.8923 28.1097 33.5282L30.0085 30.68L34.5696 32.3386C35.4767 32.6685 36.0863 33.5387 36.0863 34.5039V39.9156C36.0863 40.304 36.4011 40.6188 36.7894 40.6188C37.1777 40.6188 37.4925 40.304 37.4925 39.9156V34.5039C37.4925 33.5263 37.1041 32.6094 36.4525 31.9313L36.6263 31.8817C36.8015 31.8317 37.0405 31.7631 37.2805 31.6455L39.0758 33.4407V39.9156C39.0758 40.304 39.3906 40.6188 39.7789 40.6188C40.1672 40.6188 40.482 40.304 40.482 39.9156V33.4407L42.2648 31.658C42.3595 31.7061 42.4591 31.7468 42.5639 31.7767L45.4679 32.6064C46.1307 32.7958 46.5938 33.4096 46.5938 34.099V39.9156C46.5938 40.304 46.9086 40.6188 47.2969 40.6188C47.6852 40.6188 48 40.304 48 39.9156V34.099C48 32.7848 47.1176 31.6149 45.8542 31.2539ZM4.51078 30.012C3.19556 29.5387 2.53584 28.9078 2.25422 28.5633C2.44622 28.0613 2.57072 27.4865 2.655 26.8796C3.04275 27.8093 3.69216 28.603 4.51078 29.1693V30.012ZM8.53875 31.9149C7.93903 32.4847 6.99956 32.4846 6.40003 31.9148L5.74613 31.2935C5.85647 31.0867 5.91713 30.8524 5.91713 30.6068V29.8574C6.40763 30.0107 6.92906 30.0934 7.46944 30.0934C8.00916 30.0934 8.53031 30.0103 9.02166 29.8579L9.02156 30.6067C9.02156 30.8524 9.08212 31.0868 9.19256 31.2936L8.53875 31.9149ZM7.46963 28.6871C5.37 28.6871 3.66197 26.979 3.66197 24.8795C3.66197 24.4911 3.34716 24.1763 2.95884 24.1763C2.91947 24.1763 2.88103 24.1804 2.84344 24.1866C2.8455 24.1262 2.84747 24.0656 2.84953 24.0057C2.86519 23.5222 2.88028 23.0656 2.90812 22.6739C2.99794 21.4105 3.50278 20.2463 4.32966 19.3956C5.16394 18.5373 6.279 18.0646 7.46944 18.0646C8.65987 18.0646 9.77484 18.5373 10.6092 19.3956C11.4361 20.2463 11.9409 21.4105 12.0308 22.6739C12.0585 23.0655 12.0737 23.522 12.0896 24.0054C12.091 24.047 12.0924 24.089 12.0938 24.1309C11.3288 22.9522 10.1474 22.0836 8.62088 21.5931C7.21059 21.14 5.99766 21.1681 5.94647 21.1694C5.76234 21.1745 5.58759 21.2516 5.45981 21.3842L4.19119 22.6999C3.92166 22.9794 3.92972 23.4245 4.20928 23.6941C4.48884 23.9636 4.93397 23.9555 5.2035 23.676L6.25912 22.5813C7.16822 22.6257 10.0929 22.9658 11.2304 25.4705C10.9442 27.3163 9.35775 28.6871 7.46963 28.6871ZM10.4277 30.0143L10.4278 29.1757C11.2458 28.6126 11.8961 27.8204 12.2842 26.8836C12.3684 27.4891 12.4928 28.0626 12.6845 28.5635C12.4044 28.9047 11.7416 29.5413 10.4277 30.0143ZM17.194 18.6074V16.8629C17.194 16.757 17.1701 16.6525 17.1241 16.5572C16.6717 15.6202 16.4422 14.6261 16.4422 13.6024V12.0988C16.4422 9.17014 18.8249 6.78758 21.7535 6.78758H31.5756V13.6025C31.5756 14.6262 31.3462 15.6203 30.8937 16.5573C30.8477 16.6526 30.8238 16.7571 30.8238 16.863V18.865C30.8238 20.7692 30.0583 22.5353 28.6684 23.8382C28.4948 24.0007 28.3147 24.1532 28.1286 24.2952C28.1244 24.298 28.1205 24.3011 28.1165 24.304C26.8144 25.2926 25.2195 25.7731 23.5539 25.6652C19.9876 25.4343 17.194 22.3341 17.194 18.6074ZM21.153 32.7553C21.1481 32.7602 21.1368 32.7717 21.1138 32.7693C21.0909 32.767 21.0819 32.7536 21.0781 32.7478L18.8914 29.4677L19.5951 28.7283L22.9124 30.9958L21.153 32.7553ZM24.0089 30.0419L20.2013 27.4392V26.1267C21.1865 26.6593 22.2896 26.9924 23.4629 27.0683C23.6483 27.0803 23.8325 27.0862 24.0161 27.0862C25.3606 27.0862 26.6545 26.7649 27.8166 26.1548V27.4392L24.0089 30.0419ZM26.9397 32.748C26.9359 32.7538 26.9269 32.7672 26.904 32.7695C26.881 32.7724 26.8698 32.7603 26.8648 32.7555L25.1054 30.9961L28.4227 28.7285L29.1265 29.4679L26.9397 32.748ZM39.7789 32.1547L38.1833 30.5592C38.2111 30.4327 38.2268 30.2943 38.2268 30.1415L38.2267 29.8448C38.6694 29.9901 39.1361 30.0764 39.619 30.0908C39.6732 30.0925 39.7269 30.0933 39.7809 30.0933C40.3146 30.0933 40.8354 30.0126 41.3312 29.8588V30.1419C41.3312 30.2822 41.3488 30.4196 41.382 30.5517L39.7789 32.1547ZM42.4304 27.6122C41.6852 28.3354 40.7007 28.7173 39.6613 28.6852C37.6266 28.6242 35.9712 26.832 35.9712 24.6903V23.3758C35.9712 23.2666 35.9458 23.159 35.897 23.0614L35.4626 22.1927C35.3035 21.8744 35.2194 21.5181 35.2194 21.1623V21.1204C35.2194 19.4353 36.5903 18.0645 38.2753 18.0645H44.3384V20.9848C44.3384 21.4567 44.2268 21.9293 44.0158 22.3515L43.6609 23.0614C43.612 23.159 43.5866 23.2666 43.5866 23.3758V24.8794C43.5866 25.9181 43.176 26.8886 42.4304 27.6122Z" fill="#154BEC"/>
<path d="M44.29 34.7014C43.9017 34.7014 43.5869 35.0162 43.5869 35.4045V39.9153C43.5869 40.3036 43.9017 40.6184 44.29 40.6184C44.6784 40.6184 44.9932 40.3036 44.9932 39.9153V35.4045C44.9932 35.0163 44.6784 34.7014 44.29 34.7014Z" fill="#154BEC"/>
<path d="M3.70996 35.6308C3.32165 35.6308 3.00684 35.9456 3.00684 36.3339V39.9153C3.00684 40.3036 3.32165 40.6184 3.70996 40.6184C4.09827 40.6184 4.41309 40.3036 4.41309 39.9153V36.3339C4.41309 35.9457 4.09827 35.6308 3.70996 35.6308Z" fill="#154BEC"/>
<path d="M29.7685 13.8571C27.1092 11.1978 21.5452 11.7062 19.2763 12.0482C18.5616 12.1559 18.043 12.7607 18.043 13.4862V15.106C18.043 15.4943 18.3578 15.8091 18.7461 15.8091C19.1344 15.8091 19.4492 15.4943 19.4492 15.106V13.4861C19.4492 13.4622 19.465 13.4418 19.486 13.4386C20.3923 13.302 22.1907 13.0912 24.0539 13.2154C26.2466 13.3614 27.8347 13.9118 28.7742 14.8514C29.0487 15.126 29.494 15.126 29.7685 14.8514C30.0431 14.5768 30.0431 14.1316 29.7685 13.8571Z" fill="#154BEC"/>
<path d="M15.7393 36.205C15.3509 36.205 15.0361 36.5198 15.0361 36.9081V39.9154C15.0361 40.3037 15.3509 40.6185 15.7393 40.6185C16.1276 40.6185 16.4424 40.3037 16.4424 39.9154V36.9081C16.4424 36.5199 16.1276 36.205 15.7393 36.205Z" fill="#154BEC"/>
<path d="M32.2783 36.205C31.89 36.205 31.5752 36.5198 31.5752 36.9081V39.9154C31.5752 40.3037 31.89 40.6185 32.2783 40.6185C32.6666 40.6185 32.9814 40.3037 32.9814 39.9154V36.9081C32.9814 36.5199 32.6666 36.205 32.2783 36.205Z" fill="#154BEC"/>
</svg>
