<svg xmlns="http://www.w3.org/2000/svg" width="48" height="48" viewBox="0 0 48 48" fill="none">
<path d="M41.6318 40.0651L39.7335 39.3058V38.6559C40.6696 37.96 41.2365 36.8575 41.2365 35.6897V33.7778C41.2365 32.9858 40.9275 32.2417 40.3664 31.6827C39.8079 31.1262 39.0671 30.8202 38.2791 30.8202C38.2755 30.8202 38.2717 30.8202 38.2681 30.8202L36.7651 30.8257C35.686 30.8296 34.741 31.4163 34.2275 32.2857L32.9698 31.7827V31.1328C33.9059 30.437 34.4728 29.3345 34.4728 28.1665V26.2547C34.4728 25.4627 34.1638 24.7186 33.6028 24.1596C33.0442 23.6031 32.3034 23.2971 31.5154 23.2971C31.5118 23.2971 31.5081 23.2971 31.5045 23.2971L30.0015 23.3025C28.3765 23.3083 27.0544 24.6351 27.0544 26.2601V28.1665C27.0544 29.3345 27.6213 30.4369 28.5574 31.1328V31.7827L27.3048 32.2837C27.1774 32.067 27.0219 31.865 26.8391 31.6828C26.2806 31.1264 25.5398 30.8204 24.7519 30.8204C24.7483 30.8204 24.7445 30.8204 24.7409 30.8204L23.2378 30.8258C22.1587 30.8298 21.2137 31.4165 20.7003 32.2859L19.4425 31.7828V31.133C20.3786 30.4371 20.9455 29.3346 20.9455 28.1667V26.2549C20.9455 25.4629 20.6365 24.7188 20.0755 24.1597C19.5169 23.6032 18.7761 23.2972 17.9881 23.2972C17.9844 23.2972 17.9808 23.2972 17.9771 23.2972L16.4741 23.3027C14.8491 23.3085 13.5271 24.6352 13.5271 26.2603V28.1667C13.5271 29.3347 14.094 30.4372 15.0301 31.133V31.7827L13.7774 32.2838C13.6501 32.0671 13.4945 31.8651 13.3117 31.6829C12.7533 31.1264 12.0124 30.8204 11.2245 30.8204C11.2208 30.8204 11.2171 30.8204 11.2134 30.8204L9.71041 30.8258C8.08545 30.8317 6.76338 32.1585 6.76338 33.7835V35.6899C6.76338 36.8578 7.33029 37.9602 8.26638 38.6561V39.306L6.36804 40.0653C5.23863 40.5171 4.50879 41.5949 4.50879 42.8114V47.2969C4.50879 47.6852 4.8236 48 5.21191 48C5.60023 48 5.91504 47.6852 5.91504 47.2969V42.8111C5.91504 42.1731 6.29782 41.6077 6.89032 41.3707L9.10488 40.4848H11.84L14.0548 41.3707C14.6472 41.6077 15.03 42.1731 15.03 42.8111V47.2969C15.03 47.6852 15.3448 48 15.7331 48C16.1214 48 16.4362 47.6852 16.4362 47.2969V42.8112C16.4362 41.5947 15.7064 40.5168 14.577 40.0651L12.6786 39.3058V38.656C13.6147 37.9601 14.1817 36.8576 14.1817 35.6897V33.7778C14.1817 33.731 14.1805 33.6843 14.1784 33.6378L15.8686 32.9617H18.6038L20.2943 33.638C20.292 33.6862 20.2907 33.7346 20.2907 33.7834V35.6898C20.2907 36.8577 20.8576 37.9601 21.7937 38.656V39.3058L19.8953 40.0652C18.7659 40.5169 18.0361 41.5948 18.0361 42.8113V47.2969C18.0361 47.6852 18.3509 48 18.7392 48C19.1275 48 19.4423 47.6852 19.4423 47.2969V42.8111C19.4423 42.1731 19.8251 41.6077 20.4175 41.3707L22.6321 40.4848H25.3673L27.582 41.3707C28.1744 41.6076 28.5572 42.1731 28.5572 42.8111V47.2969C28.5572 47.6852 28.872 48 29.2603 48C29.6486 48 29.9634 47.6852 29.9634 47.2969V42.8112C29.9634 41.5947 29.2336 40.5168 28.1042 40.0651L26.2058 39.3058V38.6559C27.1419 37.96 27.7088 36.8575 27.7088 35.6897V33.7778C27.7088 33.731 27.7076 33.6843 27.7054 33.6378L29.3957 32.9617H32.1308L33.8213 33.6378C33.819 33.686 33.8177 33.7344 33.8177 33.7832V35.6896C33.8177 36.8575 34.3846 37.96 35.3208 38.6559V39.3057L33.4224 40.065C32.293 40.5168 31.5632 41.5946 31.5632 42.8111V47.2969C31.5632 47.6852 31.878 48 32.2663 48C32.6546 48 32.9694 47.6852 32.9694 47.2969V42.8111C32.9694 42.1731 33.3522 41.6077 33.9447 41.3707L36.1593 40.4848H38.8944L41.1092 41.3707C41.7016 41.6076 42.0844 42.1731 42.0844 42.8111V47.2969C42.0844 47.6852 42.3992 48 42.7875 48C43.1758 48 43.4906 47.6852 43.4906 47.2969V42.8112C43.4911 41.5947 42.7613 40.5168 41.6318 40.0651ZM12.7759 35.6896C12.7759 36.5099 12.3446 37.2506 11.6223 37.671C11.4059 37.7969 11.2728 38.0284 11.2728 38.2787V39.0786H9.67301V38.2787C9.67301 38.0284 9.53998 37.7969 9.32351 37.671C8.60116 37.2506 8.16991 36.5099 8.16991 35.6896V33.7832C8.16991 32.9308 8.86338 32.2348 9.71576 32.2318L11.2189 32.2264C11.6344 32.2282 12.0252 32.3856 12.3195 32.6787C12.6138 32.972 12.7759 33.3622 12.7759 33.7777V35.6896ZM18.386 30.1477C18.1697 30.2737 18.0365 30.5051 18.0365 30.7554V31.5554H16.4368V30.7554C16.4368 30.5051 16.3037 30.2737 16.0873 30.1477C15.3649 29.7274 14.9337 28.9867 14.9337 28.1663V26.2599C14.9337 25.4076 15.6271 24.7116 16.4795 24.7086L17.9825 24.7031C17.9845 24.7031 17.9864 24.7031 17.9884 24.7031C18.4017 24.7031 18.7903 24.8636 19.0833 25.1556C19.3775 25.4488 19.5396 25.8391 19.5396 26.2546V28.1664C19.5396 28.9867 19.1084 29.7274 18.386 30.1477ZM25.1494 37.671C24.9331 37.7969 24.7999 38.0284 24.7999 38.2787V39.0786H23.2002V38.2787C23.2002 38.0284 23.0672 37.7969 22.8507 37.671C22.1284 37.2506 21.6971 36.5099 21.6971 35.6896V33.7832C21.6971 32.9308 22.3905 32.2348 23.2429 32.2318L24.7459 32.2264C24.7479 32.2264 24.7498 32.2264 24.7518 32.2264C25.165 32.2264 25.5536 32.3869 25.8466 32.6787C26.1409 32.972 26.3029 33.3622 26.3029 33.7777V35.6896H26.303C26.303 36.5099 25.8718 37.2506 25.1494 37.671ZM31.9131 30.1477C31.6968 30.2737 31.5636 30.5051 31.5636 30.7554V31.5554H29.9639V30.7554C29.9639 30.5051 29.8308 30.2737 29.6144 30.1477C28.8921 29.7274 28.4609 28.9867 28.4609 28.1663V26.2599C28.4609 25.4076 29.1544 24.7116 30.0067 24.7086L31.5097 24.7031C31.5117 24.7031 31.5136 24.7031 31.5155 24.7031C31.9288 24.7031 32.3175 24.8636 32.6104 25.1556C32.9046 25.4488 33.0667 25.8391 33.0667 26.2546V28.1664C33.0667 28.9867 32.6355 29.7275 31.9131 30.1477ZM38.6768 37.671C38.4604 37.7969 38.3273 38.0284 38.3273 38.2787V39.0786H36.7276V38.2787C36.7276 38.0284 36.5945 37.7969 36.3781 37.671C35.6557 37.2506 35.2245 36.5099 35.2245 35.6896V33.7832C35.2245 32.9308 35.9179 32.2348 36.7703 32.2318L38.2734 32.2264C38.6914 32.2282 39.0798 32.3856 39.374 32.6787C39.6683 32.972 39.8304 33.3622 39.8304 33.7777V35.6896C39.8304 36.5099 39.3992 37.2506 38.6768 37.671Z" fill="#154BEC" style="&#10;    fill: black;&#10;"/>
<path d="M32.1135 13.1092C31.9854 12.902 31.759 12.7758 31.5154 12.7758H29.2125V11.4018C29.2125 10.5607 28.7453 9.80466 27.993 9.42853L26.2332 8.54869C26.2167 8.54044 26.2065 8.52384 26.2065 8.50537V7.46672C26.2065 7.45809 26.2056 7.44975 26.2052 7.44122C27.1172 6.76481 27.7095 5.68069 27.7095 4.46062V2.95762C27.7095 1.32675 26.3828 0 24.7519 0H23.2489C21.618 0 20.2913 1.32675 20.2913 2.95762V4.46062C20.2913 5.68069 20.8836 6.76481 21.7956 7.44122C21.7953 7.44975 21.7943 7.45809 21.7943 7.46672V8.50528C21.7943 8.52375 21.784 8.54034 21.7675 8.54859L20.0078 9.42844C19.2555 9.80456 18.7883 10.5607 18.7883 11.4017V12.7757H16.4854C16.2417 12.7757 16.0154 12.9019 15.8873 13.1092C15.7591 13.3164 15.7475 13.5753 15.8565 13.7932L17.3594 16.7993C17.4785 17.0376 17.7219 17.188 17.9883 17.188H18.7882V21.7455C18.7882 22.1338 19.103 22.4486 19.4913 22.4486C19.8796 22.4486 20.1944 22.1338 20.1944 21.7455V17.188H27.8063V21.7455C27.8063 22.1338 28.1211 22.4486 28.5094 22.4486C28.8977 22.4486 29.2125 22.1338 29.2125 21.7455V17.188H30.0124C30.2787 17.188 30.5222 17.0376 30.6413 16.7993L32.1443 13.7933C32.2533 13.5754 32.2417 13.3165 32.1135 13.1092ZM21.6975 4.46062V2.95762C21.6975 2.10216 22.3934 1.40625 23.2489 1.40625H24.7519C25.6073 1.40625 26.3033 2.10216 26.3033 2.95762V4.46062C26.3033 5.73047 25.2701 6.7635 24.0004 6.7635C22.7306 6.7635 21.6975 5.73037 21.6975 4.46062ZM24.9956 9.23466L24.0346 10.1957C24.0157 10.2146 23.9849 10.2146 23.9661 10.1957L23.005 9.23456C23.1306 9.01772 23.2004 8.76797 23.2004 8.50519V8.08191C23.4583 8.13891 23.7257 8.16984 24.0004 8.16984C24.2751 8.16984 24.5424 8.13891 24.8003 8.082V8.50528C24.8003 8.76797 24.8701 9.01772 24.9956 9.23466ZM20.1943 11.4017C20.1944 11.0967 20.3638 10.8226 20.6365 10.6862L21.8574 10.0758L22.9718 11.1901C23.2554 11.4736 23.6278 11.6154 24.0003 11.6154C24.3728 11.6154 24.7453 11.4736 25.0289 11.1901L26.1431 10.0758L27.364 10.6862C27.6368 10.8226 27.8062 11.0967 27.8062 11.4017V12.7757H20.1943V11.4017ZM29.5779 15.7817H18.4228L17.6229 14.1819H30.3778L29.5779 15.7817Z" fill="#154BEC" style="&#10;    fill: black;&#10;"/>
<path d="M25.5031 18.7878H22.4971C22.1088 18.7878 21.7939 19.1026 21.7939 19.4909C21.7939 19.8792 22.1088 20.194 22.4971 20.194H25.5031C25.8914 20.194 26.2062 19.8792 26.2062 19.4909C26.2062 19.1026 25.8914 18.7878 25.5031 18.7878Z" fill="#154BEC"/>
</svg>