<svg width="32" height="32" viewBox="0 0 32 32" fill="none" xmlns="http://www.w3.org/2000/svg">
<path d="M24.2677 9C24.44 8.25353 24.8037 7.69604 25.3972 7.27084C26.0576 6.7984 26.7277 6.32595 27.3594 5.81571C27.5126 5.69287 27.6657 5.56059 27.8093 5.4283C27.9529 5.30547 28.0773 5.16373 28.173 5.0031C28.2209 5.01255 28.2305 5.0409 28.24 5.06924C28.4602 5.52279 28.6708 5.98579 28.9005 6.43934C28.9579 6.54328 28.9292 6.61887 28.8622 6.70391C28.6899 6.89289 28.4985 7.05352 28.3071 7.21415C27.7423 7.67715 27.1393 8.0929 26.5458 8.52755C26.0385 8.89606 25.5312 9.25512 25.0526 9.65197C24.775 9.87875 24.4974 10.1055 24.2677 10.389C23.6551 9.70867 22.8989 9.19842 22.1714 8.65984C21.5014 8.15904 20.8026 7.6866 20.1518 7.15746C19.9795 7.01572 19.7976 6.86454 19.654 6.69446C19.5966 6.62832 19.5583 6.57162 19.6062 6.47713C19.8454 5.98579 20.0752 5.49445 20.3145 4.99365C20.8409 5.64563 21.5205 6.08973 22.1714 6.58107C22.5065 6.83619 22.851 7.07242 23.1861 7.31809C23.7029 7.69604 24.038 8.19684 24.2007 8.81102C24.2198 8.85826 24.239 8.91496 24.2677 9Z" fill="#E61E2A"/>
<path d="M19.3282 7.05359C19.8451 7.64887 20.4577 8.08352 21.0608 8.52762C21.7978 9.06621 22.5444 9.5859 23.2719 10.1528C23.358 10.219 23.4537 10.2946 23.5399 10.3702C23.8175 10.5969 24.0855 10.8332 24.2578 11.1922C24.6119 10.5591 25.1958 10.2095 25.7223 9.81268C26.3158 9.35913 26.9284 8.93393 27.5314 8.48983C28.1153 8.06462 28.6992 7.62997 29.1873 7.07249C29.2926 7.22367 29.3405 7.37485 29.4171 7.51659C29.4554 7.58273 29.4171 7.62997 29.3883 7.68667C29.3213 7.80005 29.2256 7.88509 29.1299 7.97013C28.9289 8.14966 28.7183 8.3103 28.4982 8.46148C27.6463 9.07566 26.7848 9.68039 25.9329 10.2946C25.818 10.3702 25.7127 10.4552 25.6074 10.5497C25.3298 10.7954 25.1384 11.0788 25.081 11.4473C25.0618 11.5418 25.0331 11.5796 24.9374 11.5702C24.4971 11.5702 24.0472 11.5702 23.6069 11.5702C23.5399 11.5702 23.492 11.5607 23.4825 11.4757C23.4155 10.9843 23.1091 10.6442 22.7167 10.3702C22.1998 10.0017 21.6925 9.63315 21.1756 9.25519C20.697 8.90558 20.2089 8.56542 19.7303 8.21581C19.5388 8.07407 19.3665 7.92289 19.2038 7.74336C19.1176 7.63942 19.0889 7.54493 19.1655 7.41265C19.2134 7.31816 19.2612 7.19532 19.3282 7.05359Z" fill="#E61E2A"/>
<path d="M27.6764 28.267C23.9214 28.6836 20.9435 27.0209 20.9136 27.0042C20.8126 26.9465 20.6928 26.931 20.5805 26.9618C20.5332 26.9745 15.8099 28.2406 12.0057 27.3961C9.63405 26.8689 7.39712 25.1983 5.76369 23.9786C5.54431 23.8149 5.33643 23.6595 5.14124 23.5169C4.87468 23.3219 4.45085 23.1598 4.07722 23.0167C3.90946 22.9525 3.6796 22.8644 3.6302 22.8336C3.58745 22.8001 3.56406 22.7509 3.56406 22.6946V21.6764C3.58524 20.8707 6.96341 8.47282 7.48725 6.89564C7.50016 6.87709 7.55056 6.84059 7.58767 6.82305L14.273 3.76951L16.4343 6.58331C16.541 6.72909 16.5309 6.93294 16.4108 7.06743L14.275 9.46163C14.1353 9.6185 13.9 9.63564 13.754 9.51365L12.8904 8.7174C12.7892 8.62424 12.6452 8.59339 12.5104 8.61819C12.3751 8.64239 12.2541 8.73877 12.1916 8.86136C12.1194 9.00351 11.4655 9.17773 10.7985 9.18277L10.5811 9.16079C10.4069 9.14002 10.2379 9.23096 10.1528 9.3844C10.0674 9.53784 10.0819 9.72738 10.1891 9.86651C10.3746 10.1062 10.5192 10.2988 10.6011 10.4093L11.0285 17.6756C10.7636 18.7075 10.5208 19.0007 10.4605 19.0594C10.2825 19.1156 10.1533 19.282 10.1533 19.4784C10.1533 19.721 10.35 19.9177 10.5926 19.9177C11.0908 19.9177 11.5143 19.263 11.8542 17.9849C15.3483 15.3705 18.3977 17.8379 18.6368 18.0409C19.7466 19.1548 19.8153 19.8946 19.8176 19.9274C19.8228 20.1654 20.0174 20.3569 20.2569 20.3569C20.4995 20.3569 20.6963 20.1603 20.6963 19.9177C20.6963 19.8167 20.6596 18.9499 19.5226 17.6976C20.5949 16.3793 21.8157 15.6199 23.1604 15.4546C25.4788 15.1691 27.4276 16.7281 27.4472 16.7436C27.6355 16.8969 27.9117 16.8686 28.065 16.6807C28.2182 16.493 28.1906 16.2168 28.0031 16.0633C27.9123 15.9893 25.7551 14.2539 23.062 14.5815C21.4879 14.7725 20.0748 15.6238 18.8568 17.1138C17.8682 16.4416 15.0336 14.9201 11.8635 16.91L11.4703 10.2276C11.4663 10.1554 11.4441 10.0855 11.4064 10.024C11.7996 9.97741 12.2678 9.87477 12.6073 9.65136L13.1733 10.173C13.7002 10.6152 14.4718 10.5601 14.9304 10.0468L17.0661 7.65237C17.4601 7.21099 17.4929 6.54358 17.1374 6.05684L14.7565 2.95713C14.6323 2.79521 14.4126 2.74017 14.2256 2.82526L7.22795 6.02155C7.15476 6.05361 6.78355 6.23327 6.66156 6.60024C6.41275 7.34709 2.68555 20.6394 2.68555 21.675V22.6948C2.68555 23.0221 2.83254 23.3247 3.08841 23.5254C3.21645 23.6256 3.4078 23.7014 3.76328 23.8373C4.05363 23.9486 4.45105 24.1004 4.62264 24.2261C4.81581 24.3672 5.02107 24.5206 5.23803 24.6828C6.93518 25.9502 9.25941 27.6859 11.8153 28.2539C15.4538 29.0624 19.725 28.0849 20.6404 27.8542C21.2518 28.1702 23.4947 29.2141 26.4311 29.2141C26.8645 29.2141 27.3131 29.1915 27.7734 29.1401C28.0146 29.1135 28.1882 28.8961 28.1616 28.6551C28.1345 28.4136 27.9166 28.2386 27.6764 28.267Z" fill="#08084E"/>
<path d="M25.526 22.9445C25.5018 22.7247 25.3157 22.5537 25.0893 22.5537C24.8467 22.5537 24.6499 22.7505 24.6499 22.9931C24.6499 23.2864 24.8667 24.2799 27.6528 24.7441C27.6772 24.7481 27.7016 24.7501 27.7254 24.7501C27.9363 24.7501 28.1224 24.5979 28.1583 24.3831C28.1981 24.1438 28.0364 23.9176 27.7972 23.8774C25.8488 23.5528 25.552 23.003 25.526 22.9445Z" fill="#08084E"/>
<path d="M17.0897 25.1991C11.3361 26.4315 8.87396 22.4948 8.77213 22.3268C8.64651 22.1194 8.37733 22.0526 8.16985 22.1772C7.96177 22.302 7.89442 22.5718 8.01923 22.7799C8.04827 22.8281 8.74733 23.9756 10.242 24.9531C11.272 25.6264 12.8425 26.3123 14.9667 26.3123C15.6743 26.3123 16.4431 26.2363 17.2736 26.0585C17.5109 26.0077 17.6622 25.774 17.6114 25.5368C17.5603 25.2997 17.3271 25.1479 17.0897 25.1991Z" fill="#08084E"/>
</svg>
