<svg width="48" height="48" viewBox="0 0 48 48" fill="none" xmlns="http://www.w3.org/2000/svg">
<path d="M41.5902 36.5172C41.117 33.6798 39.1275 31.3516 36.3986 30.4417L30.3386 28.4219V27.5212H28.9301V28.8445L27.8794 33.0474L25.0349 29.6339H22.9659L20.1214 33.0474L19.0707 28.8445V27.5212H17.6622V28.4219L11.6029 30.4417C8.87398 31.3516 6.8845 33.6798 6.41125 36.5172L4.8584 45.8315H43.1417L41.5902 36.5172ZM13.1142 44.423C12.9621 44.1174 12.7325 43.4709 12.7325 42.3103C12.7325 40.5314 13.9248 39.2975 13.9368 39.2849L13.4368 38.7891L12.9389 38.2912C12.8727 38.3574 11.324 39.9335 11.324 42.3103C11.324 43.2321 11.4487 43.9153 11.605 44.423H6.52182L7.80002 36.7489C8.18735 34.4277 9.81485 32.5227 12.048 31.7776L15.0755 30.7685L13.2389 35.6658L16.689 37.0454L15.4284 39.5673L19.0707 44.423H13.1142ZM25.5899 44.423L27.5033 36.1306L26.1307 35.8144L24.1441 44.423H23.856L21.8694 35.8137L20.4968 36.1299L22.4109 44.423H20.8313L17.0784 39.4194L18.6348 36.3073L15.0424 34.87L16.7953 30.1959L17.8679 29.8382L19.4285 36.0799L23.6264 31.0424H24.3743L28.5723 36.0799L30.1329 29.8382L31.2055 30.1959L32.9583 34.87L29.366 36.3073L30.9224 39.4194L27.1695 44.423H25.5899ZM36.3957 44.423C36.5521 43.9153 36.6767 43.2321 36.6767 42.3103C36.6767 39.9335 35.1281 38.3574 35.0619 38.2912L34.0661 39.287C34.0781 39.2997 35.2683 40.5095 35.2683 42.3103C35.2683 43.4786 35.0359 44.1258 34.8887 44.423H28.9301L32.5717 39.5673L31.3111 37.0454L34.7612 35.6658L32.9245 30.7685L35.9521 31.7776C38.1852 32.5227 39.8127 34.4277 40.2001 36.7489L41.479 44.423H36.3957Z" fill="#154BEC"/>
<path d="M12.0283 24.7042C12.4671 24.7042 12.8981 24.6465 13.3164 24.5331C13.9601 25.5099 15.0537 26.1127 16.2538 26.1127V24.7042C15.3988 24.7042 14.6333 24.1937 14.3037 23.4035L14.0326 22.7535L13.3819 23.0246C12.9523 23.2049 12.4966 23.2958 12.0283 23.2958C10.0867 23.2958 8.50712 21.7161 8.50712 19.7746C8.50712 18.233 9.49446 16.8843 10.9635 16.4181L11.6044 16.2153L11.4318 15.566C11.3586 15.2892 11.3241 15.0604 11.3241 14.8449C11.3241 13.2913 12.5875 12.0279 14.0981 12.0265L14.8594 12.0561L14.9481 11.4342C15.5862 6.95454 19.4778 3.57699 24.0004 3.57699C28.547 3.57699 32.4415 6.97426 33.0591 11.48L33.1295 11.9906L33.6373 12.0786C34.9901 12.3124 35.9725 13.4758 35.9725 14.8449C35.9725 15.0604 35.938 15.2892 35.8648 15.5653L35.6923 16.2146L36.3331 16.4174C37.8022 16.8843 38.7895 18.233 38.7895 19.7746C38.7895 21.7161 37.2099 23.2958 35.2683 23.2958C34.8 23.2958 34.3443 23.2049 33.914 23.0246L33.2633 22.7535L32.9922 23.4035C32.6633 24.1937 31.8978 24.7042 31.0428 24.7042V26.1127C32.2429 26.1127 33.3366 25.5099 33.9802 24.5331C34.3986 24.6465 34.8296 24.7042 35.2683 24.7042C37.986 24.7042 40.198 22.4929 40.198 19.7746C40.198 17.8308 39.0768 16.1062 37.3514 15.3054C37.3712 15.1484 37.381 14.9963 37.381 14.8449C37.381 12.9617 36.1451 11.3384 34.3774 10.8081C33.4626 5.84958 29.0851 2.16851 24.0004 2.16851C18.9806 2.16851 14.6347 5.77352 13.6551 10.6476C11.553 10.8891 9.9156 12.6793 9.9156 14.8449C9.9156 14.9963 9.92546 15.1484 9.94518 15.3054C8.21978 16.1062 7.09863 17.8308 7.09863 19.7746C7.09863 22.4929 9.31066 24.7042 12.0283 24.7042Z" fill="#154BEC"/>
<path d="M30.0801 9.77925C26.3505 9.33839 24.4399 7.95526 24.423 7.94329L24.0018 7.63061L23.58 7.94188C23.561 7.95597 21.6504 9.33839 17.9207 9.77925C16.1671 9.9863 14.8453 11.487 14.8453 13.2702V14.2117C13.2403 14.5392 12.0283 15.9611 12.0283 17.6618C12.0283 19.4689 13.4016 20.945 15.1566 21.1436C15.5157 22.3795 16.1791 23.5127 17.1144 24.4479L19.8602 27.1937C20.525 27.8585 21.4095 28.2255 22.3504 28.2255H25.6505C26.5913 28.2255 27.4759 27.8585 28.1407 27.1937L30.8865 24.4479C31.8217 23.5127 32.4844 22.3788 32.8443 21.1436C34.5993 20.945 35.9725 19.4689 35.9725 17.6618C35.9725 15.9618 34.7605 14.5392 33.1556 14.2117V13.2702C33.1556 11.487 31.8337 9.9863 30.0801 9.77925ZM13.4368 17.6618C13.4368 16.7449 14.0277 15.9702 14.8453 15.6787V18.9703C14.8453 19.2006 14.8587 19.4288 14.8784 19.6555C14.0439 19.3731 13.4368 18.5907 13.4368 17.6618ZM31.7471 18.9703C31.7471 20.6633 31.0872 22.2549 29.8907 23.4521L27.1449 26.1979C26.7456 26.5972 26.2153 26.817 25.6505 26.817H22.3504C21.7856 26.817 21.2546 26.5972 20.856 26.1979L18.1102 23.4521C16.9136 22.2549 16.2538 20.6633 16.2538 18.9703V16.9576C16.2538 18.8992 17.8334 20.4788 19.775 20.4788C21.7166 20.4788 23.2962 18.8992 23.2962 16.9576H24.7047C24.7047 18.8992 26.2843 20.4788 28.2259 20.4788C30.1675 20.4788 31.7471 18.8992 31.7471 16.9576V18.9703ZM17.6623 16.9576C17.6623 15.7928 18.6102 14.8449 19.775 14.8449C20.9398 14.8449 21.8877 15.7928 21.8877 16.9576C21.8877 18.1224 20.9398 19.0703 19.775 19.0703C18.6102 19.0703 17.6623 18.1224 17.6623 16.9576ZM26.1132 16.9576C26.1132 15.7928 27.0611 14.8449 28.2259 14.8449C29.3907 14.8449 30.3386 15.7928 30.3386 16.9576C30.3386 18.1224 29.3907 19.0703 28.2259 19.0703C27.0611 19.0703 26.1132 18.1224 26.1132 16.9576ZM31.7471 14.8449V15.5491H31.4485C30.9034 14.3075 29.6661 13.4364 28.2259 13.4364C26.7857 13.4364 25.5484 14.3075 25.0033 15.5491H22.9976C22.4525 14.3075 21.2152 13.4364 19.775 13.4364C18.3348 13.4364 17.0975 14.3075 16.5524 15.5491H16.2538V14.8449V13.2702C16.2538 12.2004 17.0411 11.3011 18.0862 11.1779C21.2187 10.8074 23.1898 9.82784 24.0004 9.34473C24.811 9.82784 26.7822 10.8074 29.9146 11.1779C30.9597 11.3011 31.7471 12.2011 31.7471 13.2702V14.8449ZM34.5641 17.6618C34.5641 18.5907 33.957 19.3731 33.1225 19.6548C33.1422 19.4288 33.1556 19.2006 33.1556 18.9703V15.6787C33.9732 15.9702 34.5641 16.7449 34.5641 17.6618Z" fill="#154BEC"/>
</svg>
