<svg width="48" height="48" viewBox="0 0 48 48" fill="none" xmlns="http://www.w3.org/2000/svg">
<g clip-path="url(#clip0)">
<path d="M39.6358 15.17H36.1455V11.4514C36.1455 9.32045 35.3438 7.29048 33.8879 5.73563C33.6173 5.44651 33.1635 5.4317 32.8746 5.70235C32.5855 5.97301 32.5706 6.42667 32.8413 6.7156C34.0474 8.00382 34.7117 9.6857 34.7117 11.4514V15.17H20.1231C15.511 15.17 11.7589 18.9222 11.7589 23.5343V26.0991H10.6359C10.1892 26.0991 9.76912 26.2731 9.45309 26.589L5.64797 30.3941V26.5663C5.64797 25.9799 5.334 25.4289 4.82841 25.1283C2.73459 23.8834 1.43381 21.5998 1.43381 19.1688V11.4514C1.43381 7.62995 4.54275 4.52101 8.36419 4.52101H27.7813C28.677 4.52101 29.5482 4.6891 30.3708 5.02079C30.738 5.16863 31.1558 4.99107 31.3038 4.62395C31.4518 4.25673 31.2742 3.83898 30.9069 3.69095C29.9133 3.29026 28.8616 3.0872 27.7813 3.0872H8.36419C3.75216 3.0872 0 6.83935 0 11.4514V19.1688C0 22.103 1.56938 24.8588 4.09566 26.3607C4.16878 26.4042 4.21416 26.483 4.21416 26.5664V30.7404C4.21416 31.2641 4.52681 31.732 5.01075 31.9326C5.33372 32.0878 5.99316 32.0654 6.41709 31.6529L10.4669 27.603C10.5121 27.5578 10.5721 27.533 10.6359 27.533H11.7589V31.2516C11.7589 32.3805 11.9801 33.476 12.4164 34.5076C12.5707 34.8722 12.9913 35.0425 13.356 34.8886C13.7207 34.7344 13.8912 34.3137 13.7371 33.949C13.376 33.0952 13.1928 32.1877 13.1928 31.2517V23.5344C13.1928 19.7128 16.3017 16.6039 20.1232 16.6039H39.6358C43.4573 16.6039 46.5662 19.7128 46.5662 23.5344V31.2517C46.5662 33.6922 45.3183 35.9073 43.2279 37.1772C42.7353 37.4766 42.4292 38.0229 42.4292 38.6028V43.2787L37.8225 38.6719C37.5066 38.3559 37.0865 38.1819 36.6397 38.1819H20.1231C18.3839 38.1819 16.7209 37.5351 15.4402 36.3606C15.1484 36.0931 14.6949 36.1126 14.4272 36.4044C14.1595 36.6962 14.1791 37.1497 14.471 37.4173C16.0168 38.8351 18.024 39.6159 20.123 39.6159H36.6395C36.7024 39.6159 36.764 39.6414 36.8084 39.6859L41.6599 44.5374C42.0345 44.8253 42.4007 45.0478 43.0661 44.817C43.5501 44.6165 43.8627 44.1486 43.8627 43.6248V38.6027C43.8627 38.5203 43.9047 38.4435 43.9722 38.4025C46.4944 36.8704 48 34.1972 48 31.2516V23.5343C48 18.9222 44.2478 15.17 39.6358 15.17Z" fill="#154BEC"/>
<path d="M27.8556 32.2675C27.4352 31.6735 26.6694 31.2752 25.7959 31.2752C24.4715 31.2752 23.3941 32.1907 23.3941 33.3159C23.3941 34.4411 24.4716 35.3566 25.7959 35.3566C26.958 35.3566 27.9297 34.6517 28.1505 33.7187C29.208 33.2733 30.0405 32.3858 30.4018 31.2629C31.4488 31.0245 32.2329 30.0866 32.2329 28.9684V26.3832C32.2329 25.3037 31.5022 24.3923 30.5096 24.1159C30.2759 22.676 29.5683 21.3548 28.4835 20.3562C27.2731 19.242 25.7 18.6284 24.0539 18.6284C20.8148 18.6284 18.1055 20.9616 17.5977 24.116C16.6054 24.3925 15.875 25.3039 15.875 26.3831V28.9683C15.875 30.2662 16.9309 31.3221 18.2288 31.3221C19.5267 31.3221 20.5826 30.2662 20.5826 28.9683V26.3831C20.5826 25.3711 19.9405 24.5063 19.0423 24.1744C19.5072 21.7992 21.5834 20.0622 24.0539 20.0622C26.4931 20.0622 28.5956 21.8296 29.0637 24.1751C28.1665 24.5075 27.5253 25.3718 27.5253 26.3831V28.9683C27.5253 29.9249 28.0992 30.7495 28.9207 31.1173C28.6928 31.6071 28.3179 32.0071 27.8556 32.2675ZM25.7959 33.9229C25.2254 33.9229 24.8279 33.6031 24.8279 33.316C24.8279 33.029 25.2254 32.7091 25.7959 32.7091C26.3664 32.7091 26.764 33.029 26.764 33.316C26.764 33.6031 26.3663 33.9229 25.7959 33.9229ZM19.1487 28.9685C19.1487 29.4758 18.7361 29.8884 18.2288 29.8884C17.7215 29.8884 17.3088 29.4758 17.3088 28.9685V26.3833C17.3088 25.876 17.7215 25.4634 18.2288 25.4634C18.7361 25.4634 19.1487 25.876 19.1487 26.3833V28.9685ZM28.9591 26.3833C28.9591 25.876 29.3718 25.4634 29.8791 25.4634C30.3864 25.4634 30.7991 25.876 30.7991 26.3833V28.9685C30.7991 29.4758 30.3864 29.8884 29.8791 29.8884C29.3718 29.8884 28.9591 29.4758 28.9591 28.9685V26.3833Z" fill="#154BEC"/>
<path d="M34.0958 22.6915H39.8062C40.2021 22.6915 40.5231 22.3706 40.5231 21.9746C40.5231 21.5786 40.2021 21.2577 39.8062 21.2577H34.0958C33.6999 21.2577 33.3789 21.5786 33.3789 21.9746C33.3789 22.3706 33.6999 22.6915 34.0958 22.6915Z" fill="#154BEC"/>
<path d="M34.0958 25.9009H38.499C38.8949 25.9009 39.2159 25.58 39.2159 25.184C39.2159 24.788 38.8949 24.4671 38.499 24.4671H34.0958C33.6999 24.4671 33.3789 24.788 33.3789 25.184C33.3789 25.58 33.6999 25.9009 34.0958 25.9009Z" fill="#154BEC"/>
<path d="M7.05322 13.5332C7.64352 13.5332 8.12206 13.0547 8.12206 12.4643C8.12206 11.874 7.64352 11.3955 7.05322 11.3955C6.46291 11.3955 5.98438 11.874 5.98438 12.4643C5.98438 13.0547 6.46291 13.5332 7.05322 13.5332Z" fill="#154BEC"/>
<path d="M10.2895 13.5332C10.8799 13.5332 11.3584 13.0547 11.3584 12.4643C11.3584 11.874 10.8799 11.3955 10.2895 11.3955C9.69924 11.3955 9.2207 11.874 9.2207 12.4643C9.2207 13.0547 9.69924 13.5332 10.2895 13.5332Z" fill="#154BEC"/>
<path d="M13.5083 13.5332C14.0986 13.5332 14.5771 13.0547 14.5771 12.4643C14.5771 11.874 14.0986 11.3955 13.5083 11.3955C12.918 11.3955 12.4395 11.874 12.4395 12.4643C12.4395 13.0547 12.918 13.5332 13.5083 13.5332Z" fill="#154BEC"/>
</g>
<defs>
<clipPath id="clip0">
<rect width="48" height="48" fill="white"/>
</clipPath>
</defs>
</svg>
