<svg width="32" height="32" viewBox="0 0 32 32" fill="none" xmlns="http://www.w3.org/2000/svg">
<path d="M25.1002 22.8L19.1002 13.2V7.10001C20.1002 6.80001 20.7002 5.70001 20.4002 4.60001C20.1002 3.80001 19.4002 3.20001 18.5002 3.20001H13.6002C12.5002 3.20001 11.6002 4.10001 11.6002 5.10001C11.6002 6.00001 12.1002 6.70001 13.0002 7.00001V13.1L7.00024 22.7C6.10024 24.1 6.20024 25.8 7.20024 27.1C8.00024 28.1 9.10024 28.7 10.4002 28.7H21.8002C23.1002 28.7 24.2002 28.1 25.0002 27.1C25.9002 25.9 26.0002 24.2 25.1002 22.8ZM20.2002 16.8C19.8002 16.9 19.4002 16.9 19.0002 16.9C18.3002 16.7 17.7002 16.4 17.1002 15.9C16.5002 15.4 15.8002 15 15.0002 14.8C14.3002 14.7 13.6002 14.7 13.0002 14.8L13.8002 13.5V7.20001H18.0002V7.80001H17.0002V8.60001H18.1002V9.50001H16.0002V10.3H18.2002V13.3L20.2002 16.8ZM12.6002 5.20001C12.6002 4.70001 13.0002 4.20001 13.6002 4.20001H18.5002C19.0002 4.20001 19.5002 4.60001 19.5002 5.20001C19.5002 5.80001 19.1002 6.20001 18.5002 6.20001H13.6002C13.1002 6.20001 12.6002 5.80001 12.6002 5.20001ZM24.2002 26.6C23.6002 27.4 22.7002 27.8 21.7002 27.8H10.4002C9.40024 27.8 8.50024 27.3 7.90024 26.6C7.20024 25.6 7.10024 24.4 7.80024 23.4L12.4002 15.9C13.2002 15.5 14.1002 15.4 14.9002 15.6C15.5002 15.8 16.1002 16.1 16.6002 16.5C17.2002 17.1 18.0002 17.4 18.8002 17.6C19.0002 17.6 19.2002 17.7 19.5002 17.7C19.9002 17.7 20.3002 17.6 20.6002 17.5L24.2002 23.3C24.9002 24.3 24.9002 25.6 24.2002 26.6Z" fill="#121E28"/>
<path d="M16.0443 22.8327C16.233 22.0151 16.6314 21.4046 17.2814 20.9389C18.0048 20.4214 18.7386 19.904 19.4305 19.3451C19.5983 19.2106 19.766 19.0657 19.9233 18.9208C20.0805 18.7863 20.2168 18.631 20.3217 18.4551C20.3741 18.4655 20.3846 18.4965 20.395 18.5276C20.6362 19.0243 20.8668 19.5314 21.1184 20.0281C21.1813 20.142 21.1499 20.2248 21.0765 20.3179C20.8878 20.5249 20.6781 20.7008 20.4684 20.8768C19.8499 21.3839 19.1894 21.8392 18.5394 22.3153C17.9838 22.7189 17.4282 23.1121 16.904 23.5468C16.6 23.7952 16.2959 24.0435 16.0443 24.354C15.3734 23.6089 14.5452 23.05 13.7484 22.4601C13.0145 21.9116 12.2492 21.3942 11.5364 20.8147C11.3476 20.6594 11.1485 20.4938 10.9912 20.3076C10.9283 20.2351 10.8864 20.173 10.9388 20.0695C11.2009 19.5314 11.4525 18.9933 11.7146 18.4448C12.2912 19.1588 13.0355 19.6452 13.7484 20.1834C14.1153 20.4628 14.4927 20.7215 14.8597 20.9906C15.4258 21.4046 15.7927 21.953 15.9709 22.6257C15.9919 22.6775 16.0129 22.7396 16.0443 22.8327Z" fill="#FF1919"/>
<path d="M10.6346 20.7009C11.2007 21.3528 11.8717 21.8289 12.5321 22.3153C13.3394 22.9052 14.1571 23.4744 14.9538 24.0953C15.0482 24.1678 15.153 24.2505 15.2474 24.3333C15.5514 24.5817 15.845 24.8404 16.0337 25.2337C16.4216 24.5403 17.0611 24.1574 17.6377 23.7227C18.2876 23.226 18.9586 22.7603 19.6191 22.2739C20.2586 21.8082 20.8981 21.3322 21.4327 20.7216C21.5481 20.8871 21.6005 21.0527 21.6844 21.208C21.7263 21.2804 21.6844 21.3322 21.6529 21.3942C21.5795 21.5184 21.4747 21.6116 21.3698 21.7047C21.1497 21.9013 20.919 22.0773 20.6779 22.2429C19.7449 22.9155 18.8013 23.5779 17.8683 24.2505C17.7425 24.3333 17.6272 24.4265 17.5119 24.53C17.2078 24.799 16.9982 25.1095 16.9353 25.5131C16.9143 25.6166 16.8828 25.658 16.778 25.6476C16.2958 25.6476 15.803 25.6476 15.3208 25.6476C15.2474 25.6476 15.195 25.6373 15.1845 25.5442C15.1111 25.006 14.7756 24.6335 14.3458 24.3333C13.7797 23.9297 13.224 23.5261 12.6579 23.1122C12.1337 22.7293 11.5991 22.3567 11.0749 21.9738C10.8652 21.8185 10.6765 21.653 10.4983 21.4563C10.4039 21.3425 10.3725 21.239 10.4564 21.0941C10.5088 20.9906 10.5612 20.8561 10.6346 20.7009Z" fill="#FF1919"/>
</svg>
