<svg width="48" height="48" viewBox="0 0 48 48" fill="none" xmlns="http://www.w3.org/2000/svg">
<path d="M42.3333 2H5.66667C3.64263 2.00242 2.00242 3.64263 2 5.66667V42.3333C2.00242 44.3574 3.64263 45.9976 5.66667 46H42.3333C44.3574 45.9976 45.9976 44.3574 46 42.3333V5.66667C45.9976 3.64263 44.3574 2.00242 42.3333 2ZM5.66667 3.46667H42.3333C43.5484 3.46667 44.5333 4.45164 44.5333 5.66667V7.86667H3.46667V5.66667C3.46667 4.45164 4.45164 3.46667 5.66667 3.46667ZM42.3333 44.5333H5.66667C4.45164 44.5333 3.46667 43.5484 3.46667 42.3333V9.33333H44.5333V42.3333C44.5333 43.5484 43.5484 44.5333 42.3333 44.5333Z" fill="#154BEC"/>
<path d="M6.40033 6.4C6.80533 6.4 7.13366 6.07168 7.13366 5.66667C7.13366 5.26166 6.80533 4.93333 6.40033 4.93333C5.99532 4.93333 5.66699 5.26166 5.66699 5.66667C5.66699 6.07168 5.99532 6.4 6.40033 6.4Z" fill="#154BEC"/>
<path d="M9.33392 6.4C9.73893 6.4 10.0673 6.07168 10.0673 5.66667C10.0673 5.26166 9.73893 4.93333 9.33392 4.93333C8.92891 4.93333 8.60059 5.26166 8.60059 5.66667C8.60059 6.07168 8.92891 6.4 9.33392 6.4Z" fill="#154BEC"/>
<path d="M12.2665 6.4C12.6715 6.4 12.9999 6.07168 12.9999 5.66667C12.9999 5.26166 12.6715 4.93333 12.2665 4.93333C11.8615 4.93333 11.5332 5.26166 11.5332 5.66667C11.5332 6.07168 11.8615 6.4 12.2665 6.4Z" fill="#154BEC"/>
<path d="M40.1327 6.4H40.8661C41.2711 6.4 41.5994 6.07168 41.5994 5.66667C41.5994 5.26166 41.2711 4.93333 40.8661 4.93333H40.1327C39.7277 4.93333 39.3994 5.26166 39.3994 5.66667C39.3994 6.07168 39.7277 6.4 40.1327 6.4Z" fill="#154BEC"/>
<path d="M32.7997 6.4H37.1997C37.6047 6.4 37.9331 6.07168 37.9331 5.66667C37.9331 5.26166 37.6047 4.93333 37.1997 4.93333H32.7997C32.3947 4.93333 32.0664 5.26166 32.0664 5.66667C32.0664 6.07168 32.3947 6.4 32.7997 6.4Z" fill="#154BEC"/>
<path d="M38.6661 10.8H9.33281C8.11779 10.8 7.13281 11.785 7.13281 13V24.7333C7.13281 25.9484 8.11779 26.9333 9.33281 26.9333H38.6661C39.8812 26.9333 40.8661 25.9484 40.8661 24.7333V13C40.8661 11.785 39.8812 10.8 38.6661 10.8ZM39.3995 24.7333C39.3995 25.1383 39.0712 25.4667 38.6661 25.4667H9.33281C8.9278 25.4667 8.59948 25.1383 8.59948 24.7333V13C8.59948 12.595 8.9278 12.2667 9.33281 12.2667H38.6661C39.0712 12.2667 39.3995 12.595 39.3995 13V24.7333Z" fill="#154BEC"/>
<path d="M24.0005 13.7333C21.1655 13.7333 18.8672 16.0316 18.8672 18.8667C18.8672 21.7017 21.1655 24 24.0005 24C26.8356 24 29.1339 21.7017 29.1339 18.8667C29.1306 16.0329 26.8342 13.7366 24.0005 13.7333ZM24.0005 22.5333C21.9755 22.5333 20.3339 20.8917 20.3339 18.8667C20.3339 16.8416 21.9755 15.2 24.0005 15.2C26.0256 15.2 27.6672 16.8416 27.6672 18.8667C27.6648 20.8907 26.0246 22.5309 24.0005 22.5333Z" fill="#154BEC"/>
<path d="M25.8737 18.2565L23.6737 16.7899C23.3367 16.5651 22.8814 16.656 22.6566 16.993C22.4318 17.33 22.5227 17.7854 22.8597 18.0101L24.1467 18.8667L22.8619 19.7232C22.6439 19.8686 22.5201 20.1193 22.537 20.3807C22.554 20.6422 22.7091 20.8748 22.944 20.9909C23.1789 21.1069 23.4579 21.0889 23.6759 20.9435L25.8759 19.4768C26.0799 19.3408 26.2024 19.1118 26.2024 18.8667C26.2024 18.6215 26.0799 18.3925 25.8759 18.2565H25.8737Z" fill="#154BEC"/>
<path d="M22.5328 29.8667H21.7995C21.7995 29.0567 21.1428 28.4 20.3328 28.4H17.3995C16.858 28.3995 16.3355 28.5996 15.9328 28.9617C15.5302 28.5996 15.0077 28.3995 14.4661 28.4H11.5328C10.7228 28.4 10.0661 29.0567 10.0661 29.8667H9.33281C8.11779 29.8667 7.13281 30.8516 7.13281 32.0667V40.8667C7.13281 42.0817 8.11779 43.0667 9.33281 43.0667H22.5328C23.7478 43.0667 24.7328 42.0817 24.7328 40.8667V32.0667C24.7328 30.8516 23.7478 29.8667 22.5328 29.8667ZM11.5328 37.2H14.4661C14.8712 37.2 15.1995 37.5283 15.1995 37.9333V38.6667H11.5328V37.2ZM16.6661 37.9333C16.6661 37.5283 16.9945 37.2 17.3995 37.2H20.3328V38.6667H16.6661V37.9333ZM17.3995 29.8667H20.3328V35.7333H17.3995C17.1491 35.7358 16.901 35.7814 16.6661 35.8683V30.6C16.6661 30.195 16.9945 29.8667 17.3995 29.8667ZM14.4661 29.8667C14.8712 29.8667 15.1995 30.195 15.1995 30.6V35.8683C14.9646 35.7814 14.7165 35.7358 14.4661 35.7333H11.5328V29.8667H14.4661ZM23.2661 40.8667C23.2661 41.2717 22.9378 41.6 22.5328 41.6H9.33281C8.9278 41.6 8.59948 41.2717 8.59948 40.8667V32.0667C8.59948 31.6617 8.9278 31.3333 9.33281 31.3333H10.0661V38.6667C10.0661 39.4767 10.7228 40.1333 11.5328 40.1333H20.3328C21.1428 40.1333 21.7995 39.4767 21.7995 38.6667V31.3333H22.5328C22.9378 31.3333 23.2661 31.6617 23.2661 32.0667V40.8667Z" fill="#154BEC"/>
<path d="M40.1337 31.3333H28.4003C27.9953 31.3333 27.667 31.6617 27.667 32.0667C27.667 32.4717 27.9953 32.8 28.4003 32.8H40.1337C40.5387 32.8 40.867 32.4717 40.867 32.0667C40.867 31.6617 40.5387 31.3333 40.1337 31.3333Z" fill="#154BEC"/>
<path d="M35.0003 40.1333H28.4003C27.9953 40.1333 27.667 40.4617 27.667 40.8667C27.667 41.2717 27.9953 41.6 28.4003 41.6H35.0003C35.4053 41.6 35.7337 41.2717 35.7337 40.8667C35.7337 40.4617 35.4053 40.1333 35.0003 40.1333Z" fill="#154BEC"/>
<path d="M28.4003 35.7333H35.0003C35.4053 35.7333 35.7337 35.405 35.7337 35C35.7337 34.595 35.4053 34.2667 35.0003 34.2667H28.4003C27.9953 34.2667 27.667 34.595 27.667 35C27.667 35.405 27.9953 35.7333 28.4003 35.7333Z" fill="#154BEC"/>
<path d="M28.4003 38.6667H29.867C30.272 38.6667 30.6003 38.3383 30.6003 37.9333C30.6003 37.5283 30.272 37.2 29.867 37.2H28.4003C27.9953 37.2 27.667 37.5283 27.667 37.9333C27.667 38.3383 27.9953 38.6667 28.4003 38.6667Z" fill="#154BEC"/>
<path d="M40.1335 34.2667H37.9335C37.5285 34.2667 37.2002 34.595 37.2002 35C37.2002 35.405 37.5285 35.7333 37.9335 35.7333H40.1335C40.5385 35.7333 40.8669 35.405 40.8669 35C40.8669 34.595 40.5385 34.2667 40.1335 34.2667Z" fill="#154BEC"/>
<path d="M40.1331 37.2H32.7997C32.3947 37.2 32.0664 37.5283 32.0664 37.9333C32.0664 38.3383 32.3947 38.6667 32.7997 38.6667H40.1331C40.5381 38.6667 40.8664 38.3383 40.8664 37.9333C40.8664 37.5283 40.5381 37.2 40.1331 37.2Z" fill="#154BEC"/>
</svg>
