<svg width="48" height="48" viewBox="0 0 48 48" fill="none" xmlns="http://www.w3.org/2000/svg">
<path d="M24.1983 20.8434C21.1317 20.8434 18.6367 23.3383 18.6367 26.4051C18.6367 29.4718 21.1316 31.9667 24.1983 31.9667C27.2651 31.9667 29.76 29.4718 29.76 26.4051C29.76 23.3383 27.265 20.8434 24.1983 20.8434ZM24.1983 30.4635C21.9604 30.4635 20.1399 28.6429 20.1399 26.4051C20.1399 24.1672 21.9605 22.3466 24.1983 22.3466C26.4362 22.3466 28.2568 24.1672 28.2568 26.4051C28.2568 28.6429 26.4362 30.4635 24.1983 30.4635Z" fill="#121E28"/>
<path d="M38.628 0C35.5614 0 33.0664 2.49487 33.0664 5.56163C33.0664 8.62828 35.5613 11.1233 38.628 11.1233C41.6947 11.1233 44.1897 8.62838 44.1897 5.56163C44.1897 2.49487 41.6948 0 38.628 0ZM38.628 9.62006C36.3902 9.62006 34.5696 7.79944 34.5696 5.56163C34.5696 3.32381 36.3902 1.50319 38.628 1.50319C40.8659 1.50319 42.6865 3.32381 42.6865 5.56163C42.6865 7.79944 40.8659 9.62006 38.628 9.62006Z" fill="#121E28"/>
<path d="M8.9669 0C5.90015 0 3.40527 2.49487 3.40527 5.56163C3.40527 8.62828 5.90015 11.1233 8.9669 11.1233C12.0336 11.1233 14.5285 8.62838 14.5285 5.56163C14.5284 2.49487 12.0336 0 8.9669 0ZM8.9669 9.62006C6.72899 9.62006 4.90846 7.79944 4.90846 5.56163C4.90846 3.32381 6.72909 1.50319 8.9669 1.50319C11.2047 1.50319 13.0253 3.32381 13.0253 5.56163C13.0253 7.79944 11.2047 9.62006 8.9669 9.62006Z" fill="#121E28"/>
<path d="M45.8434 18.3382C46.2586 18.3382 46.595 18.0018 46.595 17.5867V15.1817C46.595 12.9991 44.8193 11.2235 42.6368 11.2235H34.62C34.3757 11.2235 34.1327 11.2485 33.8928 11.2934C31.1217 9.17803 27.694 8.01675 24.1982 8.01675C20.6066 8.01675 17.1103 9.2339 14.2999 11.4521C13.8763 11.3007 13.4327 11.2235 12.9749 11.2235H4.95822C2.77562 11.2235 1 12.9992 1 15.1817V26.4051C1 26.8201 1.33638 27.1567 1.75159 27.1567H8.52794C8.83684 28.6995 9.37094 30.182 10.1197 31.5718C10.3271 31.9565 10.8336 32.0822 11.1978 31.8409C11.5171 31.6292 11.6244 31.1956 11.4431 30.8588C10.8129 29.6893 10.3507 28.4475 10.0641 27.1567H16.1817C16.5968 27.1567 16.9333 26.8203 16.9333 26.4052V15.1817C16.9333 14.0637 16.4704 13.0276 15.6803 12.2911C18.1447 10.4979 21.1333 9.51984 24.1984 9.51984C27.125 9.51984 29.898 10.3698 32.2874 11.9883C31.2915 12.7209 30.6618 13.902 30.6618 15.1816V26.405C30.6618 26.82 30.9982 27.1566 31.4134 27.1566H38.3315C37.5168 30.8002 35.2843 34.0279 32.165 36.0918V36.025C32.165 33.8425 30.3893 32.0668 28.2068 32.0668H20.19C18.0074 32.0668 16.2318 33.8425 16.2318 36.025V36.0926C15.0043 35.2837 13.9111 34.2967 12.9721 33.1453C12.7097 32.8237 12.2362 32.7756 11.9146 33.0379C11.5929 33.3002 11.5449 33.7736 11.8071 34.0953C13.0498 35.619 14.5369 36.8827 16.2318 37.858V47.2484C16.2318 47.6634 16.5681 48 16.9833 48H31.4134C31.8286 48 32.165 47.6635 32.165 47.2484V37.8584C36.136 35.569 38.9666 31.6299 39.8671 27.1567H45.8435C46.2587 27.1567 46.5951 26.8202 46.5951 26.4051V21.595C46.5951 21.18 46.2588 20.8434 45.8435 20.8434C45.4284 20.8434 45.0919 21.1799 45.0919 21.595V25.6535H32.1649V15.1816C32.1649 14.1006 32.8886 13.1323 33.9248 12.827H33.9249C34.1513 12.7603 34.3851 12.7266 34.6201 12.7266H36.4833L37.064 14.4687L36.2766 23.1304C36.2486 23.4385 36.4123 23.7323 36.6888 23.8706L38.2922 24.6723C38.5019 24.7771 38.7547 24.7771 38.9644 24.6723L40.5677 23.8706C40.8444 23.7323 41.0082 23.4384 40.98 23.1304L40.1926 14.4687L40.7733 12.7265H42.6366C43.9905 12.7265 45.0918 13.8278 45.0918 15.1816V17.5866C45.0918 18.0017 45.4282 18.3382 45.8434 18.3382ZM9.52722 12.7265L9.22656 13.6283H8.70662L8.40597 12.7265H9.52722ZM8.85119 15.1315H9.082L9.775 22.7555L8.96659 23.1597L8.15819 22.7555L8.85119 15.1315ZM15.43 25.6535H2.50309V15.1816C2.50309 13.8278 3.60438 12.7265 4.95822 12.7265H6.8215L7.40219 14.4686L6.61478 23.1303C6.58675 23.4384 6.75044 23.7322 7.027 23.8705L8.63031 24.6722C8.84003 24.777 9.09288 24.777 9.30259 24.6722L10.9059 23.8705C11.1826 23.7322 11.3463 23.4383 11.3181 23.1303L10.5307 14.4686L11.1115 12.7265H12.9748C13.3636 12.7265 13.7362 12.8153 14.0822 12.9907C14.9135 13.4121 15.4299 14.2515 15.4299 15.1816V25.6535H15.43ZM24.759 33.5699L24.4583 34.4718H23.9383L23.6376 33.5699H24.759ZM24.0829 35.975H24.3137L25.0067 43.599L24.1983 44.0033L23.3899 43.599L24.0829 35.975ZM30.6618 46.4969H17.7348V36.025C17.7348 34.6713 18.8361 33.5699 20.19 33.5699H22.0533L22.6339 35.3121L21.8465 43.9737C21.8185 44.2819 21.9822 44.5757 22.2588 44.714L23.8621 45.5156C24.0718 45.6204 24.3246 45.6204 24.5343 45.5156L26.1377 44.714C26.4143 44.5757 26.5781 44.2818 26.5499 43.9737L25.7625 35.3121L26.3433 33.5699H28.2065C29.5604 33.5699 30.6617 34.6713 30.6617 36.025V46.4969H30.6618ZM39.1891 12.7265L38.8884 13.6283H38.3684L38.0677 12.7265H39.1891ZM38.6283 23.1597L37.8199 22.7555L38.5129 15.1315H38.7438L39.4368 22.7555L38.6283 23.1597Z" fill="#121E28"/>
</svg>
