<svg width="48" height="48" viewBox="0 0 48 48" fill="none" xmlns="http://www.w3.org/2000/svg">
<path d="M4.83887 4.83871H6.25822V6.25806H4.83887V4.83871Z" fill="#154BEC"/>
<path d="M7.67773 4.83871H9.09709V6.25806H7.67773V4.83871Z" fill="#154BEC"/>
<path d="M10.5166 4.83871H11.936V6.25806H10.5166V4.83871Z" fill="#154BEC"/>
<path d="M3.41935 9.09677H6.67394L9.0109 11.4337C9.33452 11.7574 9.76458 11.9355 10.2223 11.9355C11.1669 11.9355 11.9355 11.1669 11.9355 10.2223V9.09677H13.3548C14.1376 9.09677 14.7742 8.46019 14.7742 7.67742V3.41935C14.7742 2.63658 14.1376 2 13.3548 2H3.41935C2.63658 2 2 2.63658 2 3.41935V7.67742C2 8.46019 2.63658 9.09677 3.41935 9.09677ZM3.41935 3.41935H13.3548L13.3555 7.67742H10.5161V10.2223C10.5161 10.4622 10.184 10.5992 10.0144 10.4303L7.26155 7.67742H3.41935V3.41935Z" fill="#154BEC"/>
<path d="M41.7422 4.83871H43.1615V6.25806H41.7422V4.83871Z" fill="#154BEC"/>
<path d="M38.9033 4.83871H40.3227V6.25806H38.9033V4.83871Z" fill="#154BEC"/>
<path d="M28.9678 4.83871H37.4839V6.25806H28.9678V4.83871Z" fill="#154BEC"/>
<path d="M44.5806 2H20.4516C19.6688 2 19.0322 2.63658 19.0322 3.41935V7.67742C19.0322 8.46019 19.6688 9.09677 20.4516 9.09677H23.7062L26.0431 11.4337C26.3667 11.7574 26.7968 11.9355 27.2545 11.9355C28.1991 11.9355 28.9677 11.1669 28.9677 10.2223V9.09677H34.6451V10.2223C34.6451 11.1669 35.4137 11.9355 36.3583 11.9355C36.816 11.9355 37.2461 11.7574 37.5697 11.4337L39.9067 9.09677H44.5806C45.3634 9.09677 46 8.46019 46 7.67742V3.41935C46 2.63658 45.3634 2 44.5806 2ZM39.3191 7.67742L36.5662 10.4303C36.3973 10.5992 36.0645 10.4622 36.0645 10.2223V7.67742H27.5484V10.2223C27.5484 10.4622 27.2155 10.5992 27.0466 10.4303L24.2938 7.67742H20.4516V3.41935H44.5806L44.5813 7.67742H39.3191Z" fill="#154BEC"/>
<path d="M22.5811 4.83871H27.5488V6.25806H22.5811V4.83871Z" fill="#154BEC"/>
<path d="M44.5806 41.0323C44.5806 39.9358 43.7446 39.0409 42.678 38.9259C42.2075 37.926 41.4318 37.1234 40.4773 36.6273C41.2444 35.9765 41.7419 35.0177 41.7419 33.9355C41.7419 31.9789 40.1501 30.3871 38.1935 30.3871C36.237 30.3871 34.6452 31.9789 34.6452 33.9355C34.6452 35.0177 35.1426 35.9765 35.9091 36.628C34.9553 37.1234 34.1789 37.926 33.7084 38.9266C32.6425 39.0409 31.8064 39.9358 31.8064 41.0323V44.5806H30.3871V41.0323C30.3871 39.9358 29.5511 39.0409 28.4845 38.9259C28.0139 37.926 27.2383 37.1234 26.2837 36.6273C27.0509 35.9765 27.5484 35.0177 27.5484 33.9355C27.5484 31.9789 25.9566 30.3871 24 30.3871C22.0434 30.3871 20.4516 31.9789 20.4516 33.9355C20.4516 35.0177 20.9491 35.9765 21.7155 36.628C20.7617 37.1234 19.9854 37.926 19.5148 38.9266C18.4489 39.0409 17.6129 39.9358 17.6129 41.0323V44.5806H16.1935V41.0323C16.1935 39.9358 15.3575 39.0409 14.2909 38.9259C13.8204 37.926 13.0447 37.1234 12.0902 36.6273C12.8574 35.9765 13.3548 35.0177 13.3548 33.9355C13.3548 31.9789 11.763 30.3871 9.80645 30.3871C7.84987 30.3871 6.25806 31.9789 6.25806 33.9355C6.25806 35.0177 6.75555 35.9765 7.522 36.628C6.56819 37.1234 5.79181 37.926 5.32129 38.9266C4.25535 39.0409 3.41935 39.9358 3.41935 41.0323V44.5806H2V46H46V44.5806H44.5806V41.0323ZM36.0645 33.9355C36.0645 32.7617 37.0197 31.8065 38.1935 31.8065C39.3674 31.8065 40.3226 32.7617 40.3226 33.9355C40.3226 35.1093 39.3674 36.0645 38.1935 36.0645C37.0197 36.0645 36.0645 35.1093 36.0645 33.9355ZM38.1935 37.4839C39.3283 37.4839 40.3723 38.0275 41.0308 38.9032H35.3563C36.0148 38.0275 37.0588 37.4839 38.1935 37.4839ZM33.2258 41.0323C33.2258 40.6412 33.5445 40.3226 33.9355 40.3226H42.4516C42.8426 40.3226 43.1613 40.6412 43.1613 41.0323V44.5806H33.2258V41.0323ZM21.871 33.9355C21.871 32.7617 22.8262 31.8065 24 31.8065C25.1738 31.8065 26.129 32.7617 26.129 33.9355C26.129 35.1093 25.1738 36.0645 24 36.0645C22.8262 36.0645 21.871 35.1093 21.871 33.9355ZM24 37.4839C25.1348 37.4839 26.1787 38.0275 26.8373 38.9032H21.1627C21.8213 38.0275 22.8652 37.4839 24 37.4839ZM19.0323 41.0323C19.0323 40.6412 19.3509 40.3226 19.7419 40.3226H28.2581C28.6491 40.3226 28.9677 40.6412 28.9677 41.0323V44.5806H19.0323V41.0323ZM7.67742 33.9355C7.67742 32.7617 8.63265 31.8065 9.80645 31.8065C10.9803 31.8065 11.9355 32.7617 11.9355 33.9355C11.9355 35.1093 10.9803 36.0645 9.80645 36.0645C8.63265 36.0645 7.67742 35.1093 7.67742 33.9355ZM9.80645 37.4839C10.9412 37.4839 11.9852 38.0275 12.6437 38.9032H6.96916C7.62774 38.0275 8.67168 37.4839 9.80645 37.4839ZM4.83871 41.0323C4.83871 40.6412 5.15735 40.3226 5.54839 40.3226H14.0645C14.4555 40.3226 14.7742 40.6412 14.7742 41.0323V44.5806H4.83871V41.0323Z" fill="#154BEC"/>
<path d="M44.5806 23.2903V19.7419C44.5806 18.5681 43.6254 17.6129 42.4516 17.6129H41.6703C41.7171 17.3837 41.7419 17.1459 41.7419 16.9032C41.7419 14.9466 40.1501 13.3548 38.1935 13.3548C36.237 13.3548 34.6452 14.9466 34.6452 16.9032C34.6452 17.1459 34.67 17.3837 34.7168 17.6129H33.9355C32.7617 17.6129 31.8064 18.5681 31.8064 19.7419V23.2903H30.3871V19.7419C30.3871 18.5681 29.4319 17.6129 28.2581 17.6129H27.4767C27.5235 17.3837 27.5484 17.1459 27.5484 16.9032C27.5484 14.9466 25.9566 13.3548 24 13.3548C22.0434 13.3548 20.4516 14.9466 20.4516 16.9032C20.4516 17.1459 20.4765 17.3837 20.5233 17.6129H19.7419C18.5681 17.6129 17.6129 18.5681 17.6129 19.7419V23.2903H16.1935V19.7419C16.1935 18.5681 15.2383 17.6129 14.0645 17.6129H13.2832C13.33 17.3837 13.3548 17.1459 13.3548 16.9032C13.3548 14.9466 11.763 13.3548 9.80645 13.3548C7.84987 13.3548 6.25806 14.9466 6.25806 16.9032C6.25806 17.1459 6.2829 17.3837 6.32974 17.6129H5.54839C4.37458 17.6129 3.41935 18.5681 3.41935 19.7419V23.2903C2.63658 23.2903 2 23.9269 2 24.7097V38.9032H3.41935V24.7097H44.5806V38.9032H46V24.7097C46 23.9269 45.3634 23.2903 44.5806 23.2903ZM42.4516 19.0323C42.8426 19.0323 43.1613 19.3509 43.1613 19.7419V23.2903H43.1045C42.8724 21.6801 41.8697 20.3182 40.4794 19.5943C40.6774 19.4261 40.857 19.2402 41.0138 19.0323H42.4516ZM41.6703 23.2903H34.7168C35.0468 21.673 36.4797 20.4516 38.1935 20.4516C39.9074 20.4516 41.3403 21.673 41.6703 23.2903ZM38.1935 14.7742C39.3674 14.7742 40.3226 15.7294 40.3226 16.9032C40.3226 18.077 39.3674 19.0323 38.1935 19.0323C37.0197 19.0323 36.0645 18.077 36.0645 16.9032C36.0645 15.7294 37.0197 14.7742 38.1935 14.7742ZM33.2258 19.7419C33.2258 19.3509 33.5445 19.0323 33.9355 19.0323H35.3733C35.5301 19.2395 35.7097 19.4261 35.9077 19.5943C34.5174 20.3189 33.5146 21.6808 33.2826 23.2903H33.2258V19.7419ZM28.2581 19.0323C28.6491 19.0323 28.9677 19.3509 28.9677 19.7419V23.2903H28.911C28.6789 21.6801 27.6761 20.3182 26.2859 19.5943C26.4839 19.4261 26.6634 19.2402 26.8203 19.0323H28.2581ZM27.4767 23.2903H20.5233C20.8533 21.673 22.2861 20.4516 24 20.4516C25.7139 20.4516 27.1467 21.673 27.4767 23.2903ZM24 14.7742C25.1738 14.7742 26.129 15.7294 26.129 16.9032C26.129 18.077 25.1738 19.0323 24 19.0323C22.8262 19.0323 21.871 18.077 21.871 16.9032C21.871 15.7294 22.8262 14.7742 24 14.7742ZM19.0323 19.7419C19.0323 19.3509 19.3509 19.0323 19.7419 19.0323H21.1797C21.3366 19.2395 21.5161 19.4261 21.7141 19.5943C20.3239 20.3189 19.3211 21.6808 19.089 23.2903H19.0323V19.7419ZM14.0645 19.0323C14.4555 19.0323 14.7742 19.3509 14.7742 19.7419V23.2903H14.7174C14.4854 21.6801 13.4826 20.3182 12.0923 19.5943C12.2903 19.4261 12.4699 19.2402 12.6267 19.0323H14.0645ZM13.2832 23.2903H6.32974C6.65974 21.673 8.09258 20.4516 9.80645 20.4516C11.5203 20.4516 12.9532 21.673 13.2832 23.2903ZM9.80645 14.7742C10.9803 14.7742 11.9355 15.7294 11.9355 16.9032C11.9355 18.077 10.9803 19.0323 9.80645 19.0323C8.63265 19.0323 7.67742 18.077 7.67742 16.9032C7.67742 15.7294 8.63265 14.7742 9.80645 14.7742ZM4.83871 19.7419C4.83871 19.3509 5.15735 19.0323 5.54839 19.0323H6.98619C7.14303 19.2395 7.32258 19.4261 7.52058 19.5943C6.13032 20.3189 5.12755 21.6801 4.89548 23.2903H4.83871V19.7419Z" fill="#154BEC"/>
</svg>
