<svg width="48" height="48" viewBox="0 0 48 48" fill="none" xmlns="http://www.w3.org/2000/svg">
<path d="M32.8736 27.0643L26.3568 23.0601C26.2774 23.0112 26.1861 22.9781 26.0939 22.9637L24.0536 22.6037C23.6762 22.5369 23.3055 22.7966 23.2389 23.1741C23.1724 23.5515 23.4318 23.9222 23.8092 23.9888L25.7346 24.3285L32.1374 28.2627C32.45 28.4548 32.8787 28.3615 33.0862 28.0597C33.3087 27.7357 33.2082 27.2701 32.8736 27.0643Z" fill="#154BEC"/>
<path d="M47.7232 27.2898C47.4579 27.006 47.0129 26.991 46.7291 27.2561L43.8783 29.9205L30.8153 17.0316L47.6902 1.21703C47.9735 0.951441 47.9879 0.506409 47.7224 0.223096C47.4569 -0.0602172 47.0118 -0.0746547 46.7285 0.190846L29.32 16.5054C29.033 16.7744 29.027 17.2428 29.307 17.5192L30.4625 18.6591L30.0936 18.9848L22.3704 18.3197C22.2513 18.3096 22.1274 18.3301 22.0187 18.3803L15.8993 21.1673C15.8815 21.1628 15.8637 21.1583 15.8452 21.155L12.3253 20.5338L12.6099 19.8062C12.7506 19.4464 12.5748 19.0404 12.2161 18.8971L0.964626 14.3965C0.603875 14.2521 0.194749 14.4276 0.0505617 14.7883C-0.0937198 15.1489 0.0816868 15.5582 0.442344 15.7024L11.0458 19.9438L4.79713 35.9122L0.938188 34.5454C0.572 34.4158 0.170187 34.6074 0.0405304 34.9736C-0.089126 35.3396 0.102593 35.7416 0.468687 35.8712L4.96926 37.4652C5.32251 37.5903 5.72245 37.4072 5.85885 37.0585L6.90314 34.3898L9.63942 35.9231L9.33764 36.4123C8.48254 37.7982 8.91426 39.6215 10.3003 40.4767C11.0332 40.9289 11.943 41.0362 12.7621 40.7711C12.8934 41.6246 13.395 42.3862 14.1304 42.8399C14.8634 43.2922 15.7731 43.3994 16.5922 43.1343C16.7236 43.9878 17.225 44.7494 17.9605 45.2032C18.6957 45.6569 19.6007 45.7636 20.4225 45.4984C20.5541 46.3515 21.0554 47.1128 21.7907 47.5665C22.8593 48.2258 24.2738 48.1273 25.2371 47.3199C25.4799 47.1164 25.6889 46.8735 25.8552 46.6038L26.3349 45.8265L26.7299 46.0691C27.7999 46.7265 29.2141 46.6253 30.1759 45.8161C30.4183 45.6121 30.6268 45.3689 30.7926 45.0989C31.1223 44.5624 31.2587 43.9611 31.2227 43.3757C31.446 43.4294 31.6745 43.4583 31.9052 43.4583C32.9265 43.4583 33.8926 42.9197 34.4271 42.0499C34.749 41.5258 34.8961 40.9284 34.8588 40.327C35.0815 40.3804 35.3096 40.4091 35.5395 40.4091C36.5608 40.4091 37.527 39.8705 38.0614 39.0007C38.3836 38.4762 38.5306 37.8784 38.493 37.2765C38.7182 37.3302 38.9468 37.3582 39.1745 37.3582C40.1677 37.3582 41.1388 36.8581 41.6958 35.9517C42.5483 34.5641 42.1132 32.7416 40.7256 31.8891L40.2437 31.593L41.8598 29.9044L43.3716 31.396C43.6367 31.6574 44.0737 31.6632 44.3456 31.4092L47.6898 28.2838C47.9734 28.0186 47.9884 27.5736 47.7232 27.2898ZM13.1678 38.7755C12.7198 39.5014 11.7647 39.7275 11.0387 39.2798C10.3127 38.8318 10.0866 37.8768 10.5345 37.1508L14.4733 30.7673C14.9129 30.0548 15.8562 29.8218 16.5765 30.2473C17.3218 30.688 17.5275 31.7097 17.08 32.4351L13.1678 38.7755ZM16.9978 41.1388C16.5499 41.8647 15.5948 42.0909 14.8689 41.643C14.1517 41.2004 13.9214 40.2324 14.3646 39.5141L17.5156 34.4072C17.9552 33.6948 18.8985 33.4617 19.6187 33.8873C20.3641 34.3279 20.5697 35.3497 20.1222 36.075L16.9978 41.1388ZM20.8282 43.502C20.6111 43.8537 20.27 44.0999 19.868 44.1951C19.4657 44.2904 19.0507 44.2232 18.6991 44.0063C17.982 43.5637 17.7516 42.5955 18.1949 41.8773L20.5581 38.0472C20.9977 37.3347 21.9411 37.1017 22.6613 37.5272C23.4066 37.9678 23.6123 38.9896 23.1648 39.715L20.8282 43.502ZM26.2072 43.3551L24.6583 45.8654C24.2157 46.5825 23.2476 46.8127 22.5292 46.3695C21.8121 45.927 21.5819 44.9588 22.025 44.2406L23.6005 41.6872C24.0401 40.9749 24.9835 40.7415 25.7037 41.1673C26.449 41.6079 26.6547 42.6298 26.2072 43.3551ZM39.0176 30.8396L35.5318 28.6977C35.2086 28.4991 34.7631 28.6055 34.5646 28.9287C34.3659 29.252 34.4723 29.6974 34.7956 29.896L39.9891 33.0871C40.7158 33.5337 40.9438 34.4883 40.4973 35.2151C40.0507 35.9419 39.096 36.1699 38.3692 35.7234L32.7992 32.3007C32.4683 32.0973 32.0352 32.2009 31.832 32.5317C31.6287 32.8626 31.7321 33.2957 32.063 33.499L36.3548 36.1362C37.0729 36.5773 37.3049 37.5451 36.8631 38.2642C36.4219 38.9822 35.4541 39.2142 34.735 38.7724L30.8455 36.3824C30.5146 36.1791 30.0815 36.2826 29.8783 36.6134C29.675 36.9443 29.7785 37.3774 30.1093 37.5807L32.7206 39.1852C33.4386 39.6265 33.6707 40.5941 33.2288 41.3132C32.7876 42.0312 31.8199 42.2633 31.1008 41.8214C31.1008 41.8214 28.8043 40.4117 28.7828 40.4014C28.4617 40.2463 28.0691 40.3567 27.8786 40.6668C27.6754 40.9977 27.7788 41.4308 28.1096 41.634L29.0864 42.2342C29.8131 42.6808 30.041 43.6354 29.5945 44.3623C29.1533 45.0803 28.1855 45.3122 27.4665 44.8705L27.0739 44.6292L27.4045 44.0932C27.8272 43.4081 27.9584 42.5643 27.7643 41.7783C27.5729 41.0026 27.0953 40.3556 26.4199 39.9563C25.8928 39.6448 25.3032 39.5187 24.7291 39.5574C24.8369 39.0942 24.8374 38.6062 24.7219 38.1383C24.5305 37.3626 24.0529 36.7155 23.3775 36.3162C22.8504 36.0047 22.2608 35.8785 21.6867 35.9172C21.9767 34.6715 21.4428 33.3311 20.3351 32.6762C19.808 32.3648 19.2184 32.2386 18.6443 32.2772C18.9343 31.0315 18.4005 29.6911 17.2927 29.0362C15.9175 28.2233 14.1161 28.6685 13.277 30.0282L10.3792 34.7247L7.42064 33.0674L11.8023 21.8697L14.1881 22.2908C13.5095 23.1336 13.3187 24.3202 13.7969 25.3703C14.2917 26.4566 15.3666 27.0995 16.4892 27.0994C16.898 27.0994 17.3132 27.0141 17.709 26.8339L21.8272 24.9581C22.176 24.7993 22.3346 24.3755 22.1757 24.0267C22.0169 23.6781 21.593 23.5193 21.2443 23.6783L17.1259 25.5539C16.3498 25.9075 15.4304 25.5636 15.0767 24.7872C14.7232 24.0109 15.0671 23.0917 15.8434 22.738L22.4335 19.7366L30.2727 20.4117C30.2929 20.4135 30.313 20.4143 30.3331 20.4143C30.5037 20.4143 30.6694 20.3522 30.7985 20.2384L31.4658 19.6492L40.8582 28.9163L39.0176 30.8396Z" fill="#154BEC"/>
</svg>
