<svg width="48" height="48" viewBox="0 0 48 48" fill="none" xmlns="http://www.w3.org/2000/svg">
<path d="M9 4.5H10.5V6H9V4.5Z" fill="#121E28"/>
<path d="M12 4.5H13.5V6H12V4.5Z" fill="#121E28"/>
<path d="M15 4.5H16.5V6H15V4.5Z" fill="#121E28"/>
<path d="M9 15H10.5V16.5H9V15Z" fill="#121E28"/>
<path d="M9 18H10.5V25.5H9V18Z" fill="#121E28"/>
<path d="M2.32922 40.0854C2.39151 40.21 2.48726 40.3148 2.60573 40.388C2.7242 40.4612 2.86073 40.5 3 40.5H5.71125C5.3201 41.4279 5.1779 42.4418 5.2987 43.4415C5.4195 44.4412 5.79912 45.392 6.40003 46.2C6.46989 46.2931 6.56048 46.3688 6.66462 46.4208C6.76876 46.4729 6.8836 46.5 7.00003 46.5H45C45.1393 46.5 45.2758 46.4612 45.3943 46.388C45.5128 46.3148 45.6085 46.21 45.6708 46.0854C45.7331 45.9608 45.7595 45.8214 45.747 45.6826C45.7345 45.5439 45.6836 45.4114 45.6 45.3C45.0516 44.5629 44.7555 43.6687 44.7555 42.75C44.7555 41.8313 45.0516 40.9371 45.6 40.2C45.6836 40.0886 45.7345 39.9561 45.747 39.8174C45.7595 39.6786 45.7331 39.5392 45.6708 39.4146C45.6085 39.29 45.5128 39.1852 45.3943 39.112C45.2758 39.0388 45.1393 39 45 39H42.2887C42.589 38.2853 42.7432 37.5178 42.7422 36.7425C42.7412 35.9673 42.5849 35.2002 42.2827 34.4863C43.0257 34.4151 43.7156 34.0698 44.2179 33.5178C44.7203 32.9657 44.9991 32.2464 45 31.5V29.25C45 29.0511 44.921 28.8603 44.7803 28.7197C44.6397 28.579 44.4489 28.5 44.25 28.5H42V4.5C41.9991 3.70462 41.6827 2.94208 41.1203 2.37967C40.5579 1.81725 39.7954 1.50089 39 1.5H9C8.20462 1.50089 7.44208 1.81725 6.87967 2.37967C6.31725 2.94208 6.00089 3.70462 6 4.5V28.5H3.75C3.55109 28.5 3.36032 28.579 3.21967 28.7197C3.07902 28.8603 3 29.0511 3 29.25V31.5H4.5V30H17.6894C17.9273 29.9994 18.1629 30.0459 18.3827 30.1369C18.6024 30.228 18.8019 30.3617 18.9697 30.5303C19.2764 30.8387 19.6412 31.0832 20.043 31.2497C20.4449 31.4161 20.8757 31.5012 21.3107 31.5H26.6894C27.1243 31.5012 27.5552 31.4161 27.957 31.2497C28.3588 31.0832 28.7236 30.8387 29.0303 30.5303C29.1981 30.3617 29.3976 30.228 29.6174 30.1369C29.8372 30.0459 30.0728 29.9993 30.3107 30H43.5V31.5C43.4995 31.8977 43.3413 32.2789 43.0601 32.5601C42.7789 32.8413 42.3977 32.9995 42 33H3C2.86072 33 2.72418 33.0388 2.6057 33.112C2.48722 33.1852 2.39147 33.29 2.32918 33.4146C2.26689 33.5392 2.24052 33.6786 2.25303 33.8174C2.26554 33.9561 2.31643 34.0886 2.4 34.2C2.94837 34.9371 3.24452 35.8313 3.24452 36.75C3.24452 37.6687 2.94837 38.5629 2.4 39.3C2.31643 39.4114 2.26554 39.5439 2.25304 39.6827C2.24054 39.8214 2.26692 39.9609 2.32922 40.0854ZM27.9698 29.4697C27.8021 29.6383 27.6025 29.7721 27.3828 29.8631C27.163 29.9541 26.9273 30.0007 26.6894 30H21.3107C21.0728 30.0007 20.8372 29.9541 20.6174 29.8631C20.3976 29.772 20.1981 29.6383 20.0303 29.4697C19.7236 29.1613 19.3588 28.9168 18.957 28.7503C18.5552 28.5839 18.1243 28.4988 17.6894 28.5H7.5V4.5C7.50047 4.10232 7.65866 3.72106 7.93986 3.43986C8.22106 3.15866 8.60232 3.00047 9 3H39C39.3977 3.00047 39.7789 3.15866 40.0601 3.43986C40.3413 3.72106 40.4995 4.10232 40.5 4.5V28.5H30.3107C29.8757 28.4988 29.4449 28.5839 29.043 28.7503C28.6412 28.9168 28.2764 29.1613 27.9697 29.4697H27.9698ZM4.69256 37.5H19.428C19.3345 38.032 19.14 38.5412 18.855 39H4.28916C4.49067 38.5205 4.62637 38.0159 4.69256 37.5ZM36.105 39H25.7887C26.0881 38.2876 26.2423 37.5227 26.2423 36.75C26.2423 35.9773 26.0881 35.2124 25.7887 34.5H36.105C36.523 35.1761 36.7444 35.9552 36.7444 36.75C36.7444 37.5448 36.523 38.3239 36.105 39ZM27.4613 45H23.895C23.4771 44.3239 23.2557 43.5448 23.2557 42.75C23.2557 41.9552 23.4771 41.1761 23.895 40.5H27.4613C27.1619 41.2124 27.0077 41.9773 27.0077 42.75C27.0077 43.5227 27.1619 44.2876 27.4613 45ZM11.895 40.5H22.2113C21.9119 41.2124 21.7577 41.9773 21.7577 42.75C21.7577 43.5227 21.9119 44.2876 22.2113 45H11.895C11.4771 44.3239 11.2557 43.5448 11.2557 42.75C11.2557 41.9552 11.4771 41.1761 11.895 40.5ZM24.105 39H20.5387C20.8381 38.2876 20.9923 37.5227 20.9923 36.75C20.9923 35.9773 20.8381 35.2124 20.5387 34.5H24.105C24.523 35.1761 24.7444 35.9552 24.7444 36.75C24.7444 37.5448 24.523 38.3239 24.105 39ZM7.39472 40.5H10.2112C9.91192 41.2124 9.75774 41.9773 9.75774 42.75C9.75774 43.5227 9.91192 44.2876 10.2112 45H7.39472C6.9768 44.3239 6.75543 43.5448 6.75543 42.75C6.75543 41.9552 6.9768 41.1761 7.39472 40.5ZM29.1447 45C28.8597 44.5412 28.6652 44.032 28.5718 43.5H43.3075C43.3736 44.0159 43.5092 44.5205 43.7107 45H29.1447ZM43.3073 42H28.5721C28.6655 41.468 28.86 40.9588 29.145 40.5H43.7108C43.5093 40.9795 43.3736 41.4841 43.3075 42H43.3073ZM40.6051 39H37.7887C38.0881 38.2876 38.2423 37.5227 38.2423 36.75C38.2423 35.9773 38.0881 35.2124 37.7887 34.5H40.6054C41.0232 35.1761 41.2446 35.9552 41.2446 36.75C41.2446 37.5448 41.0232 38.3239 40.6054 39H40.6051ZM6 34.5H18.855C19.14 34.9588 19.3345 35.468 19.428 36H4.69256C4.62646 35.4841 4.49085 34.9795 4.28944 34.5H6Z" fill="#121E28"/>
<path d="M36.7503 20.1281V13.9041L37.8049 13.4353C37.9375 13.3764 38.0501 13.2803 38.1292 13.1586C38.2083 13.037 38.2504 12.895 38.2504 12.7499C38.2504 12.6048 38.2083 12.4628 38.1292 12.3412C38.0501 12.2195 37.9375 12.1234 37.8049 12.0645L24.3049 6.0645C24.2089 6.02191 24.1051 5.99991 24.0002 5.99991C23.8952 5.99991 23.7914 6.02191 23.6955 6.0645L10.1955 12.0645C10.0629 12.1234 9.95024 12.2195 9.87116 12.3412C9.79209 12.4628 9.75 12.6048 9.75 12.7499C9.75 12.895 9.79209 13.037 9.87116 13.1586C9.95024 13.2803 10.0629 13.3764 10.1955 13.4353L15.7503 15.904V24.75C15.7503 24.9489 15.8293 25.1397 15.97 25.2803C16.1106 25.421 16.3014 25.5 16.5003 25.5C18.8827 25.4978 21.2434 25.9526 23.4545 26.8398L23.7226 26.9466C23.9009 27.0177 24.0997 27.0177 24.2781 26.9466L24.5471 26.8394C26.7579 25.9524 29.1182 25.4978 31.5003 25.5C31.6992 25.5 31.89 25.421 32.0306 25.2803C32.1713 25.1397 32.2503 24.9489 32.2503 24.75V15.904L35.2503 14.5707V20.1281L33.7888 24.5128C33.7512 24.6255 33.741 24.7456 33.7589 24.8631C33.7768 24.9806 33.8224 25.0921 33.8919 25.1885C33.9614 25.2849 34.0527 25.3634 34.1585 25.4176C34.2643 25.4717 34.3814 25.5 34.5003 25.5H37.5003C37.6191 25.5 37.7363 25.4717 37.842 25.4176C37.9478 25.3634 38.0392 25.2849 38.1087 25.1885C38.1782 25.0921 38.2238 24.9806 38.2417 24.8631C38.2596 24.7456 38.2493 24.6255 38.2118 24.5128L36.7503 20.1281ZM24.0003 7.57069L28.5964 9.6134L25.5607 11.1313C25.1776 10.7619 24.6762 10.5398 24.1452 10.5044C23.6142 10.469 23.0878 10.6225 22.6591 10.9377C22.2303 11.253 21.9269 11.7097 21.8024 12.2272C21.6779 12.7446 21.7405 13.2894 21.9789 13.7651C22.2174 14.2409 22.6164 14.617 23.1054 14.827C23.5944 15.0369 24.1419 15.0672 24.6511 14.9124C25.1603 14.7576 25.5983 14.4277 25.8877 13.9811C26.1771 13.5345 26.2993 12.9999 26.2326 12.4719L30.3357 10.4203L30.3136 10.3762L35.6534 12.75L24.0003 17.9293L12.3472 12.75L24.0003 7.57069ZM24.7503 12.75C24.7503 12.8983 24.7063 13.0433 24.6239 13.1667C24.5415 13.29 24.4243 13.3861 24.2873 13.4429C24.1503 13.4997 23.9995 13.5145 23.854 13.4856C23.7085 13.4566 23.5748 13.3852 23.47 13.2803C23.3651 13.1754 23.2936 13.0418 23.2647 12.8963C23.2358 12.7508 23.2506 12.6 23.3074 12.463C23.3641 12.3259 23.4603 12.2088 23.5836 12.1264C23.7069 12.044 23.8519 12 24.0003 12C24.1991 12.0002 24.3898 12.0793 24.5304 12.2199C24.671 12.3605 24.7501 12.5512 24.7503 12.75ZM30.7503 24.0137C28.4348 24.0975 26.1511 24.5809 24.0003 25.4426C21.8494 24.5809 19.5658 24.0975 17.2503 24.0137V16.5708L23.6957 19.4354C23.7916 19.478 23.8954 19.5001 24.0004 19.5001C24.1053 19.5001 24.2091 19.478 24.3051 19.4354L30.7503 16.5708V24.0137ZM35.5409 24L36.0003 22.6219L36.4597 24H35.5409Z" fill="#121E28"/>
</svg>
