<svg width="32" height="32" viewBox="0 0 32 32" fill="none" xmlns="http://www.w3.org/2000/svg">
<path d="M18.3998 28.7H13.6998L13.2998 24.9C12.6998 24.7 12.1998 24.5 11.5998 24.2L8.6998 26.6L5.3998 23.3L7.7998 20.4C7.4998 19.9 7.2998 19.3 7.0998 18.7L3.2998 18.3V13.6L7.0998 13.2C7.2998 12.6 7.4998 12.1 7.7998 11.5L5.3998 8.60001L8.6998 5.30001L11.5998 7.70001C12.0998 7.40001 12.6998 7.20001 13.2998 7.00001L13.6998 3.20001H18.3998L18.7998 6.90001C19.3998 7.10001 19.8998 7.30001 20.4998 7.60001L23.3998 5.20001L26.6998 8.50001L24.2998 11.4C24.5998 11.9 24.7998 12.5 24.9998 13.1L28.7998 13.5V18.2L25.0998 18.6C24.8998 19.2 24.6998 19.7 24.3998 20.3L26.7998 23.2L23.3998 26.5L20.4998 24.1C19.9998 24.4 19.3998 24.6 18.7998 24.8L18.3998 28.7ZM14.5998 27.7H17.4998L17.8998 24.2L18.1998 24.1C18.8998 23.9 19.5998 23.6 20.1998 23.3L20.4998 23.1L23.2998 25.3L25.3998 23.2L23.1998 20.4L23.3998 20.1C23.7998 19.5 24.0998 18.8 24.2998 18.1L24.3998 17.8L27.8998 17.4V14.5L24.3998 14.1L24.2998 13.8C24.0998 13.1 23.7998 12.4 23.3998 11.8L23.1998 11.5L25.3998 8.70001L23.2998 6.60001L20.4998 8.80001L20.1998 8.60001C19.5998 8.20001 18.8998 7.90001 18.1998 7.70001L17.8998 7.60001L17.4998 4.10001H14.5998L14.1998 7.60001L13.8998 7.70001C13.1998 7.90001 12.4998 8.20001 11.8998 8.50001L11.5998 8.70001L8.7998 6.60001L6.6998 8.70001L8.9998 11.4L8.7998 11.7C8.3998 12.3 8.0998 13 7.89981 13.7L7.7998 14L4.2998 14.4V17.3L7.7998 17.7L7.89981 18C8.0998 18.7 8.3998 19.4 8.7998 20L8.9998 20.5L6.6998 23.3L8.7998 25.4L11.5998 23.2L11.8998 23.4C12.4998 23.8 13.1998 24.1 13.9998 24.3L14.2998 24.4L14.5998 27.7Z" fill="#121E28"/>
<path d="M15.9999 23.1C12.0999 23.1 8.8999 19.9 8.8999 16C8.8999 12.1 12.0999 8.90002 15.9999 8.90002C19.8999 8.90002 23.0999 12.1 23.0999 16C23.0999 19.9 19.8999 23.1 15.9999 23.1ZM15.9999 9.80002C12.5999 9.80002 9.8999 12.5 9.8999 15.9C9.8999 19.3 12.5999 22 15.9999 22C19.3999 22 22.0999 19.3 22.0999 15.9C22.0999 12.6 19.3999 9.80002 15.9999 9.80002Z" fill="#121E28"/>
<path d="M16.0893 16.776C16.2757 15.9686 16.6692 15.3655 17.3111 14.9056C18.0255 14.3945 18.7503 13.8835 19.4337 13.3315C19.5994 13.1987 19.765 13.0556 19.9203 12.9125C20.0756 12.7796 20.2102 12.6263 20.3138 12.4525C20.3656 12.4628 20.3759 12.4934 20.3863 12.5241C20.6244 13.0147 20.8522 13.5155 21.1007 14.0061C21.1628 14.1186 21.1318 14.2003 21.0593 14.2923C20.8729 14.4967 20.6658 14.6705 20.4587 14.8443C19.8479 15.3451 19.1955 15.7948 18.5536 16.265C18.0048 16.6636 17.4561 17.052 16.9384 17.4813C16.6381 17.7266 16.3378 17.9719 16.0893 18.2785C15.4267 17.5426 14.6087 16.9907 13.8218 16.4081C13.097 15.8664 12.3411 15.3553 11.6371 14.7829C11.4507 14.6296 11.254 14.4661 11.0987 14.2821C11.0365 14.2106 10.9951 14.1492 11.0469 14.047C11.3057 13.5155 11.5542 12.984 11.8131 12.4423C12.3826 13.1476 13.1177 13.628 13.8218 14.1595C14.1842 14.4354 14.5569 14.6909 14.9193 14.9567C15.4784 15.3655 15.8408 15.9072 16.0168 16.5716C16.0376 16.6227 16.0583 16.684 16.0893 16.776Z" fill="#FF1919"/>
<path d="M10.7465 14.6705C11.3056 15.3145 11.9683 15.7846 12.6206 16.265C13.4179 16.8476 14.2255 17.4098 15.0124 18.023C15.1056 18.0946 15.2091 18.1763 15.3023 18.2581C15.6026 18.5034 15.8925 18.7589 16.0789 19.1473C16.462 18.4625 17.0936 18.0843 17.663 17.6551C18.305 17.1645 18.9677 16.7045 19.62 16.2241C20.2516 15.7642 20.8832 15.294 21.4112 14.691C21.5251 14.8545 21.5769 15.018 21.6597 15.1714C21.7011 15.2429 21.6597 15.294 21.6287 15.3553C21.5562 15.478 21.4526 15.57 21.3491 15.662C21.1317 15.8562 20.9039 16.0299 20.6657 16.1935C19.7442 16.8578 18.8124 17.512 17.8908 18.1763C17.7666 18.2581 17.6527 18.3501 17.5388 18.4523C17.2385 18.7181 17.0315 19.0247 16.9693 19.4233C16.9486 19.5255 16.9176 19.5664 16.814 19.5562C16.3377 19.5562 15.8511 19.5562 15.3748 19.5562C15.3023 19.5562 15.2505 19.546 15.2402 19.454C15.1677 18.9225 14.8364 18.5545 14.4119 18.2581C13.8527 17.8595 13.304 17.4609 12.7449 17.052C12.2272 16.6738 11.6991 16.3059 11.1814 15.9277C10.9743 15.7744 10.7879 15.6109 10.6119 15.4167C10.5187 15.3042 10.4877 15.202 10.5705 15.0589C10.6223 14.9567 10.674 14.8238 10.7465 14.6705Z" fill="#FF1919"/>
</svg>
