<svg width="32" height="32" viewBox="0 0 32 32" fill="none" xmlns="http://www.w3.org/2000/svg">
<path d="M26.6832 22.6169V11.1168C26.6832 10.9476 26.6022 10.7885 26.4655 10.689L25.1598 9.73967L26.1878 9.09718C26.3353 9.00504 26.4281 8.84617 26.4359 8.67243C26.4436 8.49868 26.3655 8.33217 26.2269 8.22722L25.2728 7.50436V7.16783H26.1544C26.4465 7.16783 26.6832 6.93108 26.6832 6.63896V5.58122C26.6832 3.86073 25.2834 2.46088 23.5629 2.46088H5.52839C5.52302 2.46088 5.51806 2.4615 5.5129 2.4617C5.50071 2.4615 5.48893 2.46088 5.47674 2.46088C4.64398 2.46088 3.8703 2.8722 3.29825 3.61923C2.75822 4.32432 2.46094 5.25398 2.46094 6.23693C2.46094 8.00411 3.61764 9.44197 5.03939 9.44197H7.96533V17.8246C7.96533 18.0039 8.05602 18.1708 8.20642 18.2683L9.2433 18.9406L8.14176 19.9248C8.02958 20.025 7.96533 20.1686 7.96533 20.3192V24.9026C7.96533 24.9311 7.96822 24.959 7.97256 24.9862C7.96822 25.0137 7.96533 25.0416 7.96533 25.0701C7.96533 26.4156 8.31281 27.5482 8.96998 28.3452C9.60483 29.1149 10.5076 29.5391 11.5119 29.5391H26.0486C27.9734 29.5391 29.5391 27.9733 29.5391 26.0485C29.5391 24.3406 28.3058 22.9162 26.6832 22.6169ZM6.80161 8.38423C6.95737 8.09067 7.04559 7.75186 7.04559 7.38785C7.04559 6.16855 6.25579 5.31678 5.12471 5.31678C4.83259 5.31678 4.59584 5.55353 4.59584 5.84565C4.59584 6.13777 4.83259 6.37452 5.12471 6.37452C5.66515 6.37452 5.98785 6.75341 5.98785 7.38785C5.98785 8.0351 5.49905 8.38423 5.03939 8.38423C4.2151 8.38423 3.51868 7.40086 3.51868 6.23693C3.51868 4.73812 4.3971 3.51862 5.47674 3.51862C6.2246 3.51862 6.80925 3.75103 7.21396 4.20925C7.71267 4.77345 7.96533 5.68885 7.96533 6.92984V8.38423H6.80161ZM9.78601 27.6721C9.28689 27.0668 9.02307 26.1671 9.02307 25.0701C9.02307 25.0416 9.02018 25.0137 9.01584 24.9862C9.02018 24.959 9.02307 24.9311 9.02307 24.9026V20.5557L10.4642 19.2678C10.5872 19.1581 10.652 18.9972 10.6392 18.8327C10.6266 18.6685 10.538 18.5193 10.3998 18.4297L9.02307 17.5372V6.92984C9.02307 5.42937 8.68364 4.28197 8.01491 3.51862H23.5629C24.7002 3.51862 25.6255 4.44394 25.6255 5.58122V6.11009H24.744C24.4521 6.11009 24.2151 6.34684 24.2151 6.63896V7.76715C24.2151 7.93283 24.2928 8.08881 24.4248 8.1888L24.9766 8.60694L23.935 9.2579C23.7858 9.35108 23.6928 9.51222 23.6866 9.68782C23.6804 9.86342 23.762 10.0308 23.9042 10.1341L25.6255 11.386V22.558H12.1798C12.1537 22.558 12.1281 22.5605 12.1029 22.5642C12.0521 22.5605 12.0009 22.558 11.949 22.558C10.8241 22.558 9.94281 23.4604 9.94281 24.6121C9.94281 25.8316 10.7326 26.6832 11.8637 26.6832C12.1558 26.6832 12.3926 26.4464 12.3926 26.1543C12.3926 25.8622 12.1558 25.6254 11.8637 25.6254C11.3232 25.6254 11.0006 25.2465 11.0006 24.6121C11.0006 23.9649 11.4893 23.6157 11.949 23.6157C12.7733 23.6157 13.4697 24.5991 13.4697 25.763C13.4697 27.2618 12.5915 28.4813 11.5119 28.4813C10.8194 28.4813 10.2225 28.2016 9.78601 27.6721ZM26.0486 28.4813H13.6092C13.6364 28.4483 13.6637 28.4152 13.6902 28.3807C14.1971 27.7188 14.4901 26.8588 14.5242 25.9428H22.7696C23.0617 25.9428 23.2985 25.706 23.2985 25.4139C23.2985 25.1218 23.0617 24.885 22.7696 24.885H14.4283C14.3188 24.4074 14.1225 23.9746 13.8614 23.6157H26.0486C27.39 23.6157 28.4814 24.7071 28.4814 26.0485C28.4814 27.3899 27.39 28.4813 26.0486 28.4813Z" fill="#121E28"/>
<path d="M12.4756 7.64386C12.6147 7.64386 12.7506 7.58726 12.8496 7.48892C12.9479 7.39058 13.0045 7.25403 13.0045 7.11499C13.0045 6.97596 12.9479 6.8394 12.8496 6.74106C12.7506 6.64273 12.6147 6.58612 12.4756 6.58612C12.336 6.58612 12.2001 6.64273 12.1017 6.74106C12.0034 6.8394 11.9468 6.97596 11.9468 7.11499C11.9468 7.25403 12.0034 7.39058 12.1017 7.48892C12.2001 7.58726 12.336 7.64386 12.4756 7.64386Z" fill="#121E28"/>
<path d="M14.7305 7.64386H22.3651C22.6572 7.64386 22.8939 7.40711 22.8939 7.11499C22.8939 6.82287 22.6572 6.58612 22.3651 6.58612H14.7305C14.4384 6.58612 14.2017 6.82287 14.2017 7.11499C14.2017 7.40711 14.4384 7.64386 14.7305 7.64386Z" fill="#121E28"/>
<path d="M12.4756 10.6055H22.3655C22.6577 10.6055 22.8944 10.3688 22.8944 10.0767C22.8944 9.78454 22.6577 9.54779 22.3655 9.54779H12.4756C12.1837 9.54779 11.9468 9.78454 11.9468 10.0767C11.9468 10.3688 12.1837 10.6055 12.4756 10.6055Z" fill="#121E28"/>
<path d="M17.5829 16.897C17.7716 16.0795 18.1699 15.469 18.8198 15.0034C19.5431 14.486 20.2769 13.9686 20.9688 13.4098C21.1365 13.2753 21.3042 13.1304 21.4614 12.9855C21.6187 12.851 21.755 12.6958 21.8598 12.5199C21.9122 12.5302 21.9227 12.5613 21.9332 12.5923C22.1743 13.089 22.4049 13.596 22.6565 14.0927C22.7194 14.2066 22.6879 14.2894 22.6145 14.3825C22.4258 14.5894 22.2162 14.7654 22.0065 14.9413C21.3881 15.4483 20.7277 15.9036 20.0777 16.3796C19.5222 16.7832 18.9666 17.1764 18.4424 17.611C18.1385 17.8594 17.8345 18.1077 17.5829 18.4182C16.912 17.6731 16.0839 17.1143 15.2872 16.5245C14.5534 15.9761 13.7882 15.4587 13.0754 14.8792C12.8867 14.724 12.6875 14.5584 12.5303 14.3721C12.4674 14.2997 12.4254 14.2376 12.4778 14.1341C12.7399 13.596 12.9915 13.058 13.2536 12.5095C13.8301 13.2235 14.5744 13.7099 15.2872 14.248C15.6541 14.5274 16.0314 14.7861 16.3983 15.0551C16.9644 15.469 17.3313 16.0175 17.5095 16.6901C17.5305 16.7418 17.5514 16.8039 17.5829 16.897Z" fill="#FF1919"/>
<path d="M12.1736 14.7654C12.7397 15.4173 13.4106 15.8933 14.071 16.3797C14.8781 16.9695 15.6958 17.5386 16.4925 18.1595C16.5868 18.2319 16.6916 18.3147 16.786 18.3975C17.09 18.6458 17.3835 18.9045 17.5722 19.2978C17.96 18.6044 18.5995 18.2216 19.176 17.787C19.8259 17.2903 20.4968 16.8246 21.1572 16.3383C21.7967 15.8726 22.4361 15.3966 22.9707 14.7861C23.086 14.9516 23.1384 15.1172 23.2223 15.2724C23.2642 15.3449 23.2223 15.3966 23.1908 15.4587C23.1175 15.5829 23.0126 15.676 22.9078 15.7691C22.6877 15.9657 22.4571 16.1416 22.216 16.3072C21.283 16.9798 20.3396 17.6421 19.4066 18.3147C19.2808 18.3975 19.1655 18.4906 19.0502 18.5941C18.7462 18.8631 18.5366 19.1736 18.4737 19.5771C18.4527 19.6806 18.4213 19.722 18.3164 19.7117C17.8342 19.7117 17.3415 19.7117 16.8593 19.7117C16.786 19.7117 16.7336 19.7013 16.7231 19.6082C16.6497 19.0701 16.3143 18.6976 15.8845 18.3975C15.3184 17.9939 14.7628 17.5904 14.1968 17.1764C13.6726 16.7936 13.138 16.421 12.6139 16.0382C12.4042 15.883 12.2156 15.7174 12.0373 15.5208C11.943 15.4069 11.9116 15.3035 11.9954 15.1586C12.0478 15.0551 12.1002 14.9206 12.1736 14.7654Z" fill="#FF1919"/>
<path d="M24.8257 24.885C24.6865 24.885 24.5502 24.9416 24.4518 25.04C24.3535 25.1383 24.2969 25.2748 24.2969 25.4139C24.2969 25.5529 24.3533 25.6895 24.4518 25.7878C24.5502 25.8861 24.6865 25.9428 24.8257 25.9428C24.9648 25.9428 25.1011 25.8861 25.1995 25.7878C25.298 25.6895 25.3546 25.5529 25.3546 25.4139C25.3546 25.2748 25.298 25.1383 25.1995 25.04C25.1011 24.9416 24.9648 24.885 24.8257 24.885Z" fill="#121E28"/>
</svg>
