<svg width="48" height="48" viewBox="0 0 48 48" fill="none" xmlns="http://www.w3.org/2000/svg">
<path d="M43.0928 8.90738C42.0835 7.89788 40.7411 7.34203 39.3128 7.34203H25.0638V5.4855C26.248 5.16206 27.1213 4.07747 27.1213 2.79216C27.1212 1.25259 25.8687 0 24.329 0C22.7894 0 21.5369 1.25259 21.5369 2.79216C21.5369 4.07747 22.4101 5.16206 23.5942 5.4855V7.34194H12.8037C7.94931 7.34194 4 11.2913 4 16.1456V37.6875H7.22519V36.218H5.46962V16.1456C5.46962 12.1015 8.75969 8.81147 12.8038 8.81147H13.9558C16.0928 8.81147 17.8314 10.5501 17.8314 12.6872C17.8314 14.8242 16.0928 16.5628 13.9558 16.5628V16.5629H10.0802V13.422H16.4466V11.9525H8.61053V21.3415H10.0801V18.0326H38.5781V39.7587L32.8455 45.4913V40.7979H37.1932V39.3284H31.3758V46.5307H10.0801V30.1324H8.61053V48H32.415L40.0476 40.3673V17.9809C42.6483 17.6215 44.6581 15.3853 44.6581 12.6873C44.6581 11.259 44.1021 9.91669 43.0928 8.90738ZM23.0064 2.79216C23.0064 2.06288 23.5997 1.46953 24.329 1.46953C25.0583 1.46953 25.6517 2.06288 25.6517 2.79216C25.6517 3.52144 25.0583 4.11478 24.329 4.11478C23.5997 4.11478 23.0064 3.52144 23.0064 2.79216ZM39.3127 16.5631H17.631C18.6583 15.5884 19.301 14.2118 19.301 12.6873C19.301 11.1627 18.6585 9.78638 17.6312 8.81156H39.3129C40.3487 8.81156 41.3221 9.2145 42.0539 9.9465C42.7856 10.6782 43.1887 11.6516 43.1887 12.6874C43.1884 14.8243 41.4498 16.5631 39.3127 16.5631Z" fill="#154BEC"/>
<path d="M29.5752 21.329V27.0351H35.2813V21.329H29.5752ZM33.8118 25.5656H31.0447V22.7986H33.8118V25.5656Z" fill="#154BEC"/>
<path d="M13.377 37.5277V43.2338H19.083V37.5277H13.377ZM17.6136 41.7643H14.8466V38.9973H17.6136V41.7643Z" fill="#154BEC"/>
<path d="M21.4756 21.329V27.0351H27.1817V21.329H21.4756ZM25.7121 25.5656H22.9451V22.7986H25.7121V25.5656Z" fill="#154BEC"/>
<path d="M21.4756 37.5277V43.2338H27.1817V37.5277H21.4756ZM25.7121 41.7643H22.9451V38.9973H25.7121V41.7643Z" fill="#154BEC"/>
<path d="M21.4756 29.4284V35.1345H27.1817V29.4284H21.4756ZM25.7121 33.665H22.9451V30.8979H25.7121V33.665Z" fill="#154BEC"/>
<path d="M13.377 29.4284V35.1345H19.083V29.4284H13.377ZM17.6136 33.665H14.8466V30.8979H17.6136V33.665Z" fill="#154BEC"/>
<path d="M29.5752 29.4284V35.1345H35.2813V29.4284H29.5752ZM33.8118 33.665H31.0447V30.8979H33.8118V33.665Z" fill="#154BEC"/>
<path d="M10.0809 23.1947H8.61133V24.7834H10.0809V23.1947Z" fill="#154BEC"/>
<path d="M10.0809 26.6906H8.61133V28.2793H10.0809V26.6906Z" fill="#154BEC"/>
</svg>
