<svg width="32" height="32" viewBox="0 0 32 32" fill="none" xmlns="http://www.w3.org/2000/svg">
<path d="M22.7833 12.0324L19.0957 2.61963C18.8907 2.11805 18.3226 1.87214 17.8166 2.06593L8.40385 5.75353C7.89777 5.95383 7.64992 6.52649 7.85015 7.03256L11.5654 16.4453C11.7657 16.9514 12.3384 17.1993 12.8445 16.999L22.2296 13.3114C22.7356 13.1111 22.9835 12.5385 22.7833 12.0324ZM12.551 15.9193L8.952 6.76125L18.1101 3.15671L21.7091 12.3203L12.551 15.9193Z" fill="#08084E"/>
<path d="M13.6914 17.9403H3.60862C3.06427 17.9403 2.62305 18.3815 2.62305 18.9259V29.0142C2.62305 29.5585 3.06427 29.9997 3.60862 29.9997H13.6914C14.2357 29.9997 14.6769 29.5585 14.6769 29.0142V18.9259C14.6769 18.3815 14.2357 17.9403 13.6914 17.9403ZM13.5696 28.8868H3.73043V19.0477H13.5696V28.8868Z" fill="#08084E"/>
<path d="M28.58 17.885L18.835 15.2937C18.3037 15.164 17.7665 15.4843 17.628 16.0135L15.0367 25.7585C14.8959 26.2843 15.2081 26.8246 15.7339 26.9654C15.734 26.9655 15.7342 26.9655 15.7344 26.9655L25.4794 29.5568C26.0052 29.6976 26.5455 29.3854 26.6863 28.8596C26.6863 28.8595 26.6863 28.8593 26.6864 28.8592L29.2555 19.092C29.3979 18.5727 29.0971 18.0352 28.58 17.885ZM25.651 28.4051L16.1386 25.908L18.6689 16.4011L28.1758 18.9314L25.651 28.4051Z" fill="#08084E"/>
<path d="M18.6248 10.626C18.5243 10.4347 18.3912 10.2624 18.2317 10.1166L15.4632 7.19868L15.1365 6.84431C15.0545 6.75918 14.9635 6.68312 14.8652 6.6173C14.7659 6.54968 14.6521 6.50608 14.533 6.48995C14.2497 6.47015 13.9726 6.58013 13.78 6.78894C13.7039 6.88238 13.6508 6.99236 13.625 7.11009C13.5969 7.24851 13.5839 7.38963 13.5862 7.53089C13.5862 7.69146 13.5862 7.82989 13.5862 7.94616V11.977C13.5973 12.1432 13.6065 12.2705 13.6139 12.3591C13.6181 12.4424 13.6349 12.5245 13.6637 12.6027C13.7176 12.7326 13.8244 12.8334 13.9572 12.8796C14.092 12.9349 14.2432 12.9349 14.378 12.8796C14.5151 12.8406 14.6246 12.7373 14.6714 12.6027C14.713 12.3895 14.7279 12.1718 14.7157 11.9549V11.1631L16.9028 10.3049L17.4233 10.8586L17.6614 11.0967C17.7292 11.1684 17.8054 11.2316 17.8884 11.2849C17.9507 11.3224 18.0208 11.3451 18.0933 11.3514C18.1746 11.3573 18.2561 11.344 18.3314 11.3126C18.4615 11.2592 18.5664 11.1582 18.6248 11.0302C18.6799 10.9012 18.6799 10.7551 18.6248 10.626ZM14.6659 10.2218L14.5884 7.70807L16.2716 9.59063L14.6659 10.2218Z" fill="#08084E"/>
<path d="M10.0315 23.5382C10.559 23.3412 10.9051 22.8332 10.8953 22.2702C10.8958 22.1079 10.8676 21.9467 10.8123 21.7941C10.7579 21.6427 10.6773 21.5021 10.5742 21.3788C10.4725 21.2559 10.3508 21.1511 10.2143 21.0687C10.0444 20.967 9.8563 20.8994 9.66057 20.8694C9.42421 20.8333 9.18536 20.8167 8.94631 20.8196H7.10805C6.90865 20.7978 6.7089 20.8577 6.55435 20.9857C6.42804 21.141 6.36838 21.3401 6.38825 21.5394V25.8803C6.36804 26.0787 6.42555 26.2772 6.54882 26.434C6.70323 26.5666 6.90588 26.6288 7.10805 26.6057H8.87433C9.13214 26.5977 9.38912 26.5736 9.64396 26.5337C9.85291 26.5091 10.0578 26.457 10.253 26.3786C10.5264 26.2648 10.7597 26.072 10.923 25.8249C11.0898 25.5639 11.1764 25.2598 11.1722 24.9501C11.1849 24.2651 10.7039 23.6698 10.0315 23.5382ZM7.56761 21.711H8.49228C8.81439 21.6944 9.1365 21.7433 9.43909 21.855C9.64846 21.9561 9.77235 22.1773 9.74916 22.4087C9.75041 22.5391 9.71594 22.6674 9.6495 22.7796C9.57336 22.9284 9.44228 23.0416 9.28406 23.0952C9.06473 23.1586 8.83668 23.1867 8.60855 23.1783H7.53993L7.56761 21.711ZM9.98171 24.8726C9.98171 25.441 9.58672 25.7253 8.79681 25.7253H7.53993L7.56761 24.0421H8.76913C9.08805 24.0219 9.40629 24.0909 9.68826 24.2414C9.89153 24.3844 10.0033 24.625 9.98171 24.8726Z" fill="#08084E"/>
<path d="M22.1699 22.7929C22.4535 22.2319 22.8526 21.859 23.4089 21.6365C24.0278 21.3895 24.6543 21.1445 25.2578 20.8617C25.4039 20.7939 25.5518 20.7185 25.6922 20.6412C25.8307 20.5715 25.9576 20.483 26.0654 20.3737C26.1017 20.3907 26.1037 20.4151 26.1058 20.4396C26.1923 20.8441 26.2693 21.2544 26.3635 21.6608C26.3889 21.7549 26.3512 21.8095 26.2811 21.8641C26.1068 21.9809 25.9227 22.0714 25.7387 22.1618C25.1979 22.42 24.6359 22.6331 24.0778 22.8631C23.6013 23.0573 23.1266 23.2439 22.6675 23.4663C22.4018 23.5926 22.1362 23.7189 21.8976 23.8997C21.5428 23.2375 21.0403 22.6827 20.5662 22.1109C20.1305 21.5805 19.6663 21.067 19.2514 20.5178C19.1419 20.3711 19.0267 20.2149 18.9456 20.0513C18.9128 19.9873 18.8934 19.9346 18.9501 19.8687C19.2371 19.5241 19.5165 19.1776 19.8053 18.8255C20.097 19.4482 20.5515 19.9353 20.9738 20.4545C21.1907 20.7234 21.419 20.9792 21.6378 21.2407C21.9755 21.6432 22.1443 22.1079 22.1535 22.6292C22.1595 22.6706 22.1637 22.7195 22.1699 22.7929Z" fill="#E61E2A"/>
<path d="M18.6157 20.2736C18.9109 20.8493 19.3138 21.3158 19.7073 21.7879C20.189 22.3615 20.682 22.922 21.1505 23.5164C21.2062 23.586 21.2676 23.665 21.3215 23.7421C21.4982 23.9772 21.6654 24.218 21.7323 24.5379C22.1387 24.1029 22.6725 23.9388 23.1698 23.7258C23.7316 23.4807 24.3031 23.262 24.8707 23.0264C25.4193 22.802 25.9697 22.5702 26.468 22.2216C26.5223 22.3628 26.5308 22.4926 26.564 22.6206C26.5816 22.6808 26.5418 22.7109 26.5078 22.7504C26.4322 22.8277 26.3392 22.8767 26.2463 22.9257C26.0509 23.0293 25.8516 23.116 25.6466 23.1933C24.8473 23.5157 24.0423 23.8287 23.2431 24.151C23.1367 24.1887 23.0362 24.2359 22.9337 24.2905C22.6644 24.4318 22.4563 24.6202 22.3383 24.9026C22.3045 24.9741 22.2742 24.9986 22.1998 24.9723C21.8489 24.886 21.4904 24.7978 21.1396 24.7114C21.0862 24.6983 21.0499 24.6814 21.059 24.6118C21.1019 24.2071 20.9245 23.876 20.6655 23.5807C20.3259 23.1857 19.9939 22.7926 19.6561 22.3901C19.3433 22.0177 19.021 21.651 18.7082 21.2785C18.5835 21.1281 18.4758 20.9738 18.3813 20.7989C18.3331 20.6992 18.3287 20.6182 18.4157 20.5278C18.4723 20.4619 18.5346 20.3734 18.6157 20.2736Z" fill="#E61E2A"/>
</svg>
