<svg width="32" height="32" viewBox="0 0 32 32" fill="none" xmlns="http://www.w3.org/2000/svg">
<path d="M21.0002 7.00001L16.0002 3.20001L11.0002 7.00001H3.2002V28.8H28.8002V7.00001H21.0002ZM16.0002 4.40001L19.5002 7.00001H12.6002L16.0002 4.40001ZM27.9002 8.00001V23.6L22.2002 18.5L19.0002 21.2L12.9002 15.8L4.2002 23.5V8.00001H27.9002ZM4.2002 27.8V24.7L12.9002 17L19.0002 22.4L22.1002 19.7L27.8002 24.8V27.9L4.2002 27.8Z" fill="#121E28"/>
<path d="M18.9505 14.4166C19.199 13.3401 19.7236 12.5362 20.5794 11.923C21.5319 11.2417 22.4981 10.5603 23.4092 9.82451C23.6301 9.64737 23.8509 9.4566 24.058 9.26583C24.265 9.08868 24.4445 8.88428 24.5825 8.65263C24.6515 8.66626 24.6653 8.70714 24.6792 8.74802C24.9966 9.40209 25.3003 10.0698 25.6316 10.7239C25.7144 10.8737 25.673 10.9828 25.5764 11.1054C25.3279 11.3779 25.0519 11.6096 24.7758 11.8412C23.9613 12.5089 23.0917 13.1085 22.2359 13.7353C21.5043 14.2667 20.7727 14.7845 20.0825 15.3569C19.6821 15.6839 19.2818 16.0109 18.9505 16.4197C18.0671 15.4386 16.9766 14.7028 15.9275 13.9261C14.9612 13.2039 13.9535 12.5226 13.0149 11.7595C12.7664 11.5551 12.5041 11.3371 12.2971 11.0918C12.2142 10.9964 12.159 10.9146 12.228 10.7784C12.5731 10.0698 12.9044 9.36121 13.2495 8.63901C14.0087 9.57923 14.9888 10.2197 15.9275 10.9283C16.4106 11.2962 16.9076 11.6368 17.3907 11.9911C18.1361 12.5362 18.6192 13.2584 18.8539 14.1441C18.8815 14.2122 18.9091 14.294 18.9505 14.4166Z" fill="#FF1919"/>
<path d="M11.8275 11.6096C12.5729 12.4681 13.4564 13.0949 14.326 13.7354C15.3889 14.5121 16.4656 15.2615 17.5147 16.0791C17.639 16.1745 17.777 16.2835 17.9012 16.3925C18.3016 16.7196 18.6881 17.0602 18.9365 17.578C19.4473 16.665 20.2893 16.1609 21.0485 15.5886C21.9044 14.9345 22.7878 14.3213 23.6575 13.6808C24.4995 13.0677 25.3415 12.4408 26.0455 11.6369C26.1974 11.8549 26.2664 12.0729 26.3768 12.2773C26.432 12.3727 26.3768 12.4408 26.3354 12.5226C26.2388 12.6861 26.1007 12.8087 25.9627 12.9314C25.6728 13.1903 25.3691 13.4219 25.0517 13.64C23.8231 14.5257 22.5808 15.3978 21.3522 16.2835C21.1866 16.3925 21.0347 16.5152 20.8829 16.6514C20.4826 17.0057 20.2065 17.4145 20.1237 17.9459C20.0961 18.0822 20.0546 18.1367 19.9166 18.1231C19.2816 18.1231 18.6328 18.1231 17.9979 18.1231C17.9012 18.1231 17.8322 18.1095 17.8184 17.9868C17.7218 17.2782 17.2801 16.7877 16.7141 16.3925C15.9687 15.8611 15.2371 15.3296 14.4917 14.7846C13.8015 14.2804 13.0975 13.7899 12.4073 13.2857C12.1312 13.0813 11.8827 12.8633 11.6481 12.6044C11.5238 12.4545 11.4824 12.3182 11.5929 12.1274C11.6619 11.9912 11.7309 11.814 11.8275 11.6096Z" fill="#FF1919"/>
</svg>
