<svg width="32" height="32" viewBox="0 0 32 32" fill="none" xmlns="http://www.w3.org/2000/svg">
<path d="M25.9386 8.74664C24.8623 8.66401 23.6444 8.4195 22.3187 8.02002C20.726 7.53996 19.1801 7.61407 17.7236 8.24014C17.5181 8.32844 17.4233 8.56653 17.5115 8.77196C17.5998 8.97728 17.8376 9.07239 18.0433 8.98403C19.3199 8.43526 20.6798 8.37167 22.0851 8.79522C23.4666 9.21159 24.7423 9.46679 25.8766 9.5539C25.8872 9.55477 25.8977 9.55509 25.9081 9.55509C26.1176 9.55509 26.295 9.39365 26.3113 9.18126C26.3284 8.95834 26.1615 8.76375 25.9386 8.74664Z" fill="#121E28"/>
<path d="M25.9385 11.0938C24.8625 11.0112 23.6447 10.7667 22.3187 10.3671C20.726 9.88707 19.1801 9.96118 17.7236 10.5872C17.5181 10.6755 17.4233 10.9136 17.5115 11.1191C17.5998 11.3244 17.8376 11.4195 18.0433 11.3311C19.3199 10.7824 20.6798 10.7188 22.0851 11.1423C23.4669 11.5588 24.7426 11.814 25.8767 11.901C25.8872 11.9019 25.8977 11.9022 25.9081 11.9022C26.1176 11.9022 26.295 11.7408 26.3113 11.5283C26.3284 11.3054 26.1615 11.1109 25.9385 11.0938Z" fill="#121E28"/>
<path d="M25.9386 20.4824C24.8623 20.3998 23.6444 20.1553 22.3187 19.7558C20.726 19.2758 19.1801 19.3498 17.7236 19.9759C17.5181 20.0642 17.4233 20.3023 17.5115 20.5077C17.5998 20.7131 17.8376 20.8082 18.0433 20.7198C19.3199 20.171 20.6798 20.1074 22.0851 20.531C23.4666 20.9474 24.7423 21.2026 25.8766 21.2897C25.8872 21.2905 25.8977 21.2909 25.9081 21.2909C26.1176 21.2909 26.295 21.1294 26.3113 20.917C26.3284 20.6941 26.1615 20.4995 25.9386 20.4824Z" fill="#121E28"/>
<path d="M25.9386 13.4409C24.8623 13.3583 23.6444 13.1138 22.3187 12.7143C20.7261 12.2343 19.1802 12.3083 17.7236 12.9344C17.5181 13.0227 17.4233 13.2608 17.5115 13.4663C17.5998 13.6716 17.8376 13.7666 18.0433 13.6783C19.32 13.1296 20.6799 13.066 22.0851 13.4895C23.4666 13.9058 24.7422 14.1611 25.8766 14.2482C25.8872 14.2491 25.8977 14.2494 25.9081 14.2494C26.1176 14.2494 26.295 14.088 26.3113 13.8756C26.3284 13.6526 26.1615 13.4581 25.9386 13.4409Z" fill="#121E28"/>
<path d="M25.9385 15.788C24.8625 15.7055 23.6447 15.4611 22.3187 15.0615C20.7261 14.5814 19.1801 14.6555 17.7236 15.2816C17.5181 15.3699 17.4233 15.608 17.5115 15.8134C17.5998 16.0188 17.8376 16.1138 18.0433 16.0255C19.3199 15.4768 20.6798 15.4132 22.0851 15.8367C23.4669 16.2531 24.7426 16.5084 25.8767 16.5954C25.8872 16.5962 25.8977 16.5966 25.9081 16.5966C26.1176 16.5966 26.295 16.4351 26.3113 16.2227C26.3284 15.9997 26.1615 15.8052 25.9385 15.788Z" fill="#121E28"/>
<path d="M25.9385 18.1352C24.8624 18.0527 23.6445 17.8081 22.3187 17.4086C20.7261 16.9286 19.1802 17.0027 17.7236 17.6288C17.5181 17.7171 17.4233 17.9552 17.5115 18.1606C17.5998 18.3659 17.8376 18.461 18.0433 18.3727C19.32 17.8239 20.6799 17.7604 22.0851 18.1838C23.4667 18.6002 24.7423 18.8555 25.8767 18.9426C25.8872 18.9434 25.8977 18.9437 25.9081 18.9437C26.1176 18.9437 26.295 18.7822 26.3113 18.5698C26.3284 18.3469 26.1615 18.1523 25.9385 18.1352Z" fill="#121E28"/>
<path d="M6.09186 18.864C6.10222 18.864 6.11275 18.8636 6.12327 18.8628C7.25774 18.7757 8.53335 18.5204 9.91481 18.1041C11.3201 17.6805 12.6799 17.7442 13.9566 18.2929C14.162 18.3812 14.4001 18.2862 14.4884 18.0809C14.5767 17.8754 14.4818 17.6373 14.2763 17.549C12.8198 16.9229 11.2738 16.8489 9.6812 17.3289C8.3555 17.7284 7.13764 17.9729 6.06131 18.0555C5.83839 18.0726 5.67155 18.2672 5.68871 18.4902C5.70496 18.7026 5.88238 18.864 6.09186 18.864Z" fill="#121E28"/>
<path d="M6.09186 21.2909C6.10222 21.2909 6.11275 21.2905 6.12327 21.2897C7.25768 21.2026 8.5333 20.9474 9.91481 20.531C11.3201 20.1075 12.6799 20.1709 13.9566 20.7198C14.162 20.808 14.4001 20.7131 14.4884 20.5077C14.5767 20.3023 14.4818 20.0642 14.2763 19.9759C12.8198 19.3498 11.2738 19.2758 9.6812 19.7558C8.35544 20.1553 7.13759 20.3998 6.06131 20.4824C5.83839 20.4995 5.67155 20.6941 5.68871 20.917C5.70496 21.1294 5.88238 21.2909 6.09186 21.2909Z" fill="#121E28"/>
<path d="M6.09186 16.4371C6.10222 16.4371 6.11275 16.4367 6.12322 16.436C7.25736 16.3489 8.53303 16.0936 9.91481 15.6772C11.3201 15.2537 12.6799 15.3171 13.9566 15.866C14.162 15.9543 14.4001 15.8593 14.4884 15.654C14.5767 15.4485 14.4818 15.2104 14.2763 15.1221C12.8199 14.4961 11.2739 14.422 9.6812 14.902C8.35523 15.3016 7.13732 15.5461 6.06136 15.6286C5.83839 15.6457 5.67155 15.8403 5.68871 16.0632C5.70496 16.2756 5.88238 16.4371 6.09186 16.4371Z" fill="#121E28"/>
<path d="M10.3208 11.0107C10.4759 10.3386 10.8033 9.83675 11.3376 9.45394C11.9322 9.0286 12.5355 8.60326 13.1042 8.1439C13.2421 8.03331 13.38 7.91422 13.5092 7.79512C13.6385 7.68453 13.7505 7.55693 13.8367 7.41232C13.8798 7.42082 13.8884 7.44634 13.897 7.47186C14.0952 7.88019 14.2848 8.29702 14.4916 8.70535C14.5433 8.79892 14.5175 8.86697 14.4572 8.94354C14.3021 9.11367 14.1297 9.25829 13.9574 9.4029C13.4489 9.81973 12.906 10.194 12.3717 10.5853C11.915 10.9171 11.4583 11.2404 11.0274 11.5977C10.7775 11.8018 10.5276 12.006 10.3208 12.2612C9.76923 11.6487 9.08844 11.1893 8.43351 10.7044C7.83028 10.2536 7.2012 9.82824 6.61521 9.35186C6.46009 9.22426 6.29636 9.08815 6.1671 8.93503C6.11539 8.87548 6.08092 8.82444 6.12401 8.73937C6.33945 8.29702 6.54627 7.85467 6.76171 7.40381C7.23567 7.99078 7.84752 8.3906 8.43351 8.83295C8.73512 9.06263 9.04535 9.2753 9.34697 9.49648C9.81232 9.83675 10.1139 10.2876 10.2604 10.8405C10.2777 10.8831 10.2949 10.9341 10.3208 11.0107Z" fill="#FF1919"/>
<path d="M5.87398 9.2583C6.33933 9.79423 6.89085 10.1855 7.43376 10.5854C8.09731 11.0702 8.76948 11.5381 9.42441 12.0485C9.50197 12.1081 9.58814 12.1761 9.6657 12.2442C9.91561 12.4483 10.1569 12.661 10.312 12.9843C10.6309 12.4143 11.1565 12.0996 11.6305 11.7423C12.1648 11.334 12.7163 10.9512 13.2592 10.5513C13.7849 10.1685 14.3106 9.77721 14.75 9.27531C14.8448 9.41142 14.8879 9.54753 14.9569 9.67513C14.9913 9.73468 14.9569 9.77721 14.931 9.82826C14.8707 9.93034 14.7845 10.0069 14.6983 10.0835C14.5174 10.2451 14.3278 10.3897 14.1296 10.5258C13.3626 11.0788 12.587 11.6232 11.8201 12.1761C11.7167 12.2442 11.6219 12.3207 11.5271 12.4058C11.2772 12.627 11.1048 12.8822 11.0531 13.214C11.0359 13.299 11.01 13.333 10.9239 13.3245C10.5275 13.3245 10.1224 13.3245 9.72602 13.3245C9.6657 13.3245 9.62261 13.316 9.614 13.2395C9.55367 12.7971 9.27791 12.4909 8.92459 12.2442C8.45925 11.9124 8.00252 11.5807 7.53717 11.2404C7.10629 10.9256 6.6668 10.6194 6.23592 10.3046C6.06357 10.177 5.90845 10.0409 5.76196 9.8793C5.6844 9.78572 5.65855 9.70065 5.72749 9.58156C5.77057 9.49649 5.81366 9.3859 5.87398 9.2583Z" fill="#FF1919"/>
<path d="M28.8289 7.21892H28.1952V6.84956C28.1952 6.33193 27.7536 5.92247 27.2365 5.96366C26.6391 6.01143 25.3311 6.01434 23.2821 5.49477C23.0653 5.43966 22.8451 5.57098 22.7902 5.78764C22.7352 6.00441 22.8664 6.22463 23.0831 6.27952C25.1371 6.80034 26.5107 6.83418 27.3012 6.77065C27.3472 6.76741 27.3855 6.8032 27.3855 6.84956V23.1857C25.8521 23.3511 23.8036 22.9121 22.3183 22.4646C19.0008 21.4648 16.8562 23.1824 16.4047 23.4272V7.24575C16.8421 6.83547 18.6051 5.38234 21.229 5.80454C21.4496 5.84038 21.6575 5.69 21.6931 5.46924C21.7286 5.24853 21.5785 5.04078 21.3578 5.00521C18.6026 4.56131 16.7013 5.90714 15.9989 6.52004C14.3883 5.12325 12.0845 4.5028 9.68148 5.22716C7.10235 6.00441 5.4929 6.02195 4.76331 5.96371C4.24546 5.92215 3.80464 6.33291 3.80464 6.84956V7.21892H3.1708C2.62565 7.21892 2.18213 7.66239 2.18213 8.2076V24.624C2.18213 25.1692 2.6257 25.6126 3.17086 25.6126H13.6598C13.8169 25.6126 13.9595 25.6994 14.023 25.8338C14.8086 27.496 17.1882 27.5021 17.9767 25.8338C18.0402 25.6995 18.1828 25.6126 18.34 25.6126H28.8289C29.374 25.6126 29.8175 25.1691 29.8175 24.624V16.9467C29.8175 16.7231 29.6363 16.5419 29.4127 16.5419C29.1891 16.5419 29.0079 16.7231 29.0079 16.9467V24.6239C29.0079 24.7226 28.9276 24.803 28.8289 24.803H18.34C17.8713 24.803 17.4414 25.0717 17.2448 25.4877C16.7499 26.5346 15.2517 26.5388 14.755 25.4878C14.5584 25.0718 14.1285 24.803 13.6598 24.803H3.17086C3.07208 24.803 2.99177 24.7226 2.99177 24.6239V8.2076C2.99177 8.10887 3.07208 8.02856 3.1708 8.02856H3.80464V23.5312C3.80464 23.7149 3.9283 23.8755 4.10588 23.9225C4.18285 23.9429 6.03703 24.4086 9.91514 23.2398C11.7915 22.6743 13.6025 23.0211 15.0394 24.0343C15.595 24.426 16.3684 24.452 16.9606 24.0343C17.8283 23.4223 19.6477 22.5055 22.0848 23.2398C25.963 24.4085 27.817 23.9429 27.894 23.9225C28.0716 23.8755 28.1952 23.7149 28.1952 23.5312V8.02856H28.829C28.9277 8.02856 29.008 8.10887 29.008 8.2076V15.0576C29.008 15.2812 29.1892 15.4624 29.4128 15.4624C29.6365 15.4624 29.8177 15.2812 29.8177 15.0576V8.2076C29.8176 7.66239 29.3741 7.21892 28.8289 7.21892ZM4.61428 6.84956C4.61428 6.80417 4.65136 6.76736 4.69859 6.77065C5.48502 6.83391 7.20874 6.81793 9.91514 6.0023C12.1069 5.34196 14.2009 5.94061 15.5951 7.24607V23.4272C15.3629 23.3015 13.0866 21.4382 9.68148 22.4646C9.46315 22.5304 9.22317 22.5987 9.00111 22.6581C8.99841 22.6588 8.99572 22.6595 8.99307 22.6602C7.68955 23.0079 5.95553 23.3303 4.61423 23.1859C4.61428 22.0607 4.61428 7.15129 4.61428 6.84956Z" fill="#121E28"/>
</svg>
