<svg width="32" height="32" viewBox="0 0 32 32" fill="none" xmlns="http://www.w3.org/2000/svg">
<path d="M27.5446 9.40262C27.2818 9.66546 27.0085 9.87891 26.7205 10.0484L22.0451 5.37279C22.2146 5.08505 22.4279 4.81175 22.6909 4.5487C23.1936 4.04604 23.1936 3.22802 22.6907 2.72515C22.188 2.2225 21.37 2.22229 20.8671 2.72515C18.7745 4.81781 18.7439 7.34742 19.1102 9.63135C16.4514 9.08328 13.5123 8.85016 11.166 11.1962C10.1054 12.257 9.49563 13.5028 9.30185 15.0051C9.27339 15.2254 9.42909 15.4272 9.64945 15.4556C9.86917 15.4841 10.0715 15.3284 10.0998 15.1081C10.2701 13.7888 10.8048 12.6954 11.735 11.7652C13.8967 9.60352 16.6276 9.9147 19.265 10.4866C19.3437 10.8807 19.4134 11.1898 19.4902 11.5294C16.8698 10.9334 14.3318 10.5122 12.4178 12.4537C8.13959 16.738 15.4093 24.0471 10.6269 28.8294C10.438 29.0184 10.1303 29.0184 9.94137 28.8294C9.75219 28.6404 9.75219 28.3328 9.94137 28.1439C12.9738 25.1112 10.2643 20.7547 10.0519 16.5838C10.0404 16.362 9.85306 16.1908 9.62956 16.2025C9.40753 16.2138 9.23677 16.403 9.24807 16.6248C9.29223 17.4899 9.43913 18.3569 9.60089 19.1404C7.31697 18.7744 4.78757 18.8049 2.69491 20.8974C2.19099 21.4011 2.19079 22.217 2.69491 22.7209C3.19882 23.2251 4.01454 23.2251 4.51866 22.7209C4.7815 22.4581 5.0548 22.2449 5.34254 22.0754L10.0182 26.7508C9.84846 27.0387 9.63521 27.312 9.37238 27.5749C8.86951 28.0775 8.86951 28.8958 9.37238 29.3984C9.87503 29.9013 10.6931 29.9013 11.1959 29.3984C13.2886 27.3057 13.3191 24.7761 12.9529 22.4922C15.9877 23.1177 18.6996 23.1248 20.8971 20.9273C23.2434 18.581 23.0098 15.6415 22.4618 12.9827C23.2252 13.1041 23.9919 13.1776 24.7639 13.1533C24.9859 13.1462 25.1602 12.9604 25.1533 12.7383C25.1462 12.5163 24.9608 12.3411 24.7386 12.3489C24.0174 12.3715 23.23 12.3039 22.277 12.1358C22.1995 11.7962 22.1242 11.4762 22.0395 11.1084C24.2713 11.5576 26.3955 11.6897 28.1136 9.97162C28.3026 9.78265 28.61 9.78265 28.7992 9.97162C28.9888 10.161 28.9888 10.4678 28.7992 10.6572C28.0464 11.4101 27.1962 11.899 26.2001 12.1515C25.9848 12.2062 25.8544 12.4248 25.909 12.6404C25.9636 12.8557 26.1825 12.9861 26.3978 12.9315C27.5383 12.6423 28.51 12.0846 29.3682 11.2262C29.6117 10.9826 29.7459 10.6588 29.7459 10.3144C29.7459 9.16908 28.3522 8.59507 27.5446 9.40262ZM3.94967 22.1519C3.76007 22.3415 3.4535 22.3415 3.2639 22.1519C3.07452 21.9626 3.07431 21.656 3.2639 21.4664C4.567 20.1633 6.09464 19.7713 7.61391 19.7713C8.34865 19.7713 9.08171 19.863 9.7863 19.9877C9.86311 20.3255 9.94137 20.6576 10.0238 21.0154C7.792 20.5659 5.66774 20.4339 3.94967 22.1519ZM6.13294 21.7276C7.22468 21.3921 8.5305 21.5204 10.2159 21.8774C10.5731 23.5628 10.7014 24.8686 10.3658 25.9604L6.13294 21.7276ZM12.3714 19.7222C12.0646 18.3973 11.7932 17.1618 11.8051 16.0439L16.0494 20.2882C14.9315 20.3001 13.696 20.0289 12.3714 19.7222ZM17.0815 20.1825L11.9108 15.0118C12.0386 14.4016 12.2912 13.8349 12.7185 13.3176L18.7755 19.3748C18.2584 19.8023 17.692 20.0547 17.0815 20.1825ZM19.3447 18.806L13.2875 12.7488C13.8046 12.3215 14.3713 12.0689 14.9815 11.941L20.1523 17.1118C20.0244 17.722 19.7721 18.2887 19.3447 18.806ZM19.6919 12.4014C19.9987 13.7263 20.2699 14.9618 20.2582 16.0797L16.0139 11.8353C17.1315 11.8234 18.3673 12.0946 19.6919 12.4014ZM20.3281 20.3583C18.1664 22.52 15.4356 22.2089 12.7981 21.6369C12.7414 21.354 12.6796 21.0625 12.5729 20.5942C15.227 21.1979 17.7127 21.6024 19.6425 19.6726C23.8923 15.423 16.6812 8.04909 21.4364 3.29415C21.6253 3.10518 21.9327 3.10497 22.1219 3.29415C22.3109 3.48312 22.3109 3.79074 22.1219 3.9797C17.8479 8.25375 25.109 15.5776 20.3281 20.3583ZM21.8474 10.2462C21.4901 8.56075 21.3619 7.25493 21.6975 6.16319L25.9303 10.396C24.8386 10.7317 23.5328 10.6034 21.8474 10.2462Z" fill="#121E28"/>
<path d="M26.3955 5.90096C26.8979 5.56788 27.4074 5.44635 27.9765 5.52471C28.6094 5.61235 29.2478 5.70517 29.8848 5.75568C30.0387 5.76841 30.1978 5.77575 30.3514 5.77791C30.4999 5.78547 30.6476 5.77187 30.7893 5.73193C30.8115 5.76323 30.8016 5.7846 30.7917 5.80597C30.672 6.18417 30.5417 6.56257 30.4274 6.94595C30.4039 7.03639 30.3466 7.06402 30.2623 7.07633C30.0616 7.09101 29.8654 7.07913 29.6691 7.06726C29.0959 7.02603 28.5265 6.9371 27.9523 6.86414C27.4631 6.80003 26.979 6.73052 26.4909 6.69814C26.2096 6.67742 25.9284 6.65669 25.6437 6.69425C25.6621 5.97413 25.5064 5.27344 25.3824 4.5721C25.2707 3.92343 25.1274 3.27541 25.042 2.62092C25.0203 2.44671 24.9983 2.26194 25.0083 2.08709C25.0113 2.01823 25.0201 1.96512 25.0986 1.93706C25.5012 1.78596 25.8984 1.62967 26.3061 1.47317C26.2539 2.13047 26.4017 2.75194 26.5075 3.38485C26.5607 3.71189 26.6297 4.03331 26.6881 4.35494C26.7787 4.85057 26.699 5.31791 26.4595 5.75676C26.4449 5.7941 26.4251 5.83684 26.3955 5.90096Z" fill="#FF1919"/>
<path d="M24.6281 2.11596C24.6011 2.7357 24.7157 3.31551 24.8198 3.89553C24.9492 4.60205 25.0943 5.30296 25.203 6.02049C25.2164 6.10489 25.2301 6.19987 25.2384 6.28967C25.2742 6.56943 25.2994 6.8494 25.2035 7.14773C25.7484 6.97784 26.2711 7.09419 26.7866 7.15247C27.371 7.21464 27.951 7.30336 28.5358 7.37611C29.0994 7.44928 29.6682 7.51707 30.2487 7.46288C30.227 7.60622 30.1725 7.71847 30.1395 7.84086C30.1256 7.89936 30.0782 7.90562 30.0311 7.92246C29.9314 7.95095 29.8307 7.94771 29.73 7.94447C29.5181 7.93821 29.3109 7.91598 29.1033 7.88317C28.2843 7.77286 27.465 7.65198 26.646 7.54168C26.5395 7.52268 26.4334 7.51426 26.3221 7.51124C26.0306 7.50131 25.7678 7.55959 25.5356 7.73898C25.4735 7.78258 25.4366 7.78862 25.3871 7.73142C25.1356 7.49311 24.8787 7.24962 24.6272 7.0113C24.5889 6.97504 24.5667 6.94374 24.6073 6.88999C24.8349 6.5731 24.8441 6.21304 24.7683 5.84413C24.6725 5.3539 24.5822 4.86886 24.4916 4.37324C24.4075 3.91453 24.3128 3.45604 24.2286 2.99733C24.196 2.81276 24.1794 2.63316 24.1837 2.44256C24.1907 2.33657 24.2255 2.26706 24.3408 2.23295C24.4193 2.20489 24.5131 2.16064 24.6281 2.11596Z" fill="#FF1919"/>
</svg>
