<svg xmlns="http://www.w3.org/2000/svg" width="48" height="48" viewBox="0 0 48 48" fill="none">
<path d="M23.1616 10.5161H21.8842L20.1377 4.83871H17.6694L15.9229 10.5161H14.6455V11.9355H15.4865L14.6767 14.5655L16.0329 14.9828L16.9711 11.9355H20.836L21.7735 14.9828L23.1297 14.5655L22.3207 11.9355H23.1616V10.5161ZM17.4076 10.5161L18.7183 6.25807H19.0888L20.3989 10.5161H17.4076Z" fill="#154BEC" style="&#10;    fill: red;&#10;"/>
<path d="M30.0044 9.80645C30.5949 9.28626 30.9675 8.52407 30.9675 7.67742C30.9675 6.11187 29.6943 4.83871 28.1288 4.83871H25.29V14.7742H28.1288C29.6943 14.7742 30.9675 13.501 30.9675 11.9355C30.9675 11.0888 30.5949 10.3266 30.0044 9.80645ZM28.1288 13.3548H26.7094V10.5161H28.1288C28.9115 10.5161 29.5481 11.1527 29.5481 11.9355C29.5481 12.7183 28.9115 13.3548 28.1288 13.3548ZM28.1288 9.09678H26.7094V6.25807H28.1288C28.9115 6.25807 29.5481 6.89465 29.5481 7.67742C29.5481 8.46019 28.9115 9.09678 28.1288 9.09678Z" fill="#154BEC" style="&#10;    fill: red;&#10;"/>
<path d="M37.3545 6.25807V4.83871C34.6151 4.83871 32.3867 7.0671 32.3867 9.80645C32.3867 12.5458 34.6151 14.7742 37.3545 14.7742V13.3548C35.3979 13.3548 33.8061 11.763 33.8061 9.80645C33.8061 7.84987 35.3979 6.25807 37.3545 6.25807Z" fill="#154BEC" style="&#10;    fill: red;&#10;"/>
<path d="M12.5156 16.1935V28.9677H39.4834V16.1935H12.5156ZM38.064 27.5484H13.935V17.6129H38.064V27.5484Z" fill="#154BEC" style="&#10;    fill: black;&#10;"/>
<path d="M38.774 30.3871H13.2256V31.8065H38.774V30.3871Z" fill="#154BEC" style="&#10;    fill: black;&#10;"/>
<path d="M38.774 33.2258H13.2256V34.6452H38.774V33.2258Z" fill="#154BEC" style="&#10;    fill: black;&#10;"/>
<path d="M38.7738 36.0645H37.3545V37.4839H38.7738V36.0645Z" fill="#154BEC" style="&#10;    fill: black;&#10;"/>
<path d="M35.9353 36.0645H13.2256V37.4839H35.9353V36.0645Z" fill="#154BEC" style="&#10;    fill: black;&#10;"/>
<path d="M47.7289 4.83871H42.3226V2H7.54839C5.59181 2 4 3.59181 4 5.54839V42.4516C4 44.4082 5.59181 46 7.54839 46H40.1935H42.3226V44.5806H40.1935C39.0197 44.5806 38.0645 43.6254 38.0645 42.4516C38.0645 41.2778 39.0197 40.3226 40.1935 40.3226H41.6129H42.3226V11.9355H47.7289L45.9547 8.3871L47.7289 4.83871ZM37.3733 44.5806H7.54839C6.37458 44.5806 5.41935 43.6254 5.41935 42.4516C5.41935 41.2778 6.37458 40.3226 7.54839 40.3226H37.3733C36.9226 40.9173 36.6452 41.6497 36.6452 42.4516C36.6452 43.2535 36.9226 43.9859 37.3733 44.5806ZM40.9032 38.9032H40.1935H11.0968V36.0645H9.67742V38.9032H7.54839C6.75 38.9032 6.01265 39.1686 5.41935 39.6143V5.54839C5.41935 4.37458 6.37458 3.41935 7.54839 3.41935H9.67742V34.6452H11.0968V3.41935H40.9032V38.9032ZM45.4324 10.5161H42.3226V6.25806H45.4324L44.3679 8.3871L45.4324 10.5161Z" fill="#154BEC" style="&#10;    fill: black;&#10;"/>
<path d="M35.2261 41.7419H9.67773V43.1613H35.2261V41.7419Z" fill="#154BEC" style="&#10;    fill: black;&#10;"/>
<path d="M8.25822 41.7419H6.83887V43.1613H8.25822V41.7419Z" fill="#154BEC" style="&#10;    fill: black;&#10;"/>
</svg>