<svg width="32" height="32" viewBox="0 0 32 32" fill="none" xmlns="http://www.w3.org/2000/svg">
<path d="M8.6693 19.963H4.31689V23.4339H8.6693V19.963ZM5.1433 20.7894H6.07989V22.6075H5.1433V20.7894ZM7.84289 22.6075H6.9063V20.7894H7.84289V22.6075Z" fill="#121E28"/>
<path d="M4.31689 27.8414H8.6693V24.3705H4.31689V27.8414ZM7.84289 27.015H6.9063V25.197H7.84289V27.015ZM5.1433 25.197H6.07989V27.015H5.1433V25.197Z" fill="#121E28"/>
<path d="M27.6214 19.963H23.269V23.4339H27.6214V19.963ZM24.0954 20.7894H25.032V22.6075H24.0954V20.7894ZM26.795 22.6075H25.8584V20.7894H26.795V22.6075Z" fill="#121E28"/>
<path d="M23.269 27.8414H27.6214V24.3705H23.269V27.8414ZM26.795 27.015H25.8584V25.197H26.795V27.015ZM24.0954 25.197H25.032V27.015H24.0954V25.197Z" fill="#121E28"/>
<path d="M22.5803 18.2001V19.0265H29.2191V28.7781H21.6712V22.1393H20.8448V28.7781H19.0267V25.197H19.9082V22.6076H12.0298V25.197H12.9113V28.7781H2.71898V23.4615H1.89258V29.6045H30.0455V18.2001H22.5803ZM18.2003 28.7781H16.3822V25.197H18.2003V28.7781ZM12.8562 23.434H19.0818V24.3706H12.8562V23.434ZM13.7377 25.197H15.5558V28.7781H13.7377V25.197Z" fill="#121E28"/>
<path d="M2.71898 19.0265H10.2668V27.869H11.0932V15.6991L15.969 10.8233L20.8448 15.6991V21.2578H21.6712V16.5255L22.5803 17.4346L24.4868 15.528L16.3822 7.4234V5.80397H19.9082V2.33307H15.5558V7.4234L7.4512 15.528L9.35778 17.4346L10.2668 16.5255V18.2001H1.89258V22.58H2.71898V19.0265ZM16.3822 3.15947H19.0818V4.97757H16.3822V3.15947ZM8.61985 15.528L15.969 8.17884L23.3182 15.528L22.5803 16.2659L15.969 9.65469L9.35778 16.2659L8.61985 15.528Z" fill="#121E28"/>
<path d="M13.7651 19.963H14.6466V20.7894H13.7651V19.963Z" fill="#121E28"/>
<path d="M15.5283 19.963H16.4098V20.7894H15.5283V19.963Z" fill="#121E28"/>
<path d="M17.2915 19.963H18.173V20.7894H17.2915V19.963Z" fill="#121E28"/>
<path d="M15.9621 17.4256C16.0907 16.8685 16.3621 16.4525 16.8051 16.1351C17.298 15.7825 17.7981 15.4299 18.2696 15.0491C18.3839 14.9574 18.4982 14.8587 18.6053 14.7599C18.7125 14.6683 18.8054 14.5625 18.8768 14.4426C18.9125 14.4497 18.9197 14.4708 18.9268 14.492C19.0911 14.8305 19.2483 15.176 19.4197 15.5145C19.4626 15.5921 19.4412 15.6485 19.3912 15.712C19.2626 15.853 19.1197 15.9729 18.9768 16.0928C18.5553 16.4384 18.1053 16.7486 17.6623 17.073C17.2837 17.3481 16.9051 17.6161 16.5479 17.9122C16.3407 18.0815 16.1335 18.2507 15.9621 18.4623C15.5049 17.9546 14.9405 17.5737 14.3976 17.1718C13.8975 16.798 13.376 16.4454 12.8902 16.0505C12.7616 15.9447 12.6259 15.8319 12.5187 15.7049C12.4758 15.6556 12.4473 15.6133 12.483 15.5427C12.6616 15.176 12.833 14.8093 13.0116 14.4355C13.4045 14.9221 13.9118 15.2536 14.3976 15.6203C14.6476 15.8107 14.9048 15.987 15.1548 16.1704C15.5406 16.4525 15.7906 16.8262 15.9121 17.2846C15.9264 17.3199 15.9406 17.3622 15.9621 17.4256Z" fill="#FF1919"/>
<path d="M12.2757 15.9729C12.6615 16.4172 13.1187 16.7416 13.5687 17.073C14.1188 17.475 14.6761 17.8629 15.219 18.286C15.2833 18.3354 15.3547 18.3918 15.419 18.4482C15.6262 18.6174 15.8262 18.7938 15.9548 19.0617C16.2191 18.5892 16.6549 18.3283 17.0478 18.0321C17.4908 17.6936 17.948 17.3763 18.3981 17.0448C18.8338 16.7275 19.2696 16.4031 19.634 15.987C19.7125 16.0998 19.7483 16.2127 19.8054 16.3185C19.834 16.3678 19.8054 16.4031 19.784 16.4454C19.734 16.53 19.6625 16.5935 19.5911 16.657C19.4411 16.7909 19.2839 16.9108 19.1196 17.0237C18.4838 17.4821 17.8408 17.9334 17.205 18.3918C17.1193 18.4482 17.0407 18.5117 16.9621 18.5822C16.7549 18.7655 16.6121 18.9771 16.5692 19.2521C16.5549 19.3227 16.5335 19.3509 16.462 19.3438C16.1334 19.3438 15.7977 19.3438 15.469 19.3438C15.419 19.3438 15.3833 19.3368 15.3762 19.2733C15.3262 18.9066 15.0975 18.6527 14.8046 18.4482C14.4189 18.1732 14.0402 17.8981 13.6545 17.616C13.2973 17.3551 12.9329 17.1012 12.5757 16.8403C12.4329 16.7345 12.3043 16.6217 12.1828 16.4877C12.1185 16.4101 12.0971 16.3396 12.1542 16.2409C12.19 16.1704 12.2257 16.0787 12.2757 15.9729Z" fill="#FF1919"/>
</svg>
