<svg width="48" height="48" viewBox="0 0 48 48" fill="none" xmlns="http://www.w3.org/2000/svg">
<path d="M41.25 7.5C41.4489 7.5 41.6397 7.42098 41.7803 7.28033C41.921 7.13968 42 6.94891 42 6.75V5.25C41.9989 4.25578 41.6034 3.3026 40.9004 2.59958C40.1974 1.89656 39.2442 1.50112 38.25 1.5H11.25C10.2558 1.50112 9.3026 1.89656 8.59958 2.59958C7.89656 3.3026 7.50112 4.25578 7.5 5.25V39H9V5.25C9.00069 4.65348 9.23797 4.08158 9.65978 3.65978C10.0816 3.23797 10.6535 3.00069 11.25 3H35.2518C34.763 3.64822 34.4991 4.43818 34.5 5.25V42.75C34.5 43.3467 34.2629 43.919 33.841 44.341C33.419 44.7629 32.8467 45 32.25 45C31.6533 45 31.081 44.7629 30.659 44.341C30.2371 43.919 30 43.3467 30 42.75V41.25C30 41.0511 29.921 40.8603 29.7803 40.7197C29.6397 40.579 29.4489 40.5 29.25 40.5H2.25C2.05109 40.5 1.86032 40.579 1.71967 40.7197C1.57902 40.8603 1.5 41.0511 1.5 41.25V42.75C1.50112 43.7442 1.89656 44.6974 2.59958 45.4004C3.3026 46.1034 4.25578 46.4989 5.25 46.5H32.25C33.2442 46.4989 34.1974 46.1034 34.9004 45.4004C35.6034 44.6974 35.9989 43.7442 36 42.75V7.5H41.25ZM5.25 45C4.65347 44.9993 4.08156 44.7621 3.65975 44.3403C3.23794 43.9184 3.00067 43.3465 3 42.75V42H28.5V42.75C28.4991 43.5618 28.763 44.3518 29.2518 45H5.25ZM38.25 3C38.8465 3.00069 39.4184 3.23797 39.8402 3.65978C40.262 4.08158 40.4993 4.65348 40.5 5.25V6H36V5.25C36.0007 4.65348 36.238 4.08158 36.6598 3.65978C37.0816 3.23797 37.6535 3.00069 38.25 3Z" fill="#154BEC"/>
<path d="M17.2502 9.75001C17.2462 10.0497 17.3127 10.346 17.4442 10.6153C17.5758 10.8846 17.7687 11.1192 18.0075 11.3003C17.9707 11.597 18.0021 11.8982 18.0993 12.1809C18.1964 12.4637 18.3568 12.7205 18.5682 12.9319C18.7797 13.1433 19.0365 13.3037 19.3193 13.4009C19.602 13.4981 19.9032 13.5295 20.1999 13.4927C20.3837 13.7285 20.6189 13.9193 20.8875 14.0506C21.1561 14.1818 21.4512 14.25 21.7502 14.25C22.0491 14.25 22.3442 14.1818 22.6128 14.0506C22.8815 13.9193 23.1166 13.7285 23.3004 13.4927C23.5971 13.5295 23.8983 13.4981 24.1811 13.401C24.4638 13.3038 24.7207 13.1434 24.9321 12.932C25.1435 12.7206 25.3039 12.4637 25.4011 12.1809C25.4983 11.8982 25.5296 11.597 25.4928 11.3003C25.7287 11.1165 25.9195 10.8813 26.0507 10.6127C26.1819 10.344 26.2502 10.049 26.2502 9.75001C26.2502 9.45103 26.1819 9.15598 26.0507 8.88734C25.9195 8.6187 25.7287 8.38354 25.4928 8.19976C25.5296 7.90305 25.4983 7.60185 25.4011 7.31909C25.3039 7.03633 25.1435 6.77947 24.9321 6.56805C24.7207 6.35663 24.4638 6.19624 24.1811 6.09907C23.8983 6.0019 23.5971 5.97052 23.3004 6.00732C23.1166 5.77149 22.8815 5.58069 22.6128 5.44946C22.3442 5.31822 22.0491 5.25001 21.7502 5.25001C21.4512 5.25001 21.1561 5.31822 20.8875 5.44946C20.6189 5.58069 20.3837 5.77149 20.1999 6.00732C19.9032 5.97052 19.602 6.0019 19.3192 6.09907C19.0365 6.19624 18.7796 6.35663 18.5682 6.56805C18.3568 6.77947 18.1964 7.03633 18.0992 7.31909C18.0021 7.60185 17.9707 7.90305 18.0075 8.19976C17.7687 8.38084 17.5758 8.61546 17.4442 8.88472C17.3127 9.15398 17.2462 9.45036 17.2502 9.75001ZM19.0981 9.31464C19.2152 9.28816 19.3242 9.23397 19.416 9.1566C19.5078 9.07923 19.5797 8.98095 19.6256 8.87003C19.6716 8.7591 19.6902 8.63877 19.68 8.51915C19.6697 8.39953 19.6309 8.28411 19.5668 8.1826C19.5128 8.09696 19.4894 7.99547 19.5007 7.89482C19.5119 7.79416 19.557 7.70032 19.6287 7.62871C19.7003 7.55709 19.7941 7.51197 19.8948 7.50075C19.9954 7.48952 20.0969 7.51287 20.1826 7.56695C20.2841 7.63106 20.3995 7.66986 20.5191 7.6801C20.6387 7.69033 20.7591 7.6717 20.87 7.62577C20.9809 7.57984 21.0792 7.50795 21.1566 7.41614C21.2339 7.32434 21.2881 7.2153 21.3146 7.0982C21.3369 6.9994 21.3922 6.91113 21.4713 6.84789C21.5504 6.78465 21.6487 6.7502 21.75 6.7502C21.8513 6.7502 21.9495 6.78465 22.0287 6.84789C22.1078 6.91113 22.163 6.9994 22.1853 7.0982C22.2118 7.2153 22.266 7.32434 22.3434 7.41614C22.4208 7.50795 22.519 7.57984 22.63 7.62577C22.7409 7.6717 22.8612 7.69033 22.9808 7.6801C23.1005 7.66986 23.2159 7.63106 23.3174 7.56695C23.403 7.51287 23.5045 7.48952 23.6052 7.50075C23.7058 7.51197 23.7997 7.55709 23.8713 7.62871C23.9429 7.70032 23.988 7.79416 23.9993 7.89482C24.0105 7.99547 23.9872 8.09696 23.9331 8.1826C23.869 8.28411 23.8302 8.39953 23.82 8.51915C23.8097 8.63877 23.8284 8.7591 23.8743 8.87003C23.9202 8.98095 23.9921 9.07923 24.0839 9.1566C24.1757 9.23397 24.2848 9.28816 24.4019 9.31464C24.5007 9.33695 24.5889 9.39221 24.6522 9.47133C24.7154 9.55045 24.7499 9.64872 24.7499 9.75001C24.7499 9.8513 24.7154 9.94957 24.6522 10.0287C24.5889 10.1078 24.5007 10.1631 24.4019 10.1854C24.2848 10.2119 24.1757 10.2661 24.0839 10.3434C23.9921 10.4208 23.9202 10.5191 23.8743 10.63C23.8284 10.7409 23.8097 10.8613 23.82 10.9809C23.8302 11.1005 23.869 11.2159 23.9331 11.3174C23.9872 11.4031 24.0106 11.5046 23.9994 11.6053C23.9881 11.7059 23.943 11.7998 23.8713 11.8714C23.7997 11.9431 23.7058 11.9882 23.6051 11.9994C23.5044 12.0106 23.4029 11.9872 23.3173 11.9331C23.2158 11.869 23.1004 11.8302 22.9808 11.82C22.8612 11.8097 22.7408 11.8284 22.6299 11.8743C22.519 11.9202 22.4207 11.9921 22.3434 12.0839C22.266 12.1757 22.2118 12.2847 22.1853 12.4018C22.163 12.5006 22.1078 12.5889 22.0287 12.6521C21.9495 12.7154 21.8513 12.7498 21.75 12.7498C21.6487 12.7498 21.5504 12.7154 21.4713 12.6521C21.3922 12.5889 21.3369 12.5006 21.3146 12.4018C21.2881 12.2847 21.2339 12.1757 21.1566 12.0839C21.0792 11.9921 20.9809 11.9202 20.87 11.8743C20.7591 11.8284 20.6388 11.8097 20.5192 11.82C20.3996 11.8302 20.2842 11.869 20.1827 11.9331C20.097 11.9872 19.9955 12.0106 19.8948 11.9994C19.7942 11.9882 19.7003 11.9431 19.6286 11.8714C19.557 11.7998 19.5118 11.7059 19.5006 11.6053C19.4894 11.5046 19.5127 11.4031 19.5668 11.3174C19.6309 11.2159 19.6697 11.1005 19.68 10.9809C19.6902 10.8613 19.6716 10.7409 19.6256 10.63C19.5797 10.5191 19.5078 10.4208 19.416 10.3434C19.3242 10.2661 19.2152 10.2119 19.0981 10.1854C18.9993 10.1631 18.911 10.1078 18.8478 10.0287C18.7845 9.94957 18.7501 9.8513 18.7501 9.75001C18.7501 9.64872 18.7845 9.55045 18.8478 9.47133C18.911 9.39221 18.9993 9.33695 19.0981 9.31464Z" fill="#154BEC"/>
<path d="M18 18.75H25.5V20.25H18V18.75Z" fill="#154BEC"/>
<path d="M20.25 15.75H27.75V17.25H20.25V15.75Z" fill="#154BEC"/>
<path d="M15.75 15.75H18.75V17.25H15.75V15.75Z" fill="#154BEC"/>
<path d="M14.25 22.5H32.25V24H14.25V22.5Z" fill="#154BEC"/>
<path d="M11.25 22.5H12.75V24H11.25V22.5Z" fill="#154BEC"/>
<path d="M14.25 25.5H26.25V27H14.25V25.5Z" fill="#154BEC"/>
<path d="M27.75 25.5H32.25V27H27.75V25.5Z" fill="#154BEC"/>
<path d="M14.25 28.5H32.25V30H14.25V28.5Z" fill="#154BEC"/>
<path d="M11.25 28.5H12.75V30H11.25V28.5Z" fill="#154BEC"/>
<path d="M14.25 31.5H18.75V33H14.25V31.5Z" fill="#154BEC"/>
<path d="M20.25 31.5H32.25V33H20.25V31.5Z" fill="#154BEC"/>
<path d="M14.25 34.5H26.25V36H14.25V34.5Z" fill="#154BEC"/>
<path d="M11.25 34.5H12.75V36H11.25V34.5Z" fill="#154BEC"/>
<path d="M14.25 37.5H32.25V39H14.25V37.5Z" fill="#154BEC"/>
<path d="M27.75 34.5H32.25V36H27.75V34.5Z" fill="#154BEC"/>
<path d="M44.25 13.5H43.5C43.5 12.7044 43.1839 11.9413 42.6213 11.3787C42.0587 10.8161 41.2956 10.5 40.5 10.5C39.7044 10.5 38.9413 10.8161 38.3787 11.3787C37.8161 11.9413 37.5 12.7044 37.5 13.5V37.5C37.5 37.6164 37.5274 37.7312 37.5798 37.8352H37.5792L39.8292 42.3352C39.8915 42.4597 39.9873 42.5645 40.1057 42.6377C40.2242 42.7109 40.3607 42.7497 40.5 42.7497C40.6393 42.7497 40.7758 42.7109 40.8943 42.6377C41.0127 42.5645 41.1085 42.4597 41.1708 42.3352L43.4208 37.8352H43.4202C43.4726 37.7312 43.4999 37.6164 43.5 37.5V15H44.25C44.4488 15.0002 44.6395 15.0793 44.7801 15.2199C44.9207 15.3605 44.9998 15.5512 45 15.75V24H46.5V15.75C46.4993 15.1535 46.262 14.5816 45.8402 14.1598C45.4184 13.738 44.8465 13.5007 44.25 13.5ZM40.5 12C40.8977 12.0005 41.2789 12.1587 41.5601 12.4399C41.8413 12.7211 41.9995 13.1023 42 13.5H39C39.0005 13.1023 39.1587 12.7211 39.4399 12.4399C39.7211 12.1587 40.1023 12.0005 40.5 12ZM42 36.75H39V25.5H42V36.75ZM42 24H39V22.5H42V24ZM40.5 40.3229L39.4635 38.25H41.5365L40.5 40.3229ZM42 21H39V15H42V21Z" fill="#154BEC"/>
</svg>
