<svg width="48" height="48" viewBox="0 0 48 48" fill="none" xmlns="http://www.w3.org/2000/svg">
<path d="M45.0243 9.41939L24.4976 2.0858C24.1735 1.9714 23.8199 1.9714 23.4958 2.0858L2.97423 9.41939C2.39259 9.62905 2.00488 10.1809 2.00488 10.7992C2.00488 11.4175 2.39259 11.9694 2.97423 12.179L12.9992 15.7607V20.3332C12.9992 23.1845 22.8739 23.2667 23.9996 23.2667C25.1253 23.2667 35 23.1845 35 20.3332V15.7607L37.2001 14.9797V16.6664C37.2001 17.4765 37.8568 18.1332 38.6668 18.1332H40.1335C40.9436 18.1332 41.6002 17.4765 41.6002 16.6664V14.4664C41.598 14.1268 41.5162 13.7924 41.3612 13.4903L45.028 12.179C45.6096 11.9694 45.9973 11.4175 45.9973 10.7992C45.9973 10.1809 45.6096 9.62905 45.028 9.41939H45.0243ZM33.5333 18.7198C30.7399 17.4482 24.854 17.3998 23.9996 17.3998C23.1453 17.3998 17.2593 17.4482 14.466 18.7198V12.3308C14.906 11.7661 18.3645 10.7996 23.9996 10.7996C29.6348 10.7996 33.0933 11.7661 33.5333 12.3308V18.7198ZM23.9996 21.8C18.5728 21.8 15.1649 20.9038 14.5276 20.3332C15.1649 19.7627 18.5742 18.8665 23.9996 18.8665C29.425 18.8665 32.8344 19.7627 33.4717 20.3332C32.8344 20.9038 29.4265 21.8 23.9996 21.8ZM37.544 13.2967L35 14.2038V12.2663C35 9.41499 25.1253 9.33286 23.9996 9.33286C22.8739 9.33286 12.9992 9.41499 12.9992 12.2663V14.2031L3.46559 10.7996L24.0099 3.46599L38.6668 8.70363V12.4012C38.2031 12.566 37.8078 12.8812 37.544 13.2967ZM40.1335 16.6664H38.6668V14.4664C38.6668 14.0613 38.9951 13.733 39.4002 13.733C39.8052 13.733 40.1335 14.0613 40.1335 14.4664V16.6664ZM40.1335 12.3719V9.22799L44.5337 10.7996L40.1335 12.3719Z" fill="#154BEC"/>
<path d="M43.8005 24.7334C43.7564 24.7333 43.7125 24.7372 43.6692 24.7451C37.1623 25.7567 30.5847 26.2433 23.9998 26.2001C17.4149 26.2433 10.8372 25.7567 4.33037 24.7451C4.287 24.7377 4.2431 24.7338 4.1991 24.7334C3.68575 24.7334 1.99902 25.3149 1.99902 32.8003C1.99902 40.2857 3.68575 40.8673 4.1991 40.8673C4.24314 40.8663 4.28703 40.8619 4.33037 40.8541C9.33019 40.0621 14.377 39.602 19.4376 39.4768L18.006 42.9104C17.7861 43.4602 17.9198 44.0884 18.3446 44.5009C18.7694 44.9135 19.4012 45.0288 19.9443 44.7929L20.5053 44.5531L20.7481 45.1112C20.9774 45.6524 21.509 46.003 22.0967 46.0008H22.1151C22.7072 45.9962 23.238 45.6348 23.4593 45.0856L24.7331 42.0362L26.0026 45.0738C26.222 45.6282 26.7551 45.9946 27.3512 46.0008H27.3732C27.957 46.0032 28.4857 45.6568 28.7167 45.1208L28.9617 44.5583L29.5139 44.7951C30.0594 45.0359 30.6965 44.9212 31.1237 44.5053C31.551 44.0893 31.6827 43.4556 31.4566 42.9038L30.0529 39.5377C34.6156 39.6992 39.1641 40.1401 43.6729 40.8577C43.715 40.8647 43.7577 40.8679 43.8005 40.8673C44.3138 40.8673 46.0005 40.2857 46.0005 32.8003C46.0005 25.3149 44.3138 24.7334 43.8005 24.7334ZM26.3465 27.6448C26.6511 28.7646 26.8285 29.9152 26.8753 31.0747C25.2125 30.3015 23.2622 30.4828 21.7704 31.5492C21.7329 30.2323 21.5641 28.9224 21.2666 27.639C22.1549 27.6575 23.066 27.6668 23.9998 27.6668C24.8013 27.6668 25.5794 27.658 26.3465 27.6448ZM24.7331 39.4006C22.708 39.4006 21.0663 37.7589 21.0663 35.7338C21.0663 33.7086 22.708 32.067 24.7331 32.067C26.7583 32.067 28.3999 33.7086 28.3999 35.7338C28.3975 37.7579 26.7573 39.3981 24.7331 39.4006ZM4.1991 26.5668C4.76101 28.5949 5.00834 30.6972 4.93246 32.8003C5.00834 34.9035 4.76101 37.0058 4.1991 39.0339C3.63719 37.0058 3.38986 34.9035 3.46574 32.8003C3.38986 30.6972 3.63719 28.5949 4.1991 26.5668ZM5.68048 39.1585C6.08163 37.9954 6.39918 36.0491 6.39918 32.8003C6.39918 29.5516 6.08163 27.6052 5.67975 26.4406C10.3399 27.0843 15.0319 27.4718 19.7346 27.6016C20.1744 29.2983 20.3758 31.048 20.333 32.8003C20.333 32.9067 20.333 33.0079 20.3286 33.1098C19.4485 34.5704 19.3599 36.375 20.0924 37.9148L20.0602 37.9925C15.2488 38.1104 10.4479 38.5002 5.68048 39.16V39.1585ZM22.0982 44.5341L21.5628 43.302C21.4018 42.9321 20.9722 42.7617 20.6014 42.9207L19.3672 43.4663L21.0869 39.3434C21.7929 40.0588 22.6936 40.551 23.6771 40.7587L22.0982 44.5341ZM28.8649 42.9207C28.4941 42.7617 28.0645 42.9321 27.9035 43.302L27.3608 44.5216L25.7884 40.7573C26.7727 40.5494 27.6741 40.057 28.3809 39.3412L30.0969 43.448L28.8649 42.9207ZM43.6538 39.3639C38.9422 38.6388 34.1912 38.1979 29.4266 38.0438L29.3746 37.9177C30.2968 35.9743 29.9015 33.6612 28.386 32.1344C28.3803 30.6136 28.2047 29.0981 27.8624 27.6162C33.1505 27.4978 38.4253 27.0368 43.6538 26.236C43.9941 26.8139 44.5338 29.0998 44.5338 32.8003C44.5338 36.5009 43.9904 38.786 43.6538 39.3639Z" fill="#154BEC"/>
</svg>
