<svg width="48" height="48" viewBox="0 0 48 48" fill="none" xmlns="http://www.w3.org/2000/svg">
<path d="M42.7 46H5.3C3.4806 46 2 44.5194 2 42.7V5.3C2 3.4806 3.4806 2 5.3 2H42.7C44.5194 2 46 3.4806 46 5.3V42.7C46 44.5194 44.5194 46 42.7 46ZM5.3 3.46667C4.28947 3.46667 3.46667 4.28947 3.46667 5.3V42.7C3.46667 43.7105 4.28947 44.5333 5.3 44.5333H42.7C43.7113 44.5333 44.5333 43.7105 44.5333 42.7V5.3C44.5333 4.28947 43.7105 3.46667 42.7 3.46667H5.3Z" fill="#154BEC"/>
<path d="M8.60026 9.33333H5.66693C5.26213 9.33333 4.93359 9.0048 4.93359 8.6V5.66667C4.93359 5.26187 5.26213 4.93333 5.66693 4.93333H8.60026C9.00506 4.93333 9.33359 5.26187 9.33359 5.66667V8.6C9.33359 9.0048 9.00506 9.33333 8.60026 9.33333ZM6.40026 7.86667H7.86693V6.4H6.40026V7.86667Z" fill="#154BEC"/>
<path d="M14.4665 9.33333H11.5331C11.1283 9.33333 10.7998 9.0048 10.7998 8.6V5.66667C10.7998 5.26187 11.1283 4.93333 11.5331 4.93333H14.4665C14.8713 4.93333 15.1998 5.26187 15.1998 5.66667V8.6C15.1998 9.0048 14.8713 9.33333 14.4665 9.33333ZM12.2665 7.86667H13.7331V6.4H12.2665V7.86667Z" fill="#154BEC"/>
<path d="M20.3337 9.33333H17.4003C16.9955 9.33333 16.667 9.0048 16.667 8.6V5.66667C16.667 5.26187 16.9955 4.93333 17.4003 4.93333H20.3337C20.7385 4.93333 21.067 5.26187 21.067 5.66667V8.6C21.067 9.0048 20.7385 9.33333 20.3337 9.33333ZM18.1337 7.86667H19.6003V6.4H18.1337V7.86667Z" fill="#154BEC"/>
<path d="M45.2667 12.2667H2.73333C2.32853 12.2667 2 11.9381 2 11.5333V5.3C2 3.4806 3.4806 2 5.3 2H42.7C44.5194 2 46 3.4806 46 5.3V11.5333C46 11.9381 45.6715 12.2667 45.2667 12.2667ZM3.46667 10.8H44.5333V5.3C44.5333 4.28947 43.7105 3.46667 42.7 3.46667H5.3C4.28947 3.46667 3.46667 4.28947 3.46667 5.3V10.8Z" fill="#154BEC"/>
<path d="M21.8003 29.8667H5.66693C5.26213 29.8667 4.93359 29.5381 4.93359 29.1333V14.4667C4.93359 14.0619 5.26213 13.7333 5.66693 13.7333H21.8003C22.2051 13.7333 22.5336 14.0619 22.5336 14.4667V29.1333C22.5336 29.5381 22.2051 29.8667 21.8003 29.8667ZM6.40026 28.4H21.0669V15.2H6.40026V28.4Z" fill="#154BEC"/>
<path d="M13.7338 29.8667C13.546 29.8667 13.3583 29.7948 13.2153 29.6518L9.33378 25.7703L6.18558 28.9185C5.89884 29.2052 5.43538 29.2052 5.14864 28.9185C4.86191 28.6317 4.86191 28.1683 5.14864 27.8815L8.81531 24.2149C9.10204 23.9281 9.56551 23.9281 9.85224 24.2149L14.2522 28.6149C14.539 28.9016 14.539 29.3651 14.2522 29.6518C14.1092 29.7948 13.9215 29.8667 13.7338 29.8667Z" fill="#154BEC"/>
<path d="M10.8005 22.5333C9.18279 22.5333 7.86719 21.2177 7.86719 19.6C7.86719 17.9823 9.18279 16.6667 10.8005 16.6667C12.4183 16.6667 13.7339 17.9823 13.7339 19.6C13.7339 21.2177 12.4183 22.5333 10.8005 22.5333ZM10.8005 18.1333C9.99165 18.1333 9.33385 18.7911 9.33385 19.6C9.33385 20.4089 9.99165 21.0667 10.8005 21.0667C11.6094 21.0667 12.2672 20.4089 12.2672 19.6C12.2672 18.7911 11.6094 18.1333 10.8005 18.1333Z" fill="#154BEC"/>
<path d="M21.8003 28.4C21.6126 28.4 21.4248 28.3281 21.2818 28.1851L16.6897 23.593L12.652 27.9945C12.3784 28.2937 11.915 28.3135 11.6158 28.0392C11.3173 27.7657 11.2968 27.3015 11.571 27.003L16.1258 22.0376C16.2607 21.8902 16.4506 21.8044 16.6501 21.8C16.8525 21.7912 17.0432 21.8733 17.1847 22.0149L22.318 27.1482C22.6048 27.4349 22.6048 27.8984 22.318 28.1851C22.1758 28.3281 21.988 28.4 21.8003 28.4Z" fill="#154BEC"/>
<path d="M42.3335 43.0667H26.2001C25.7953 43.0667 25.4668 42.7381 25.4668 42.3333V27.6667C25.4668 27.2619 25.7953 26.9333 26.2001 26.9333H42.3335C42.7383 26.9333 43.0668 27.2619 43.0668 27.6667V42.3333C43.0668 42.7381 42.7383 43.0667 42.3335 43.0667ZM26.9335 41.6H41.6001V28.4H26.9335V41.6Z" fill="#154BEC"/>
<path d="M34.267 43.0667C34.0792 43.0667 33.8915 42.9948 33.7485 42.8518L29.867 38.9703L26.7188 42.1185C26.432 42.4052 25.9686 42.4052 25.6818 42.1185C25.3951 41.8317 25.3951 41.3683 25.6818 41.0815L29.3485 37.4149C29.6352 37.1281 30.0987 37.1281 30.3854 37.4149L34.7854 41.8149C35.0722 42.1016 35.0722 42.5651 34.7854 42.8518C34.6424 42.9948 34.4547 43.0667 34.267 43.0667Z" fill="#154BEC"/>
<path d="M31.3327 35.7333C29.715 35.7333 28.3994 34.4177 28.3994 32.8C28.3994 31.1823 29.715 29.8667 31.3327 29.8667C32.9505 29.8667 34.2661 31.1823 34.2661 32.8C34.2661 34.4177 32.9505 35.7333 31.3327 35.7333ZM31.3327 31.3333C30.5239 31.3333 29.8661 31.9911 29.8661 32.8C29.8661 33.6089 30.5239 34.2667 31.3327 34.2667C32.1416 34.2667 32.7994 33.6089 32.7994 32.8C32.7994 31.9911 32.1416 31.3333 31.3327 31.3333Z" fill="#154BEC"/>
<path d="M42.3335 41.6C42.1458 41.6 41.958 41.5281 41.815 41.3851L37.2229 36.793L33.1852 41.1945C32.9116 41.4937 32.4482 41.5135 32.149 41.2392C31.8505 40.9657 31.83 40.5015 32.1042 40.203L36.659 35.2376C36.7939 35.0902 36.9838 35.0044 37.1833 35C37.3791 34.9919 37.5764 35.0733 37.7179 35.2149L42.8512 40.3482C43.138 40.6349 43.138 41.0984 42.8512 41.3851C42.709 41.5281 42.5212 41.6 42.3335 41.6Z" fill="#154BEC"/>
<path d="M37.9335 18.1333H26.2001C25.7953 18.1333 25.4668 17.8048 25.4668 17.4C25.4668 16.9952 25.7953 16.6667 26.2001 16.6667H37.9335C38.3383 16.6667 38.6668 16.9952 38.6668 17.4C38.6668 17.8048 38.3383 18.1333 37.9335 18.1333Z" fill="#154BEC"/>
<path d="M42.3328 18.1333H40.8661C40.4613 18.1333 40.1328 17.8048 40.1328 17.4C40.1328 16.9952 40.4613 16.6667 40.8661 16.6667H42.3328C42.7376 16.6667 43.0661 16.9952 43.0661 17.4C43.0661 17.8048 42.7376 18.1333 42.3328 18.1333Z" fill="#154BEC"/>
<path d="M37.9335 24H26.2001C25.7953 24 25.4668 23.6715 25.4668 23.2667C25.4668 22.8619 25.7953 22.5333 26.2001 22.5333H37.9335C38.3383 22.5333 38.6668 22.8619 38.6668 23.2667C38.6668 23.6715 38.3383 24 37.9335 24Z" fill="#154BEC"/>
<path d="M42.3328 24H40.8661C40.4613 24 40.1328 23.6715 40.1328 23.2667C40.1328 22.8619 40.4613 22.5333 40.8661 22.5333H42.3328C42.7376 22.5333 43.0661 22.8619 43.0661 23.2667C43.0661 23.6715 42.7376 24 42.3328 24Z" fill="#154BEC"/>
<path d="M42.3339 21.0667H30.6005C30.1957 21.0667 29.8672 20.7381 29.8672 20.3333C29.8672 19.9285 30.1957 19.6 30.6005 19.6H42.3339C42.7387 19.6 43.0672 19.9285 43.0672 20.3333C43.0672 20.7381 42.7387 21.0667 42.3339 21.0667Z" fill="#154BEC"/>
<path d="M27.6668 21.0667H26.2001C25.7953 21.0667 25.4668 20.7381 25.4668 20.3333C25.4668 19.9285 25.7953 19.6 26.2001 19.6H27.6668C28.0716 19.6 28.4001 19.9285 28.4001 20.3333C28.4001 20.7381 28.0716 21.0667 27.6668 21.0667Z" fill="#154BEC"/>
<path d="M17.4003 34.2667H5.66693C5.26213 34.2667 4.93359 33.9381 4.93359 33.5333C4.93359 33.1285 5.26213 32.8 5.66693 32.8H17.4003C17.8051 32.8 18.1336 33.1285 18.1336 33.5333C18.1336 33.9381 17.8051 34.2667 17.4003 34.2667Z" fill="#154BEC"/>
<path d="M21.8006 34.2667H20.3339C19.9291 34.2667 19.6006 33.9381 19.6006 33.5333C19.6006 33.1285 19.9291 32.8 20.3339 32.8H21.8006C22.2054 32.8 22.5339 33.1285 22.5339 33.5333C22.5339 33.9381 22.2054 34.2667 21.8006 34.2667Z" fill="#154BEC"/>
<path d="M17.4003 40.1333H5.66693C5.26213 40.1333 4.93359 39.8048 4.93359 39.4C4.93359 38.9952 5.26213 38.6667 5.66693 38.6667H17.4003C17.8051 38.6667 18.1336 38.9952 18.1336 39.4C18.1336 39.8048 17.8051 40.1333 17.4003 40.1333Z" fill="#154BEC"/>
<path d="M21.8006 40.1333H20.3339C19.9291 40.1333 19.6006 39.8048 19.6006 39.4C19.6006 38.9952 19.9291 38.6667 20.3339 38.6667H21.8006C22.2054 38.6667 22.5339 38.9952 22.5339 39.4C22.5339 39.8048 22.2054 40.1333 21.8006 40.1333Z" fill="#154BEC"/>
<path d="M21.7997 37.2H10.0663C9.66154 37.2 9.33301 36.8715 9.33301 36.4667C9.33301 36.0619 9.66154 35.7333 10.0663 35.7333H21.7997C22.2045 35.7333 22.533 36.0619 22.533 36.4667C22.533 36.8715 22.2045 37.2 21.7997 37.2Z" fill="#154BEC"/>
<path d="M7.13359 37.2H5.66693C5.26213 37.2 4.93359 36.8715 4.93359 36.4667C4.93359 36.0619 5.26213 35.7333 5.66693 35.7333H7.13359C7.53839 35.7333 7.86693 36.0619 7.86693 36.4667C7.86693 36.8715 7.53839 37.2 7.13359 37.2Z" fill="#154BEC"/>
</svg>
