<svg width="48" height="48" viewBox="0 0 48 48" fill="none" xmlns="http://www.w3.org/2000/svg">
<path d="M45.2676 41.071V24.0001C45.2656 23.8867 45.2367 23.7753 45.1833 23.6752H45.1906L43.3954 20.0855C43.0258 19.3371 42.2625 18.8643 41.4278 18.8667H36.4674V18.1333C36.4674 17.9388 36.3901 17.7523 36.2526 17.6148L32.2822 13.6445C32.0183 13.3833 31.6918 13.1942 31.334 13.0952V8.14877L32.8007 7.75496V9.53113V9.53626C32.7999 10.2893 33.1762 10.9928 33.8032 11.41C34.0212 11.5554 34.3002 11.5735 34.5351 11.4574C34.77 11.3413 34.9252 11.1087 34.9421 10.8472C34.959 10.5857 34.8352 10.3351 34.6172 10.1897C34.3984 10.0443 34.267 9.79895 34.2674 9.53626V9.53113V7.29661C34.7807 7.00012 35.0651 6.42376 34.9881 5.83598C34.9111 5.2482 34.4878 4.76458 33.9154 4.61035L24.3774 2.04949C24.1305 1.9835 23.8705 1.9835 23.6236 2.04949L14.0856 4.61035C13.4442 4.78547 12.9993 5.36815 12.9993 6.03305C12.9993 6.69795 13.4442 7.28063 14.0856 7.45575L16.667 8.14877V12.9999H16.6208C15.9688 13.0002 15.3507 13.2904 14.9341 13.7919L11.7074 17.664C11.5962 17.7952 11.5347 17.9613 11.5335 18.1333V18.8667H6.57317C5.73915 18.8638 4.97605 19.3353 4.60559 20.0826L2.81035 23.6723H2.81769C2.76382 23.7733 2.73491 23.8857 2.73335 24.0001V41.071C2.28106 41.3309 2.00157 41.8122 2 42.3339V43.8006C2 44.6106 2.65666 45.2673 3.4667 45.2673H13.2041C13.464 45.7196 13.9453 45.999 14.4669 46.0006H33.534C34.0557 45.999 34.537 45.7196 34.7969 45.2673H44.5343C45.3443 45.2673 46.001 44.6106 46.001 43.8006V42.3339C45.9994 41.8122 45.7199 41.3309 45.2676 41.071ZM34.2674 40.8672H33.534V24.7335H43.8009V40.8672H34.2674ZM26.2005 40.8672H21.8004V32.8003H26.2005V40.8672ZM26.9339 31.3336H21.0671C20.6621 31.3336 20.3337 31.662 20.3337 32.067V40.8672H15.9336V24.7335H32.0673V40.8672H27.6672V32.067C27.6672 31.662 27.3389 31.3336 26.9339 31.3336ZM35.0007 18.8667V20.3334H13.0002V18.8667H35.0007ZM33.534 21.8001V23.2668H14.4669V21.8001H33.534ZM41.4278 20.3334C41.7058 20.3325 41.9601 20.4898 42.0834 20.7389L43.3477 23.2668H35.0007V21.8001C35.8108 21.8001 36.4674 21.1434 36.4674 20.3334H41.4278ZM24.0005 3.46633L33.5443 6.03305H33.5348L24.0042 8.59978L14.4669 6.02718L24.0005 3.46633ZM18.1337 8.54257L23.6236 10.0166C23.8705 10.0831 24.1305 10.0831 24.3774 10.0166L29.8673 8.54257V12.9999H18.1337V8.54257ZM16.0576 14.7306C16.1969 14.5634 16.4032 14.4667 16.6208 14.4666H30.726C30.9208 14.4664 31.1076 14.5437 31.2453 14.6814L33.9638 17.4H13.8326L16.0576 14.7306ZM5.91755 20.7389C6.04089 20.4898 6.29518 20.3325 6.57317 20.3334H11.5335C11.5335 21.1434 12.1902 21.8001 13.0002 21.8001V23.2668H4.65326L5.91755 20.7389ZM3.4667 42.3339H13.0002V43.8006H3.4667V42.3339ZM13.7336 40.8672H4.20005V24.7335H14.4669V40.8672H13.7336ZM14.4669 44.5339V42.3339H33.534V44.5339H14.4669ZM44.5343 43.8006H35.0007V42.3339H44.5343V43.8006Z" fill="#154BEC"/>
<path d="M21.7998 26.2001C21.3947 26.2001 21.0664 26.5284 21.0664 26.9334V28.4001C21.0664 28.8051 21.3947 29.1335 21.7998 29.1335C22.2048 29.1335 22.5331 28.8051 22.5331 28.4001V26.9334C22.5331 26.5284 22.2048 26.2001 21.7998 26.2001Z" fill="#154BEC"/>
<path d="M11.5332 26.9334C11.1281 26.9334 10.7998 27.2618 10.7998 27.6668V29.1335C10.7998 29.5385 11.1281 29.8668 11.5332 29.8668C11.9382 29.8668 12.2665 29.5385 12.2665 29.1335V27.6668C12.2665 27.2618 11.9382 26.9334 11.5332 26.9334Z" fill="#154BEC"/>
<path d="M7.13276 26.9334C6.72775 26.9334 6.39941 27.2618 6.39941 27.6668V29.1335C6.39941 29.5385 6.72775 29.8668 7.13276 29.8668C7.53778 29.8668 7.86611 29.5385 7.86611 29.1335V27.6668C7.86611 27.2618 7.53778 26.9334 7.13276 26.9334Z" fill="#154BEC"/>
<path d="M11.5332 31.3335C11.1281 31.3335 10.7998 31.6619 10.7998 32.0669V33.5336C10.7998 33.9386 11.1281 34.2669 11.5332 34.2669C11.9382 34.2669 12.2665 33.9386 12.2665 33.5336V32.0669C12.2665 31.6619 11.9382 31.3335 11.5332 31.3335Z" fill="#154BEC"/>
<path d="M7.13276 31.3335C6.72775 31.3335 6.39941 31.6619 6.39941 32.0669V33.5336C6.39941 33.9386 6.72775 34.2669 7.13276 34.2669C7.53778 34.2669 7.86611 33.9386 7.86611 33.5336V32.0669C7.86611 31.6619 7.53778 31.3335 7.13276 31.3335Z" fill="#154BEC"/>
<path d="M11.5332 35.7336C11.1281 35.7336 10.7998 36.062 10.7998 36.467V37.9337C10.7998 38.3387 11.1281 38.667 11.5332 38.667C11.9382 38.667 12.2665 38.3387 12.2665 37.9337V36.467C12.2665 36.062 11.9382 35.7336 11.5332 35.7336Z" fill="#154BEC"/>
<path d="M7.13276 35.7336C6.72775 35.7336 6.39941 36.062 6.39941 36.467V37.9337C6.39941 38.3387 6.72775 38.667 7.13276 38.667C7.53778 38.667 7.86611 38.3387 7.86611 37.9337V36.467C7.86611 36.062 7.53778 35.7336 7.13276 35.7336Z" fill="#154BEC"/>
<path d="M40.8671 26.9334C40.4621 26.9334 40.1338 27.2618 40.1338 27.6668V29.1335C40.1338 29.5385 40.4621 29.8668 40.8671 29.8668C41.2722 29.8668 41.6005 29.5385 41.6005 29.1335V27.6668C41.6005 27.2618 41.2722 26.9334 40.8671 26.9334Z" fill="#154BEC"/>
<path d="M36.4667 26.9334C36.0617 26.9334 35.7334 27.2618 35.7334 27.6668V29.1335C35.7334 29.5385 36.0617 29.8668 36.4667 29.8668C36.8718 29.8668 37.2001 29.5385 37.2001 29.1335V27.6668C37.2001 27.2618 36.8718 26.9334 36.4667 26.9334Z" fill="#154BEC"/>
<path d="M40.8671 31.3335C40.4621 31.3335 40.1338 31.6619 40.1338 32.0669V33.5336C40.1338 33.9386 40.4621 34.2669 40.8671 34.2669C41.2722 34.2669 41.6005 33.9386 41.6005 33.5336V32.0669C41.6005 31.6619 41.2722 31.3335 40.8671 31.3335Z" fill="#154BEC"/>
<path d="M36.4667 31.3335C36.0617 31.3335 35.7334 31.6619 35.7334 32.0669V33.5336C35.7334 33.9386 36.0617 34.2669 36.4667 34.2669C36.8718 34.2669 37.2001 33.9386 37.2001 33.5336V32.0669C37.2001 31.6619 36.8718 31.3335 36.4667 31.3335Z" fill="#154BEC"/>
<path d="M40.8671 35.7336C40.4621 35.7336 40.1338 36.062 40.1338 36.467V37.9337C40.1338 38.3387 40.4621 38.667 40.8671 38.667C41.2722 38.667 41.6005 38.3387 41.6005 37.9337V36.467C41.6005 36.062 41.2722 35.7336 40.8671 35.7336Z" fill="#154BEC"/>
<path d="M36.4667 35.7336C36.0617 35.7336 35.7334 36.062 35.7334 36.467V37.9337C35.7334 38.3387 36.0617 38.667 36.4667 38.667C36.8718 38.667 37.2001 38.3387 37.2001 37.9337V36.467C37.2001 36.062 36.8718 35.7336 36.4667 35.7336Z" fill="#154BEC"/>
<path d="M26.2001 26.2001C25.7951 26.2001 25.4668 26.5284 25.4668 26.9334V28.4001C25.4668 28.8051 25.7951 29.1335 26.2001 29.1335C26.6052 29.1335 26.9335 28.8051 26.9335 28.4001V26.9334C26.9335 26.5284 26.6052 26.2001 26.2001 26.2001Z" fill="#154BEC"/>
</svg>
