<svg width="32" height="32" viewBox="0 0 32 32" fill="none" xmlns="http://www.w3.org/2000/svg">
<path d="M28.4 10.6C27.5 8.49999 24.7 7.59999 21.1 7.89999C19.9 5.09999 18.1 3.29999 16 3.29999C15.1 3.29999 14.1 3.69999 13.4 4.29999C13.3 4.29999 13.2 4.19999 13.2 4.19999C12.3 3.89999 11.2 4.29999 10.9 5.29999C10.7 5.99999 10.8 6.69999 11.3 7.19999C11.2 7.39999 11 7.69999 10.9 7.99999C10.4 7.99999 9.79996 7.89999 9.29996 7.99999C6.29996 7.99999 4.29996 8.99999 3.49996 10.7C2.89996 12.1 3.39996 14 4.89996 16C3.39996 18 2.89996 19.9 3.59996 21.4C4.29996 23.1 6.39996 24.1 9.29996 24.2H9.69996C10.1 24.2 10.5 24.2 10.9 24.2C12.1 27 13.9 28.8 16 28.8C18.1 28.8 19.9 27 21.1 24.2C21.4 24.2 21.8 24.2 22.1 24.2C22.1 24.3 22.2 24.4 22.3 24.5C22.6 24.9 23 25.2 23.4 25.3C23.5 25.3 23.7 25.3 23.8 25.3C24.6 25.3 25.3 24.8 25.6 24C25.6 23.9 25.6 23.8 25.6 23.7C26.8 23.4 27.8 22.5 28.4 21.4C29.1 19.8 28.5 17.9 27.1 16C28.5 14.1 29 12.2 28.4 10.6ZM22.3 8.89999C24.9 8.89999 26.9 9.59999 27.5 11.1C28 12.3 27.6 13.8 26.4 15.3C25.2 14 23.7 12.8 22.2 11.9C22 10.9 21.8 9.89999 21.5 8.99999L22.3 8.89999ZM18.3 21.2C17.5 21.5 16.8 21.8 16 22.1C15.2 21.8 14.5 21.6 13.7 21.2C12.6 20.7 11.6 20.2 10.6 19.6C10.2 17.2 10.2 14.8 10.6 12.4C11.6 11.8 12.6 11.3 13.7 10.8C14.4 10.5 15.2 10.2 15.9 9.99999C16.7 10.3 17.4 10.5 18.2 10.9C19.3 11.4 20.3 11.9 21.3 12.5C21.5 13.7 21.6 14.9 21.6 16.1C21.6 17.3 21.5 18.5 21.3 19.7C20.3 20.2 19.3 20.8 18.3 21.2ZM21.1 20.9C20.9 21.6 20.7 22.3 20.5 23.1C19.5 23 18.6 22.8 17.7 22.6L18.7 22.2C19.5 21.8 20.3 21.4 21.1 20.9ZM14.4 22.5C13.5 22.7 12.5 22.9 11.6 23C11.3 22.3 11.1 21.6 11 20.8C11.8 21.2 12.6 21.6 13.4 22L14.4 22.5ZM9.59996 18.9C8.29996 18.1 7.19996 17.1 6.19996 16C7.19996 14.9 8.39996 13.9 9.59996 13.1C9.49996 14.1 9.39996 15 9.39996 16C9.39996 17 9.49996 18 9.59996 18.9ZM10.9 11.1C11.1 10.4 11.3 9.59999 11.5 8.89999C12.5 8.99999 13.4 9.19999 14.3 9.39999C13.9 9.49999 13.6 9.69999 13.3 9.79999C12.5 10.3 11.6 10.7 10.9 11.1ZM17.6 9.49999C18.5 9.29999 19.5 9.09999 20.4 8.89999C20.7 9.59999 20.9 10.3 21 11C20.2 10.6 19.4 10.2 18.6 9.79999C18.3 9.79999 17.9 9.59999 17.6 9.49999ZM22.4 13.1C23.6 13.9 24.8 14.9 25.7 16C24.7 17.1 23.6 18.1 22.4 18.9C22.5 17.9 22.5 16.9 22.5 16C22.5 15 22.5 14.1 22.4 13.1ZM11.6 5.59999C11.7 5.19999 12.1 4.89999 12.5 4.89999C12.6 4.89999 12.7 4.89999 12.8 4.99999C13.1 5.09999 13.3 5.29999 13.4 5.49999C13.6 5.99999 13.4 6.59999 12.9 6.79999C12.4 6.99999 11.8 6.79999 11.6 6.29999C11.5 6.09999 11.5 5.79999 11.6 5.59999ZM12.1 7.59999C12.3 7.59999 12.4 7.69999 12.6 7.69999C13.6 7.69999 14.4 6.89999 14.4 5.89999C14.4 5.59999 14.3 5.39999 14.2 5.09999C14.2 4.99999 14.1 4.99999 14.1 4.89999C14.6 4.49999 15.3 4.19999 16 4.19999C17.6 4.19999 19 5.59999 20 7.89999C18.6 8.09999 17.3 8.39999 15.9 8.79999C14.6 8.39999 13.2 8.09999 11.8 7.89999C12 7.89999 12 7.79999 12.1 7.59999ZM4.49996 11C4.99996 9.69999 6.79996 8.89999 9.29996 8.79999C9.69996 8.79999 10.1 8.79999 10.5 8.79999C10.2 9.69999 9.89996 10.7 9.69996 11.7C8.09996 12.7 6.69996 13.8 5.49996 15.2C4.39996 13.6 3.99996 12.1 4.49996 11ZM9.29996 23.2C6.79996 23.1 4.99996 22.3 4.49996 21C3.99996 19.9 4.39996 18.4 5.59996 16.8C6.79996 18.1 8.29996 19.3 9.79996 20.3C9.99996 21.3 10.2 22.3 10.5 23.2C10.1 23.2 9.69996 23.2 9.29996 23.2ZM16 27.8C14.4 27.8 13 26.3 12 24.1C13.4 23.9 14.7 23.6 16 23.2C17.3 23.6 18.6 23.9 20 24.1C19 26.3 17.5 27.8 16 27.8ZM24.8 23.8C24.7 24.3 24.1 24.7 23.6 24.5C23.1 24.4 22.7 23.8 22.9 23.3C23 22.8 23.4 22.5 23.9 22.5C24 22.5 24.1 22.5 24.1 22.5C24.6 22.7 24.9 23.3 24.8 23.8C24.7 23.8 24.7 23.8 24.8 23.8ZM27.5 21C27.1 21.8 26.3 22.4 25.4 22.7V22.6C24.9 21.7 23.8 21.5 22.9 22C22.5 22.3 22.2 22.7 22.1 23.1C22.1 23.1 22.1 23.1 22.1 23.2H21.5C21.8 22.3 22.1 21.3 22.2 20.3C23.7 19.3 25.1 18.2 26.4 16.8C27.5 18.4 27.9 19.9 27.5 21Z" fill="#121E28"/>
<path d="M15.9896 16.8357C16.1783 16.0182 16.5766 15.4077 17.2266 14.942C17.9499 14.4246 18.6836 13.9072 19.3755 13.3484C19.5432 13.2139 19.7109 13.0691 19.8682 12.9242C20.0254 12.7897 20.1617 12.6344 20.2665 12.4585C20.3189 12.4689 20.3294 12.4999 20.3399 12.531C20.581 13.0277 20.8116 13.5347 21.0632 14.0314C21.1261 14.1452 21.0946 14.228 21.0213 14.3211C20.8326 14.5281 20.6229 14.704 20.4133 14.8799C19.7948 15.387 19.1344 15.8423 18.4845 16.3183C17.9289 16.7219 17.3733 17.1151 16.8492 17.5497C16.5452 17.798 16.2412 18.0464 15.9896 18.3568C15.3187 17.6118 14.4906 17.053 13.6939 16.4632C12.9601 15.9147 12.1949 15.3973 11.4821 14.8178C11.2934 14.6626 11.0942 14.4971 10.937 14.3108C10.8741 14.2384 10.8322 14.1763 10.8846 14.0728C11.1466 13.5347 11.3982 12.9966 11.6603 12.4482C12.2368 13.1622 12.9811 13.6485 13.6939 14.1866C14.0608 14.466 14.4382 14.7247 14.8051 14.9938C15.3711 15.4077 15.738 15.9561 15.9162 16.6287C15.9372 16.6805 15.9582 16.7426 15.9896 16.8357Z" fill="#FF1919"/>
<path d="M10.5804 14.704C11.1464 15.356 11.8173 15.832 12.4777 16.3183C13.2849 16.9081 14.1025 17.4773 14.8992 18.0981C14.9935 18.1706 15.0984 18.2534 15.1927 18.3361C15.4967 18.5845 15.7902 18.8432 15.9789 19.2364C16.3668 18.5431 17.0062 18.1602 17.5827 17.7256C18.2327 17.2289 18.9036 16.7633 19.564 16.2769C20.2034 15.8113 20.8428 15.3353 21.3775 14.7247C21.4928 14.8903 21.5452 15.0559 21.629 15.2111C21.671 15.2835 21.629 15.3353 21.5976 15.3973C21.5242 15.5215 21.4194 15.6147 21.3146 15.7078C21.0944 15.9044 20.8638 16.0803 20.6227 16.2459C19.6897 16.9185 18.7463 17.5808 17.8134 18.2534C17.6876 18.3361 17.5723 18.4293 17.457 18.5328C17.153 18.8018 16.9433 19.1122 16.8804 19.5158C16.8594 19.6193 16.828 19.6607 16.7232 19.6503C16.241 19.6503 15.7483 19.6503 15.2661 19.6503C15.1927 19.6503 15.1403 19.64 15.1298 19.5469C15.0564 19.0088 14.721 18.6362 14.2912 18.3361C13.7251 17.9326 13.1696 17.529 12.6035 17.1151C12.0794 16.7322 11.5448 16.3597 11.0206 15.9768C10.811 15.8216 10.6223 15.656 10.4441 15.4594C10.3497 15.3456 10.3183 15.2421 10.4022 15.0973C10.4546 14.9938 10.507 14.8593 10.5804 14.704Z" fill="#FF1919"/>
</svg>
