<svg width="32" height="32" viewBox="0 0 32 32" fill="none" xmlns="http://www.w3.org/2000/svg">
<path fill-rule="evenodd" clip-rule="evenodd" d="M1.16602 4.72718C1.16602 4.28535 1.52419 3.92719 1.96602 3.92719H11.7492C12.191 3.92719 12.5492 4.28536 12.5492 4.72719V27.9217C12.5492 28.3635 12.191 28.7217 11.7492 28.7217H1.96602C1.52419 28.7217 1.16602 28.3635 1.16602 27.9217V4.72718ZM2.16602 4.92719V27.7217H11.5492V4.92719H2.16602Z" fill="#121E28"/>
<path fill-rule="evenodd" clip-rule="evenodd" d="M0.414062 30.5503C0.414062 30.9921 0.772235 31.3503 1.21406 31.3503H31.032C31.4739 31.3503 31.832 30.9921 31.832 30.5503V28.5216C31.832 28.0798 31.4739 27.7216 31.032 27.7216H1.21406C0.77223 27.7216 0.414062 28.0798 0.414062 28.5216V30.5503ZM1.41406 30.3503V28.7216H30.832V30.3503H1.41406Z" fill="#121E28"/>
<path fill-rule="evenodd" clip-rule="evenodd" d="M31.0801 4.72718C31.0801 4.28535 30.7219 3.92719 30.2801 3.92719H20.4969C20.0551 3.92719 19.6969 4.28536 19.6969 4.72719V27.9217C19.6969 28.3635 20.0551 28.7217 20.4969 28.7217H30.2801C30.7219 28.7217 31.0801 28.3635 31.0801 27.9217V4.72718ZM30.0801 4.92719V27.7217H20.6969V4.92719H30.0801Z" fill="#121E28"/>
<path fill-rule="evenodd" clip-rule="evenodd" d="M11.749 12.5492C11.749 12.1074 12.1072 11.7492 12.549 11.7492H19.6981C20.1399 11.7492 20.4981 12.1074 20.4981 12.5492V27.9217C20.4981 28.3635 20.1399 28.7217 19.6981 28.7217H12.549C12.1072 28.7217 11.749 28.3635 11.749 27.9217V12.5492ZM12.749 12.7492V27.7217H19.4981V12.7492H12.749Z" fill="#121E28"/>
<path fill-rule="evenodd" clip-rule="evenodd" d="M14.3516 18.2473C14.3516 17.8055 14.7097 17.4473 15.1516 17.4473H17.0942C17.536 17.4473 17.8942 17.8055 17.8942 18.2473V23.6091C17.8942 24.0509 17.536 24.4091 17.0942 24.4091H15.1516C14.7097 24.4091 14.3516 24.0509 14.3516 23.6091V18.2473ZM15.3516 18.4473V23.4091H16.8942V18.4473H15.3516Z" fill="#121E28"/>
<path fill-rule="evenodd" clip-rule="evenodd" d="M13.4814 27.9217C13.4814 28.3635 13.8396 28.7217 14.2814 28.7217H17.9646C18.4064 28.7217 18.7646 28.3635 18.7646 27.9217V24.2087C18.7646 23.7668 18.4064 23.4087 17.9646 23.4087H14.2814C13.8396 23.4087 13.4814 23.7668 13.4814 24.2087V27.9217ZM14.4814 27.7217V24.4087H17.7646V27.7217H14.4814Z" fill="#121E28"/>
<path fill-rule="evenodd" clip-rule="evenodd" d="M14.9414 17.6473C14.9414 18.0892 15.2996 18.4473 15.7414 18.4473H16.505C16.9469 18.4473 17.305 18.0892 17.305 17.6473V15.3733C17.305 14.9315 16.9469 14.5733 16.505 14.5733H15.7414C15.2996 14.5733 14.9414 14.9315 14.9414 15.3733V17.6473ZM15.9414 17.4473V15.5733H16.305V17.4473H15.9414Z" fill="#121E28"/>
<path fill-rule="evenodd" clip-rule="evenodd" d="M0.414062 4.12706C0.414062 4.56889 0.772235 4.92706 1.21406 4.92706H12.4998C12.9416 4.92706 13.2998 4.56889 13.2998 4.12706V2.5512C13.2998 2.10937 12.9416 1.7512 12.4998 1.7512H1.21406C0.772235 1.7512 0.414062 2.10937 0.414062 2.5512V4.12706ZM1.41406 3.92706V2.7512H12.2998V3.92706H1.41406Z" fill="#121E28"/>
<path fill-rule="evenodd" clip-rule="evenodd" d="M31.832 4.12719C31.832 4.56901 31.4739 4.92719 31.032 4.92719H19.7463C19.3045 4.92719 18.9463 4.56901 18.9463 4.12719V2.55132C18.9463 2.10949 19.3045 1.75132 19.7463 1.75132H31.032C31.4739 1.75132 31.832 2.10949 31.832 2.55132V4.12719ZM30.832 3.92719V2.75132H19.9463V3.92719H30.832Z" fill="#121E28"/>
<path fill-rule="evenodd" clip-rule="evenodd" d="M11.5488 11.9492C11.5488 12.391 11.907 12.7492 12.3488 12.7492H19.6979C20.1398 12.7492 20.4979 12.391 20.4979 11.9492V10.3733C20.4979 9.93152 20.1398 9.57334 19.6979 9.57334H12.3488C11.907 9.57334 11.5488 9.93152 11.5488 10.3733V11.9492ZM12.5488 11.7492V10.5733H19.4979V11.7492H12.5488Z" fill="#121E28"/>
<path fill-rule="evenodd" clip-rule="evenodd" d="M3.99023 12.5492C3.99023 12.1074 4.34841 11.7492 4.79023 11.7492H11.7498C12.1916 11.7492 12.5498 12.1074 12.5498 12.5492V13.7604C12.5498 14.2022 12.1916 14.5604 11.7498 14.5604H4.79023C4.34841 14.5604 3.99023 14.2022 3.99023 13.7604V12.5492ZM4.99023 12.7492V13.5604H11.5498V12.7492H4.99023Z" fill="#121E28"/>
<path fill-rule="evenodd" clip-rule="evenodd" d="M3.99023 6.96302C3.99023 6.5212 4.34841 6.16302 4.79023 6.16302H5.41302C5.85485 6.16302 6.21302 6.5212 6.21302 6.96302V9.77333C6.21302 10.2152 5.85485 10.5733 5.41302 10.5733H4.79023C4.34841 10.5733 3.99023 10.2152 3.99023 9.77333V6.96302ZM4.99023 7.16302V9.57333H5.21302V7.16302H4.99023Z" fill="#121E28"/>
<path fill-rule="evenodd" clip-rule="evenodd" d="M22.6934 6.96302C22.6934 6.5212 23.0515 6.16302 23.4934 6.16302H24.1161C24.558 6.16302 24.9161 6.5212 24.9161 6.96302V9.77333C24.9161 10.2152 24.558 10.5733 24.1161 10.5733H23.4934C23.0515 10.5733 22.6934 10.2152 22.6934 9.77333V6.96302ZM23.6934 7.16302V9.57333H23.9161V7.16302H23.6934Z" fill="#121E28"/>
<path fill-rule="evenodd" clip-rule="evenodd" d="M7.1582 6.96302C7.1582 6.5212 7.51638 6.16302 7.9582 6.16302H8.58099C9.02282 6.16302 9.38099 6.5212 9.38099 6.96302V9.77333C9.38099 10.2152 9.02282 10.5733 8.58099 10.5733H7.9582C7.51638 10.5733 7.1582 10.2152 7.1582 9.77333V6.96302ZM8.1582 7.16302V9.57333H8.38099V7.16302H8.1582Z" fill="#121E28"/>
<path fill-rule="evenodd" clip-rule="evenodd" d="M25.8613 6.96302C25.8613 6.5212 26.2195 6.16302 26.6613 6.16302H27.2841C27.7259 6.16302 28.0841 6.5212 28.0841 6.96302V9.77333C28.0841 10.2152 27.7259 10.5733 27.2841 10.5733H26.6613C26.2195 10.5733 25.8613 10.2152 25.8613 9.77333V6.96302ZM26.8613 7.16302V9.57333H27.0841V7.16302H26.8613Z" fill="#121E28"/>
<path fill-rule="evenodd" clip-rule="evenodd" d="M28.2568 12.5492C28.2568 12.1074 27.8987 11.7492 27.4568 11.7492H20.4973C20.0555 11.7492 19.6973 12.1074 19.6973 12.5492V13.7604C19.6973 14.2022 20.0555 14.5604 20.4973 14.5604H27.4568C27.8987 14.5604 28.2568 14.2022 28.2568 13.7604V12.5492ZM27.2568 12.7492V13.5604H20.6973V12.7492H27.2568Z" fill="#121E28"/>
<path fill-rule="evenodd" clip-rule="evenodd" d="M3.99023 16.4357C3.99023 15.9939 4.34841 15.6357 4.79023 15.6357H11.7498C12.1916 15.6357 12.5498 15.9939 12.5498 16.4357V17.6469C12.5498 18.0888 12.1916 18.4469 11.7498 18.4469H4.79023C4.34841 18.4469 3.99023 18.0888 3.99023 17.6469V16.4357ZM4.99023 16.6357V17.4469H11.5498V16.6357H4.99023Z" fill="#121E28"/>
<path fill-rule="evenodd" clip-rule="evenodd" d="M28.2568 16.4357C28.2568 15.9939 27.8987 15.6357 27.4568 15.6357H20.4973C20.0555 15.6357 19.6973 15.9939 19.6973 16.4357V17.6469C19.6973 18.0888 20.0555 18.4469 20.4973 18.4469H27.4568C27.8987 18.4469 28.2568 18.0888 28.2568 17.6469V16.4357ZM27.2568 16.6357V17.4469H20.6973V16.6357H27.2568Z" fill="#121E28"/>
<path fill-rule="evenodd" clip-rule="evenodd" d="M3.99023 20.3221C3.99023 19.8803 4.34841 19.5221 4.79023 19.5221H11.7498C12.1916 19.5221 12.5498 19.8803 12.5498 20.3221V21.5333C12.5498 21.9751 12.1916 22.3333 11.7498 22.3333H4.79023C4.34841 22.3333 3.99023 21.9751 3.99023 21.5333V20.3221ZM4.99023 20.5221V21.3333H11.5498V20.5221H4.99023Z" fill="#121E28"/>
<path fill-rule="evenodd" clip-rule="evenodd" d="M28.2568 20.3221C28.2568 19.8803 27.8987 19.5221 27.4568 19.5221H20.4973C20.0555 19.5221 19.6973 19.8803 19.6973 20.3221V21.5333C19.6973 21.9751 20.0555 22.3333 20.4973 22.3333H27.4568C27.8987 22.3333 28.2568 21.9751 28.2568 21.5333V20.3221ZM27.2568 20.5221V21.3333H20.6973V20.5221H27.2568Z" fill="#121E28"/>
<path fill-rule="evenodd" clip-rule="evenodd" d="M3.99023 24.2086C3.99023 23.7668 4.34841 23.4086 4.79023 23.4086H11.7498C12.1916 23.4086 12.5498 23.7668 12.5498 24.2086V25.4198C12.5498 25.8617 12.1916 26.2198 11.7498 26.2198H4.79023C4.34841 26.2198 3.99023 25.8617 3.99023 25.4198V24.2086ZM4.99023 24.4086V25.2198H11.5498V24.4086H4.99023Z" fill="#121E28"/>
<path fill-rule="evenodd" clip-rule="evenodd" d="M28.2568 24.2086C28.2568 23.7668 27.8987 23.4086 27.4568 23.4086H20.4973C20.0555 23.4086 19.6973 23.7668 19.6973 24.2086V25.4198C19.6973 25.8617 20.0555 26.2198 20.4973 26.2198H27.4568C27.8987 26.2198 28.2568 25.8617 28.2568 25.4198V24.2086ZM27.2568 24.4086V25.2198H20.6973V24.4086H27.2568Z" fill="#121E28"/>
</svg>
