<svg width="32" height="32" viewBox="0 0 32 32" fill="none" xmlns="http://www.w3.org/2000/svg">
<path d="M29.5105 26.6904H28.7734C28.8426 26.4488 28.878 26.1966 28.878 25.9391C28.878 24.4596 27.6914 23.2528 26.2199 23.2185V6.80102H26.7068C27.0088 6.80102 27.2537 6.55613 27.2537 6.25414V2.54688C27.2537 2.24484 27.0088 2 26.7068 2H5.4151C5.11312 2 4.86823 2.24484 4.86823 2.54688V6.25414C4.86823 6.55613 5.11312 6.80102 5.4151 6.80102H5.90198V23.2185C4.43051 23.2528 3.2439 24.4596 3.2439 25.9392C3.2439 26.1968 3.27934 26.4488 3.34846 26.6904H2.61133C2.30929 26.6904 2.06445 26.9353 2.06445 27.2373V29.4531C2.06445 29.7551 2.30929 30 2.61133 30H29.5105C29.8126 30 30.0574 29.7551 30.0574 29.4531V27.2372C30.0574 26.9353 29.8126 26.6904 29.5105 26.6904ZM27.7843 25.9391C27.7843 26.2045 27.7216 26.46 27.6012 26.6904H24.7103C24.7102 26.6901 24.7101 26.69 24.71 26.6898C24.7095 26.6887 24.709 26.6877 24.7085 26.6866C24.6911 26.6531 24.6752 26.6189 24.6602 26.5843C24.6556 26.5737 24.6514 26.5629 24.647 26.5521C24.6362 26.5256 24.6261 26.4988 24.6168 26.4718C24.613 26.461 24.6091 26.4501 24.6056 26.4392C24.5937 26.4023 24.5827 26.3652 24.5736 26.3275C24.5734 26.3269 24.5733 26.3263 24.5731 26.3256C24.5641 26.2885 24.5568 26.2509 24.5504 26.2131C24.5485 26.2017 24.5469 26.1901 24.5453 26.1787C24.5411 26.1501 24.5377 26.1213 24.535 26.0924C24.5339 26.0808 24.5327 26.0692 24.5319 26.0576C24.5291 26.0183 24.5272 25.9789 24.5272 25.9391C24.5272 25.9136 24.528 25.8882 24.5291 25.8629C24.5297 25.8505 24.5307 25.8382 24.5316 25.8259C24.5324 25.8141 24.5332 25.8023 24.5343 25.7906C24.5359 25.7731 24.5378 25.7558 24.54 25.7385C24.5406 25.7336 24.5412 25.7287 24.5419 25.7239C24.6097 25.2243 24.9098 24.7832 25.3375 24.5319C25.3433 24.5285 25.3492 24.5252 25.355 24.5218C25.3681 24.5144 25.3812 24.5071 25.3945 24.5C25.4069 24.4935 25.4194 24.4871 25.432 24.4808C25.44 24.4768 25.448 24.4727 25.4562 24.4688C25.5491 24.4244 25.6469 24.3884 25.7485 24.3622C25.7492 24.3619 25.7499 24.3618 25.7507 24.3616C25.8803 24.3283 26.0159 24.3106 26.1558 24.3106C27.0537 24.3106 27.7843 25.0412 27.7843 25.9391ZM23.8733 22.2593H20.5778C20.2758 22.2593 20.0309 22.5041 20.0309 22.8061V26.6904H18.2556V22.8061C18.2556 22.5041 18.0107 22.2593 17.7087 22.2593H14.4132C14.1112 22.2593 13.8663 22.5041 13.8663 22.8061V26.6904H12.091V22.8061C12.091 22.5041 11.8462 22.2593 11.5441 22.2593H8.24857C7.94659 22.2593 7.7017 22.5041 7.7017 22.8061V23.8369C7.49213 23.6646 7.25501 23.5223 6.99573 23.4174V20.622H25.1262V23.4174C24.8668 23.5222 24.6298 23.6645 24.4202 23.8369V22.8061C24.4202 22.5041 24.1754 22.2593 23.8733 22.2593ZM23.3264 23.353V26.6904H21.1246V23.353H23.3264ZM17.1619 23.353V26.6904H14.96V23.353H17.1619ZM10.9973 23.353V26.6904H8.79545V23.353H10.9973ZM23.8733 15.1389H20.5778C20.2758 15.1389 20.0309 15.3838 20.0309 15.6858V19.5283H18.2556V15.6858C18.2556 15.3838 18.0107 15.1389 17.7087 15.1389H14.4132C14.1112 15.1389 13.8663 15.3838 13.8663 15.6858V19.5283H12.091V15.6858C12.091 15.3838 11.8462 15.1389 11.5441 15.1389H8.24857C7.94659 15.1389 7.7017 15.3838 7.7017 15.6858V19.5283H6.99573V6.80102H25.1262V19.5283H24.4202V15.6858C24.4202 15.3838 24.1754 15.1389 23.8733 15.1389ZM23.3264 16.2327V19.5283H21.1246V16.2327H23.3264ZM17.1619 16.2327V19.5283H14.96V16.2327H17.1619ZM10.9973 16.2327V19.5283H8.79545V16.2327H10.9973ZM5.96198 4.92245H22.534C22.836 4.92245 23.0809 4.67755 23.0809 4.37557C23.0809 4.07359 22.836 3.8287 22.534 3.8287H5.96198V3.09375H26.1599V5.70727H5.96198V4.92245ZM5.96613 24.3106C6.10488 24.3106 6.23962 24.3282 6.3683 24.361C6.37055 24.3616 6.37273 24.3621 6.37498 24.3626C6.4756 24.3888 6.57251 24.4244 6.66466 24.4684C6.67428 24.473 6.68374 24.4778 6.69326 24.4826C6.7043 24.4881 6.7153 24.4937 6.72618 24.4995C6.74056 24.5071 6.75478 24.515 6.76889 24.523C6.77359 24.5257 6.7783 24.5284 6.78295 24.5311C7.21137 24.7823 7.51204 25.2238 7.57996 25.7239C7.58062 25.7287 7.58122 25.7336 7.58182 25.7384C7.58401 25.7557 7.58592 25.7731 7.58756 25.7905C7.5886 25.8022 7.58942 25.814 7.59024 25.8258C7.59112 25.8382 7.5921 25.8505 7.5927 25.8629C7.59385 25.8882 7.59462 25.9135 7.59462 25.9391C7.59462 25.9788 7.59276 26.0183 7.58997 26.0575C7.58915 26.0692 7.58794 26.0808 7.58685 26.0924C7.58417 26.1213 7.58073 26.15 7.57657 26.1786C7.57487 26.1901 7.57334 26.2016 7.57143 26.2131C7.56503 26.2508 7.55776 26.2885 7.54873 26.3255C7.54857 26.3262 7.54846 26.3268 7.5483 26.3275C7.53911 26.3651 7.52817 26.4023 7.51625 26.4391C7.51275 26.4501 7.50887 26.4608 7.50509 26.4717C7.49574 26.4987 7.48568 26.5255 7.47485 26.5521C7.47048 26.5628 7.46621 26.5736 7.46162 26.5843C7.44669 26.6188 7.43083 26.653 7.41338 26.6866C7.41284 26.6876 7.4124 26.6887 7.41185 26.6897C7.41174 26.6899 7.41163 26.6901 7.41152 26.6903H4.52069C4.40032 26.46 4.33765 26.2045 4.33765 25.9391C4.33759 25.0412 5.06816 24.3106 5.96613 24.3106ZM28.9636 28.9062H3.15826V27.7841H28.9636V28.9062Z" fill="#121E28"/>
<path d="M23.8737 8.01849H20.5781C20.2761 8.01849 20.0312 8.26338 20.0312 8.56537V12.9547C20.0312 13.2567 20.2761 13.5016 20.5781 13.5016H23.8737C24.1757 13.5016 24.4206 13.2567 24.4206 12.9547V8.56537C24.4206 8.26338 24.1758 8.01849 23.8737 8.01849ZM23.3268 12.4079H21.125V9.1123H23.3268V12.4079Z" fill="#121E28"/>
<path d="M17.7087 8.01849H14.4131C14.1111 8.01849 13.8662 8.26338 13.8662 8.56537V12.9547C13.8662 13.2567 14.1111 13.5016 14.4131 13.5016H17.7087C18.0106 13.5016 18.2555 13.2567 18.2555 12.9547V8.56537C18.2555 8.26338 18.0106 8.01849 17.7087 8.01849ZM17.1618 12.4079H14.96V9.1123H17.1618V12.4079Z" fill="#121E28"/>
<path d="M11.5436 8.01849H8.24805C7.94606 8.01849 7.70117 8.26338 7.70117 8.56537V12.9547C7.70117 13.2567 7.94601 13.5016 8.24805 13.5016H11.5436C11.8457 13.5016 12.0905 13.2567 12.0905 12.9547V8.56537C12.0905 8.26338 11.8457 8.01849 11.5436 8.01849ZM10.9967 12.4079H8.79492V9.1123H10.9967V12.4079Z" fill="#121E28"/>
<path d="M24.8754 4.26839C24.8682 4.23394 24.8579 4.19948 24.8442 4.16613C24.8305 4.13331 24.8136 4.10159 24.7939 4.07206C24.7736 4.04198 24.7512 4.01415 24.7255 3.98894C24.7004 3.96378 24.6725 3.94081 24.6424 3.92058C24.6129 3.90089 24.5811 3.88394 24.5483 3.87027C24.5155 3.85659 24.481 3.8462 24.446 3.83909C24.3755 3.82488 24.3028 3.82488 24.2322 3.83909C24.1972 3.8462 24.1627 3.85659 24.13 3.87027C24.0971 3.88394 24.0654 3.90089 24.0354 3.92058C24.0058 3.94081 23.9774 3.96378 23.9522 3.98894C23.9271 4.01409 23.9041 4.04198 23.8844 4.07206C23.8647 4.10159 23.8478 4.13331 23.8341 4.16613C23.8204 4.19948 23.81 4.23394 23.8029 4.26839C23.7958 4.30394 23.792 4.34009 23.792 4.37558C23.792 4.41113 23.7958 4.44727 23.8029 4.48222C23.81 4.51722 23.8204 4.55167 23.8341 4.58448C23.8478 4.61784 23.8647 4.64956 23.8844 4.67909C23.9041 4.70917 23.9271 4.73706 23.9522 4.76222C23.9774 4.78738 24.0058 4.81034 24.0354 4.83003C24.0654 4.84966 24.0971 4.86667 24.13 4.88034C24.1628 4.89402 24.1972 4.90495 24.2322 4.91152C24.2677 4.91863 24.3033 4.9224 24.3388 4.9224C24.3749 4.9224 24.4105 4.91863 24.446 4.91152C24.4811 4.90495 24.5155 4.89402 24.5483 4.88034C24.5811 4.86667 24.6129 4.84972 24.6424 4.83003C24.6725 4.81034 24.7004 4.78738 24.7255 4.76222C24.7512 4.73706 24.7736 4.70917 24.7939 4.67909C24.8136 4.64956 24.8305 4.61784 24.8442 4.58448C24.8579 4.55167 24.8682 4.51727 24.8754 4.48222C24.8825 4.44722 24.8857 4.41113 24.8857 4.37558C24.8857 4.34009 24.8825 4.30394 24.8754 4.26839Z" fill="#121E28"/>
</svg>
